Poppins-ThinItalic.ufo
<glyph name="exclam" format="2">
  <advance width="226"/>
  <unicode hex="0021"/>
  <outline>
    <contour>
      <point x="176" y="704" type="line"/>
      <point x="82" y="157" type="line"/>
      <point x="100" y="157" type="line"/>
      <point x="200" y="704" type="line"/>
    </contour>
    <component base="period" xOffset="55"/>
  </outline>
</glyph>
<glyph name="quotedbl" format="2">
  <advance width="196"/>
  <unicode hex="0022"/>
  <outline>
    <contour>
      <point x="132" y="793" type="line"/>
      <point x="109" y="614" type="line"/>
      <point x="125" y="614" type="line"/>
      <point x="163" y="793" type="line"/>
    </contour>
    <contour>
      <point x="217" y="793" type="line"/>
      <point x="194" y="614" type="line"/>
      <point x="210" y="614" type="line"/>
      <point x="248" y="793" type="line"/>
    </contour>
  </outline>
</glyph>
<glyph name="numbersign" format="2">
  <advance width="743"/>
  <unicode hex="0023"/>
  <outline>
    <contour>
      <point x="391" y="740" type="line"/>
      <point x="102" y="0" type="line"/>
      <point x="122" y="0" type="line"/>
      <point x="411" y="740" type="line"/>
    </contour>
    <contour>
      <point x="662" y="740" type="line"/>
      <point x="373" y="0" type="line"/>
      <point x="393" y="0" type="line"/>
      <point x="682" y="740" type="line"/>
    </contour>
    <contour>
      <point x="39" y="266" type="line"/>
      <point x="36" y="248" type="line"/>
      <point x="649" y="248" type="line"/>
      <point x="652" y="266" type="line"/>
    </contour>
    <contour>
      <point x="128" y="483" type="line"/>
      <point x="124" y="465" type="line"/>
      <point x="737" y="465" type="line"/>
      <point x="741" y="483" type="line"/>
    </contour>
  </outline>
</glyph>
<glyph name="dollar" format="2">
  <advance width="536"/>
  <unicode hex="0024"/>
  <outline>
    <contour>
      <point x="351" y="800" type="line"/>
      <point x="195" y="-87" type="line"/>
      <point x="215" y="-87" type="line"/>
      <point x="371" y="800" type="line"/>
    </contour>
    <contour>
      <point x="85" y="300"/>
      <point x="128" y="543" type="curve" smooth="yes"/>
      <point x="145" y="640"/>
      <point x="224" y="693"/>
      <point x="325" y="693" type="curve"/>
      <point x="450" y="693"/>
      <point x="487" y="609"/>
      <point x="490" y="559" type="curve"/>
      <point x="510" y="559" type="line"/>
      <point x="507" y="627"/>
      <point x="460" y="711"/>
      <point x="328" y="711" type="curve"/>
      <point x="201" y="711"/>
      <point x="124" y="635"/>
      <point x="108" y="543" type="curve" smooth="yes"/>
      <point x="62" y="282"/>
      <point x="483" y="421"/>
      <point x="438" y="169" type="curve" smooth="yes"/>
      <point x="423" y="84"/>
      <point x="355" y="11"/>
      <point x="239" y="11" type="curve" smooth="yes"/>
      <point x="101" y="11"/>
      <point x="63" y="111"/>
      <point x="65" y="169" type="curve"/>
      <point x="45" y="169" type="line"/>
      <point x="39" y="80"/>
      <point x="105" y="-7"/>
      <point x="236" y="-7" type="curve" smooth="yes"/>
      <point x="376" y="-7"/>
      <point x="444" y="88"/>
      <point x="458" y="169" type="curve" smooth="yes"/>
      <point x="506" y="441"/>
    </contour>
  </outline>
</glyph>
<glyph name="ampersand" format="2">
  <advance width="672"/>
  <unicode hex="0026"/>
  <outline>
    <contour>
      <point x="470" y="573" type="curve"/>
      <point x="490" y="573" type="line"/>
      <point x="491" y="581"/>
      <point x="492" y="589"/>
      <point x="492" y="597" type="curve" smooth="yes"/>
      <point x="492" y="670"/>
      <point x="431" y="709"/>
      <point x="359" y="709" type="curve" smooth="yes"/>
      <point x="257" y="709"/>
      <point x="179" y="641"/>
      <point x="179" y="547" type="curve" smooth="yes"/>
      <point x="179" y="500"/>
      <point x="200" y="459"/>
      <point x="237" y="413" type="curve" smooth="yes"/>
      <point x="566" y="0" type="line"/>
      <point x="589" y="0" type="line"/>
      <point x="252" y="427" type="line" smooth="yes"/>
      <point x="219" y="468"/>
      <point x="199" y="506"/>
      <point x="199" y="548" type="curve" smooth="yes"/>
      <point x="199" y="633"/>
      <point x="268" y="690"/>
      <point x="358" y="690" type="curve" smooth="yes"/>
      <point x="421" y="690"/>
      <point x="472" y="657"/>
      <point x="472" y="594" type="curve" smooth="yes"/>
      <point x="472" y="587"/>
      <point x="471" y="580"/>
    </contour>
    <contour>
      <point x="262" y="403" type="line"/>
      <point x="251" y="418" type="line"/>
      <point x="234" y="412" type="line" smooth="yes"/>
      <point x="109" y="368"/>
      <point x="28" y="281"/>
      <point x="28" y="168" type="curve" smooth="yes"/>
      <point x="28" y="63"/>
      <point x="107" y="-10"/>
      <point x="224" y="-10" type="curve" smooth="yes"/>
      <point x="364" y="-10"/>
      <point x="463" y="70"/>
      <point x="602" y="255" type="curve" smooth="yes"/>
      <point x="680" y="360" type="line"/>
      <point x="658" y="360" type="line"/>
      <point x="594" y="275" type="line" smooth="yes"/>
      <point x="456" y="89"/>
      <point x="362" y="9"/>
      <point x="224" y="9" type="curve" smooth="yes"/>
      <point x="118" y="9"/>
      <point x="48" y="74"/>
      <point x="48" y="168" type="curve" smooth="yes"/>
      <point x="48" y="277"/>
      <point x="124" y="354"/>
      <point x="241" y="395" type="curve" smooth="yes"/>
    </contour>
  </outline>
</glyph>
<glyph name="quotesingle" format="2">
  <advance width="119"/>
  <unicode hex="0027"/>
  <outline>
    <contour>
      <point x="132" y="793" type="line"/>
      <point x="113" y="614" type="line"/>
      <point x="129" y="614" type="line"/>
      <point x="171" y="793" type="line"/>
    </contour>
  </outline>
</glyph>
<glyph name="parenleft" format="2">
  <advance width="339"/>
  <unicode hex="0028"/>
  <outline>
    <contour>
      <point x="182" y="-186" type="curve"/>
      <point x="204" y="-186" type="line"/>
      <point x="204" y="-183" type="line"/>
      <point x="126" y="-80"/>
      <point x="84" y="56"/>
      <point x="84" y="209" type="curve" smooth="yes"/>
      <point x="84" y="474"/>
      <point x="200" y="753"/>
      <point x="402" y="931" type="curve"/>
      <point x="402" y="934" type="line"/>
      <point x="379" y="934" type="line"/>
      <point x="182" y="761"/>
      <point x="64" y="472"/>
      <point x="64" y="209" type="curve" smooth="yes"/>
      <point x="64" y="37"/>
      <point x="114" y="-97"/>
    </contour>
  </outline>
</glyph>
<glyph name="parenright" format="2">
  <advance width="338"/>
  <unicode hex="0029"/>
  <outline>
    <contour>
      <point x="-3" y="-186" type="line"/>
      <point x="194" y="-11"/>
      <point x="311" y="276"/>
      <point x="311" y="543" type="curve" smooth="yes"/>
      <point x="311" y="711"/>
      <point x="263" y="845"/>
      <point x="194" y="934" type="curve"/>
      <point x="171" y="934" type="line"/>
      <point x="171" y="931" type="line"/>
      <point x="251" y="828"/>
      <point x="291" y="693"/>
      <point x="291" y="541" type="curve" smooth="yes"/>
      <point x="291" y="274"/>
      <point x="177" y="-4"/>
      <point x="-26" y="-183" type="curve"/>
      <point x="-26" y="-186" type="line"/>
    </contour>
  </outline>
</glyph>
<glyph name="asterisk" format="2">
  <advance width="429"/>
  <unicode hex="002A"/>
  <outline>
    <contour>
      <point x="277" y="559" type="line"/>
      <point x="308" y="728" type="line"/>
      <point x="290" y="728" type="line"/>
      <point x="261" y="559" type="line"/>
      <point x="129" y="641" type="line"/>
      <point x="120" y="626" type="line"/>
      <point x="251" y="545" type="line"/>
      <point x="88" y="466" type="line"/>
      <point x="96" y="449" type="line"/>
      <point x="256" y="531" type="line"/>
      <point x="225" y="360" type="line"/>
      <point x="243" y="360" type="line"/>
      <point x="272" y="531" type="line"/>
      <point x="404" y="449" type="line"/>
      <point x="413" y="464" type="line"/>
      <point x="281" y="545" type="line"/>
      <point x="442" y="624" type="line"/>
      <point x="435" y="641" type="line"/>
    </contour>
  </outline>
</glyph>
<glyph name="plus" format="2">
  <advance width="589"/>
  <unicode hex="002B"/>
  <outline>
    <contour>
      <point x="368" y="635" type="line"/>
      <point x="348" y="635" type="line"/>
      <point x="258" y="125" type="line"/>
      <point x="278" y="125" type="line"/>
    </contour>
    <contour>
      <point x="61" y="389" type="line"/>
      <point x="58" y="371" type="line"/>
      <point x="567" y="371" type="line"/>
      <point x="570" y="389" type="line"/>
    </contour>
  </outline>
</glyph>
<glyph name="comma" format="2">
  <advance width="113"/>
  <unicode hex="002C"/>
  <outline>
    <contour>
      <point x="23" y="93" type="line"/>
      <point x="-98" y="-155" type="line"/>
      <point x="-78" y="-155" type="line"/>
      <point x="49" y="93" type="line"/>
    </contour>
  </outline>
</glyph>
<glyph name="period" format="2">
  <advance width="116"/>
  <unicode hex="002E"/>
  <outline>
    <contour>
      <point x="10" y="-2" type="curve" smooth="yes"/>
      <point x="25" y="-2"/>
      <point x="38" y="9"/>
      <point x="41" y="25" type="curve" smooth="yes"/>
      <point x="44" y="41"/>
      <point x="35" y="52"/>
      <point x="20" y="52" type="curve" smooth="yes"/>
      <point x="5" y="52"/>
      <point x="-8" y="41"/>
      <point x="-11" y="25" type="curve" smooth="yes"/>
      <point x="-14" y="9"/>
      <point x="-5" y="-2"/>
    </contour>
  </outline>
</glyph>
<glyph name="slash" format="2">
  <advance width="359"/>
  <unicode hex="002F"/>
  <unicode hex="2215"/>
  <outline>
    <contour>
      <point x="424" y="935" type="line"/>
      <point x="-45" y="-156" type="line"/>
      <point x="-25" y="-156" type="line"/>
      <point x="446" y="935" type="line"/>
    </contour>
  </outline>
</glyph>
<glyph name="zero" format="2">
  <advance width="588"/>
  <unicode hex="0030"/>
  <outline>
    <contour>
      <point x="184" y="711"/>
      <point x="121" y="557"/>
      <point x="85" y="354" type="curve"/>
      <point x="49" y="149"/>
      <point x="57" y="-7"/>
      <point x="245" y="-7" type="curve" smooth="yes"/>
      <point x="432" y="-7"/>
      <point x="497" y="149"/>
      <point x="533" y="354" type="curve"/>
      <point x="569" y="557"/>
      <point x="559" y="711"/>
      <point x="372" y="711" type="curve" smooth="yes"/>
    </contour>
    <contour>
      <point x="542" y="693"/>
      <point x="547" y="547"/>
      <point x="513" y="354" type="curve"/>
      <point x="478" y="159"/>
      <point x="421" y="11"/>
      <point x="248" y="11" type="curve" smooth="yes"/>
      <point x="75" y="11"/>
      <point x="70" y="159"/>
      <point x="105" y="354" type="curve"/>
      <point x="139" y="547"/>
      <point x="196" y="693"/>
      <point x="369" y="693" type="curve" smooth="yes"/>
    </contour>
  </outline>
</glyph>
<glyph name="one" format="2">
  <advance width="226"/>
  <unicode hex="0031"/>
  <outline>
    <contour>
      <point x="194" y="686" type="line"/>
      <point x="73" y="0" type="line"/>
      <point x="93" y="0" type="line"/>
      <point x="218" y="704" type="line"/>
      <point x="92" y="704" type="line"/>
      <point x="88" y="686" type="line"/>
    </contour>
  </outline>
</glyph>
<glyph name="two" format="2">
  <advance width="567"/>
  <unicode hex="0032"/>
  <outline>
    <contour>
      <point x="4" y="11" type="curve"/>
      <point x="2" y="0" type="line"/>
      <point x="469" y="0" type="line"/>
      <point x="473" y="18" type="line"/>
      <point x="44" y="18" type="line"/>
      <point x="228" y="117"/>
      <point x="503" y="325"/>
      <point x="536" y="515" type="curve" smooth="yes"/>
      <point x="562" y="661"/>
      <point x="471" y="711"/>
      <point x="371" y="711" type="curve" smooth="yes"/>
      <point x="237" y="711"/>
      <point x="139" y="623"/>
      <point x="103" y="480" type="curve"/>
      <point x="123" y="480" type="line"/>
      <point x="153" y="599"/>
      <point x="232" y="693"/>
      <point x="368" y="693" type="curve" smooth="yes"/>
      <point x="507" y="693"/>
      <point x="532" y="606"/>
      <point x="516" y="515" type="curve" smooth="yes"/>
      <point x="487" y="351"/>
      <point x="278" y="170"/>
    </contour>
  </outline>
</glyph>
<glyph name="three" format="2">
  <advance width="575"/>
  <unicode hex="0033"/>
  <outline>
    <contour>
      <point x="143" y="635"/>
      <point x="109" y="516" type="curve"/>
      <point x="129" y="516" type="line"/>
      <point x="168" y="645"/>
      <point x="273" y="693"/>
      <point x="372" y="693" type="curve" smooth="yes"/>
      <point x="487" y="693"/>
      <point x="538" y="628"/>
      <point x="522" y="537" type="curve" smooth="yes"/>
      <point x="505" y="438"/>
      <point x="422" y="376"/>
      <point x="246" y="376" type="curve" smooth="yes"/>
      <point x="228" y="376" type="line"/>
      <point x="224" y="357" type="line"/>
      <point x="241" y="357" type="line" smooth="yes"/>
      <point x="403" y="357"/>
      <point x="493" y="297"/>
      <point x="472" y="179" type="curve" smooth="yes"/>
      <point x="456" y="87"/>
      <point x="382" y="13"/>
      <point x="251" y="13" type="curve" smooth="yes"/>
      <point x="123" y="13"/>
      <point x="61" y="92"/>
      <point x="60" y="197" type="curve"/>
      <point x="40" y="197" type="line"/>
      <point x="40" y="68"/>
      <point x="115" y="-7"/>
      <point x="247" y="-7" type="curve" smooth="yes"/>
      <point x="396" y="-7"/>
      <point x="474" y="78"/>
      <point x="492" y="179" type="curve" smooth="yes"/>
      <point x="512" y="291"/>
      <point x="441" y="352"/>
      <point x="337" y="364" type="curve"/>
      <point x="338" y="370" type="line"/>
      <point x="475" y="381"/>
      <point x="529" y="463"/>
      <point x="542" y="537" type="curve" smooth="yes"/>
      <point x="559" y="635"/>
      <point x="504" y="711"/>
      <point x="375" y="711" type="curve" smooth="yes"/>
      <point x="239" y="711"/>
    </contour>
  </outline>
</glyph>
<glyph name="four" format="2">
  <advance width="574"/>
  <unicode hex="0034"/>
  <outline>
    <contour>
      <point x="403" y="190" type="line"/>
      <point x="369" y="0" type="line"/>
      <point x="389" y="0" type="line"/>
      <point x="423" y="190" type="line"/>
      <point x="545" y="190" type="line"/>
      <point x="548" y="208" type="line"/>
      <point x="426" y="208" type="line"/>
      <point x="514" y="704" type="line"/>
      <point x="494" y="704" type="line"/>
      <point x="9" y="206" type="line"/>
      <point x="6" y="190" type="line"/>
    </contour>
    <contour>
      <point x="406" y="208" type="line"/>
      <point x="34" y="208" type="line"/>
      <point x="488" y="672" type="line"/>
    </contour>
  </outline>
</glyph>
<glyph name="five" format="2">
  <advance width="592"/>
  <unicode hex="0035"/>
  <outline>
    <contour>
      <point x="580" y="704" type="line"/>
      <point x="158" y="704" type="line"/>
      <point x="92" y="333" type="line"/>
      <point x="110" y="333" type="line"/>
      <point x="162" y="401"/>
      <point x="246" y="443"/>
      <point x="339" y="443" type="curve" smooth="yes"/>
      <point x="475" y="443"/>
      <point x="533" y="362"/>
      <point x="511" y="236" type="curve" smooth="yes"/>
      <point x="489" y="109"/>
      <point x="405" y="13"/>
      <point x="258" y="13" type="curve" smooth="yes"/>
      <point x="151" y="13"/>
      <point x="78" y="73"/>
      <point x="76" y="192" type="curve"/>
      <point x="56" y="192" type="line"/>
      <point x="53" y="68"/>
      <point x="130" y="-7"/>
      <point x="255" y="-7" type="curve" smooth="yes"/>
      <point x="424" y="-7"/>
      <point x="509" y="112"/>
      <point x="531" y="236" type="curve" smooth="yes"/>
      <point x="551" y="352"/>
      <point x="508" y="461"/>
      <point x="342" y="461" type="curve" smooth="yes"/>
      <point x="253" y="461"/>
      <point x="166" y="422"/>
      <point x="118" y="366" type="curve"/>
      <point x="174" y="686" type="line"/>
      <point x="576" y="686" type="line"/>
    </contour>
  </outline>
</glyph>
<glyph name="six" format="2">
  <advance width="614"/>
  <unicode hex="0036"/>
  <outline>
    <contour>
      <point x="549" y="522" type="curve"/>
      <point x="569" y="522" type="line"/>
      <point x="575" y="635"/>
      <point x="522" y="712"/>
      <point x="398" y="712" type="curve" smooth="yes"/>
      <point x="212" y="712"/>
      <point x="122" y="564"/>
      <point x="82" y="339" type="curve" smooth="yes"/>
      <point x="51" y="161"/>
      <point x="60" y="-7"/>
      <point x="278" y="-7" type="curve" smooth="yes"/>
      <point x="445" y="-7"/>
      <point x="526" y="109"/>
      <point x="546" y="224" type="curve" smooth="yes"/>
      <point x="572" y="374"/>
      <point x="506" y="468"/>
      <point x="357" y="468" type="curve" smooth="yes"/>
      <point x="240" y="468"/>
      <point x="130" y="403"/>
      <point x="95" y="297" type="curve"/>
      <point x="133" y="588"/>
      <point x="243" y="694"/>
      <point x="395" y="694" type="curve" smooth="yes"/>
      <point x="505" y="694"/>
      <point x="554" y="628"/>
    </contour>
    <contour>
      <point x="249" y="450"/>
      <point x="354" y="450" type="curve" smooth="yes"/>
      <point x="483" y="450"/>
      <point x="552" y="373"/>
      <point x="526" y="224" type="curve" smooth="yes"/>
      <point x="502" y="90"/>
      <point x="404" y="11"/>
      <point x="281" y="11" type="curve" smooth="yes"/>
      <point x="114" y="11"/>
      <point x="72" y="132"/>
      <point x="92" y="245" type="curve" smooth="yes"/>
      <point x="116" y="386"/>
    </contour>
  </outline>
</glyph>
<glyph name="seven" format="2">
  <advance width="502"/>
  <unicode hex="0037"/>
  <outline>
    <contour>
      <point x="539" y="704" type="line"/>
      <point x="87" y="704" type="line"/>
      <point x="83" y="686" type="line"/>
      <point x="516" y="686" type="line"/>
      <point x="111" y="0" type="line"/>
      <point x="134" y="0" type="line"/>
      <point x="535" y="686" type="line"/>
    </contour>
  </outline>
</glyph>
<glyph name="eight" format="2">
  <advance width="608"/>
  <unicode hex="0038"/>
  <outline>
    <contour>
      <point x="138" y="385"/>
      <point x="244" y="362" type="curve"/>
      <point x="134" y="344"/>
      <point x="56" y="277"/>
      <point x="39" y="177" type="curve" smooth="yes"/>
      <point x="17" y="53"/>
      <point x="94" y="-25"/>
      <point x="252" y="-25" type="curve"/>
      <point x="410" y="-25"/>
      <point x="515" y="53"/>
      <point x="537" y="177" type="curve" smooth="yes"/>
      <point x="554" y="277"/>
      <point x="500" y="344"/>
      <point x="396" y="362" type="curve"/>
      <point x="510" y="385"/>
      <point x="565" y="453"/>
      <point x="579" y="532" type="curve" smooth="yes"/>
      <point x="598" y="639"/>
      <point x="526" y="711"/>
      <point x="382" y="711" type="curve"/>
      <point x="238" y="711"/>
      <point x="140" y="639"/>
      <point x="121" y="532" type="curve" smooth="yes"/>
      <point x="107" y="453"/>
    </contour>
    <contour>
      <point x="255" y="693"/>
      <point x="379" y="693" type="curve"/>
      <point x="503" y="693"/>
      <point x="578" y="638"/>
      <point x="559" y="532" type="curve" smooth="yes"/>
      <point x="541" y="429"/>
      <point x="450" y="371"/>
      <point x="322" y="371" type="curve"/>
      <point x="194" y="371"/>
      <point x="123" y="429"/>
      <point x="141" y="532" type="curve" smooth="yes"/>
      <point x="160" y="638"/>
    </contour>
    <contour>
      <point x="197" y="353"/>
      <point x="319" y="353" type="curve"/>
      <point x="441" y="353"/>
      <point x="539" y="305"/>
      <point x="517" y="177" type="curve" smooth="yes"/>
      <point x="495" y="57"/>
      <point x="392" y="-7"/>
      <point x="255" y="-7" type="curve"/>
      <point x="118" y="-7"/>
      <point x="37" y="57"/>
      <point x="59" y="177" type="curve" smooth="yes"/>
      <point x="81" y="305"/>
    </contour>
  </outline>
</glyph>
<glyph name="nine" format="2">
  <advance width="614"/>
  <unicode hex="0039"/>
  <outline>
    <contour>
      <point x="93" y="182" type="curve"/>
      <point x="73" y="182" type="line"/>
      <point x="68" y="69"/>
      <point x="121" y="-8"/>
      <point x="245" y="-8" type="curve" smooth="yes"/>
      <point x="431" y="-8"/>
      <point x="521" y="140"/>
      <point x="561" y="365" type="curve" smooth="yes"/>
      <point x="592" y="543"/>
      <point x="583" y="711"/>
      <point x="365" y="711" type="curve" smooth="yes"/>
      <point x="198" y="711"/>
      <point x="117" y="595"/>
      <point x="97" y="480" type="curve" smooth="yes"/>
      <point x="71" y="330"/>
      <point x="137" y="236"/>
      <point x="286" y="236" type="curve" smooth="yes"/>
      <point x="403" y="236"/>
      <point x="512" y="301"/>
      <point x="548" y="407" type="curve"/>
      <point x="510" y="116"/>
      <point x="400" y="10"/>
      <point x="248" y="10" type="curve" smooth="yes"/>
      <point x="138" y="10"/>
      <point x="89" y="76"/>
    </contour>
    <contour>
      <point x="394" y="254"/>
      <point x="289" y="254" type="curve" smooth="yes"/>
      <point x="160" y="254"/>
      <point x="91" y="331"/>
      <point x="117" y="480" type="curve" smooth="yes"/>
      <point x="141" y="614"/>
      <point x="239" y="693"/>
      <point x="362" y="693" type="curve" smooth="yes"/>
      <point x="529" y="693"/>
      <point x="571" y="572"/>
      <point x="551" y="459" type="curve" smooth="yes"/>
      <point x="526" y="318"/>
    </contour>
  </outline>
</glyph>
<glyph name="less" format="2">
  <advance width="381"/>
  <unicode hex="003C"/>
  <outline>
    <contour>
      <point x="319" y="143" type="line"/>
      <point x="84" y="380" type="line"/>
      <point x="402" y="618" type="line"/>
      <point x="377" y="618" type="line"/>
      <point x="59" y="380" type="line"/>
      <point x="294" y="143" type="line"/>
    </contour>
  </outline>
</glyph>
<glyph name="equal" format="2">
  <advance width="564"/>
  <unicode hex="003D"/>
  <outline>
    <contour>
      <point x="45" y="301" type="line"/>
      <point x="42" y="283" type="line"/>
      <point x="526" y="283" type="line"/>
      <point x="529" y="301" type="line"/>
    </contour>
    <contour>
      <point x="77" y="478" type="line"/>
      <point x="74" y="460" type="line"/>
      <point x="558" y="460" type="line"/>
      <point x="561" y="478" type="line"/>
    </contour>
  </outline>
</glyph>
<glyph name="greater" format="2">
  <advance width="381"/>
  <unicode hex="003E"/>
  <outline>
    <contour>
      <point x="335" y="380" type="line"/>
      <point x="18" y="143" type="line"/>
      <point x="43" y="143" type="line"/>
      <point x="360" y="380" type="line"/>
      <point x="126" y="618" type="line"/>
      <point x="101" y="618" type="line"/>
    </contour>
  </outline>
</glyph>
<glyph name="at" format="2">
  <advance width="965"/>
  <unicode hex="0040"/>
  <outline>
    <contour>
      <point x="616" y="126" type="line" smooth="yes"/>
      <point x="604" y="53"/>
      <point x="630" y="-5"/>
      <point x="698" y="-5" type="curve" smooth="yes"/>
      <point x="815" y="-5"/>
      <point x="881" y="145"/>
      <point x="881" y="294" type="curve" smooth="yes"/>
      <point x="881" y="488"/>
      <point x="736" y="624"/>
      <point x="529" y="624" type="curve" smooth="yes"/>
      <point x="264" y="624"/>
      <point x="66" y="412"/>
      <point x="66" y="142" type="curve" smooth="yes"/>
      <point x="66" y="-60"/>
      <point x="207" y="-186"/>
      <point x="409" y="-186" type="curve" smooth="yes"/>
      <point x="469" y="-186"/>
      <point x="531" y="-174"/>
      <point x="584" y="-154" type="curve"/>
      <point x="579" y="-136" type="line"/>
      <point x="529" y="-156"/>
      <point x="473" y="-168"/>
      <point x="415" y="-168" type="curve" smooth="yes"/>
      <point x="217" y="-168"/>
      <point x="85" y="-51"/>
      <point x="86" y="147" type="curve" smooth="yes"/>
      <point x="87" y="398"/>
      <point x="276" y="606"/>
      <point x="526" y="606" type="curve" smooth="yes"/>
      <point x="726" y="606"/>
      <point x="861" y="480"/>
      <point x="861" y="290" type="curve" smooth="yes"/>
      <point x="861" y="158"/>
      <point x="800" y="13"/>
      <point x="701" y="13" type="curve" smooth="yes"/>
      <point x="647" y="13"/>
      <point x="622" y="61"/>
      <point x="634" y="126" type="curve" smooth="yes"/>
      <point x="686" y="422" type="line"/>
      <point x="668" y="422" type="line"/>
      <point x="641" y="268" type="line"/>
      <point x="651" y="277" type="line"/>
      <point x="653" y="380"/>
      <point x="592" y="437"/>
      <point x="503" y="437" type="curve" smooth="yes"/>
      <point x="362" y="437"/>
      <point x="267" y="306"/>
      <point x="267" y="163" type="curve" smooth="yes"/>
      <point x="267" y="61"/>
      <point x="325" y="-5"/>
      <point x="425" y="-5" type="curve" smooth="yes"/>
      <point x="514" y="-5"/>
      <point x="598" y="52"/>
      <point x="632" y="155" type="curve"/>
      <point x="623" y="164" type="line"/>
    </contour>
    <contour>
      <point x="501" y="419" type="curve" smooth="yes"/>
      <point x="612" y="419"/>
      <point x="654" y="327"/>
      <point x="632" y="216" type="curve"/>
      <point x="608" y="81"/>
      <point x="522" y="13"/>
      <point x="429" y="13" type="curve" smooth="yes"/>
      <point x="340" y="13"/>
      <point x="287" y="71"/>
      <point x="287" y="165" type="curve" smooth="yes"/>
      <point x="287" y="294"/>
      <point x="370" y="419"/>
    </contour>
  </outline>
</glyph>
<glyph name="A" format="2">
  <advance width="601"/>
  <unicode hex="0041"/>
  <anchor x="523" y="0" name="ogonek"/>
  <anchor x="374" y="683" name="top"/>
  <outline>
    <contour>
      <point x="384" y="683" type="line"/>
      <point x="364" y="683" type="line"/>
      <point x="-18" y="0" type="line"/>
      <point x="5" y="0" type="line"/>
      <point x="378" y="668" type="line"/>
      <point x="365" y="668" type="line"/>
      <point x="500" y="0" type="line"/>
      <point x="523" y="0" type="line"/>
    </contour>
    <contour>
      <point x="113" y="212" type="line"/>
      <point x="104" y="194" type="line"/>
      <point x="471" y="194" type="line"/>
      <point x="467" y="212" type="line"/>
    </contour>
  </outline>
</glyph>
<glyph name="B" format="2">
  <advance width="560"/>
  <unicode hex="0042"/>
  <outline>
    <contour>
      <point x="536" y="620"/>
      <point x="520" y="532" type="curve"/>
      <point x="503" y="437"/>
      <point x="431" y="376"/>
      <point x="312" y="376" type="curve" smooth="yes"/>
      <point x="124" y="376" type="line"/>
      <point x="178" y="684" type="line"/>
      <point x="360" y="684" type="line" smooth="yes"/>
      <point x="492" y="684"/>
    </contour>
    <contour>
      <point x="477" y="84"/>
      <point x="496" y="188" type="curve" smooth="yes"/>
      <point x="514" y="293"/>
      <point x="443" y="369"/>
      <point x="346" y="369" type="curve"/>
      <point x="337" y="361" type="line"/>
      <point x="418" y="362"/>
      <point x="519" y="411"/>
      <point x="540" y="532" type="curve"/>
      <point x="557" y="628"/>
      <point x="511" y="704"/>
      <point x="364" y="704" type="curve" smooth="yes"/>
      <point x="162" y="704" type="line"/>
      <point x="37" y="0" type="line"/>
      <point x="239" y="0" type="line" smooth="yes"/>
      <point x="391" y="0"/>
    </contour>
    <contour>
      <point x="494" y="290"/>
      <point x="476" y="188" type="curve" smooth="yes"/>
      <point x="457" y="84"/>
      <point x="371" y="20"/>
      <point x="243" y="20" type="curve" smooth="yes"/>
      <point x="61" y="20" type="line"/>
      <point x="120" y="356" type="line"/>
      <point x="300" y="356" type="line" smooth="yes"/>
      <point x="428" y="356"/>
    </contour>
  </outline>
</glyph>
<glyph name="C" format="2">
  <advance width="769"/>
  <unicode hex="0043"/>
  <anchor x="363" y="0" name="bottom"/>
  <anchor x="484" y="683" name="top"/>
  <outline>
    <contour>
      <point x="112" y="563"/>
      <point x="74" y="351" type="curve"/>
      <point x="37" y="141"/>
      <point x="148" y="-7"/>
      <point x="339" y="-7" type="curve"/>
      <point x="508" y="-7"/>
      <point x="627" y="78"/>
      <point x="698" y="207" type="curve"/>
      <point x="678" y="207" type="line"/>
      <point x="617" y="95"/>
      <point x="502" y="11"/>
      <point x="342" y="11" type="curve"/>
      <point x="172" y="11"/>
      <point x="58" y="140"/>
      <point x="95" y="351" type="curve"/>
      <point x="133" y="564"/>
      <point x="293" y="693"/>
      <point x="463" y="693" type="curve"/>
      <point x="623" y="693"/>
      <point x="708" y="609"/>
      <point x="729" y="496" type="curve"/>
      <point x="749" y="496" type="line"/>
      <point x="724" y="626"/>
      <point x="635" y="711"/>
      <point x="466" y="711" type="curve"/>
      <point x="275" y="711"/>
    </contour>
  </outline>
</glyph>
<glyph name="D" format="2">
  <advance width="702"/>
  <unicode hex="0044"/>
  <anchor x="413" y="683" name="top"/>
  <outline>
    <contour>
      <point x="592" y="704"/>
      <point x="347" y="704" type="curve"/>
      <point x="162" y="704" type="line"/>
      <point x="37" y="0" type="line"/>
      <point x="222" y="0" type="line"/>
      <point x="467" y="0"/>
      <point x="617" y="130"/>
      <point x="656" y="352" type="curve"/>
      <point x="696" y="574"/>
    </contour>
    <contour>
      <point x="226" y="18" type="curve"/>
      <point x="61" y="18" type="line"/>
      <point x="178" y="686" type="line"/>
      <point x="343" y="686" type="line"/>
      <point x="579" y="686"/>
      <point x="673" y="558"/>
      <point x="636" y="352" type="curve"/>
      <point x="600" y="146"/>
      <point x="462" y="18"/>
    </contour>
  </outline>
</glyph>
<glyph name="E" format="2">
  <advance width="479"/>
  <unicode hex="0045"/>
  <anchor x="185" y="0" name="bottom"/>
  <anchor x="381" y="0" name="ogonek"/>
  <anchor x="306" y="683" name="top"/>
  <outline>
    <contour>
      <point x="502" y="686" type="line"/>
      <point x="506" y="704" type="line"/>
      <point x="162" y="704" type="line"/>
      <point x="37" y="0" type="line"/>
      <point x="381" y="0" type="line"/>
      <point x="385" y="18" type="line"/>
      <point x="61" y="18" type="line"/>
      <point x="118" y="343" type="line"/>
      <point x="412" y="343" type="line"/>
      <point x="415" y="361" type="line"/>
      <point x="121" y="361" type="line"/>
      <point x="178" y="686" type="line"/>
    </contour>
  </outline>
</glyph>
<glyph name="F" format="2">
  <advance width="469"/>
  <unicode hex="0046"/>
  <outline>
    <contour>
      <point x="162" y="704" type="line"/>
      <point x="37" y="0" type="line"/>
      <point x="57" y="0" type="line"/>
      <point x="118" y="343" type="line"/>
      <point x="412" y="343" type="line"/>
      <point x="415" y="361" type="line"/>
      <point x="121" y="361" type="line"/>
      <point x="178" y="686" type="line"/>
      <point x="502" y="686" type="line"/>
      <point x="506" y="704" type="line"/>
    </contour>
  </outline>
</glyph>
<glyph name="G" format="2">
  <advance width="792"/>
  <unicode hex="0047"/>
  <anchor x="363" y="0" name="bottom"/>
  <anchor x="484" y="683" name="top"/>
  <outline>
    <contour>
      <point x="749" y="495" type="line"/>
      <point x="723" y="624"/>
      <point x="629" y="710"/>
      <point x="474" y="710" type="curve"/>
      <point x="278" y="710"/>
      <point x="111" y="562"/>
      <point x="74" y="351" type="curve"/>
      <point x="37" y="140"/>
      <point x="151" y="-8"/>
      <point x="347" y="-8" type="curve"/>
      <point x="543" y="-8"/>
      <point x="709" y="140"/>
      <point x="746" y="351" type="curve"/>
      <point x="748" y="359" type="line"/>
      <point x="397" y="359" type="line"/>
      <point x="394" y="341" type="line"/>
      <point x="726" y="341" type="line"/>
      <point x="684" y="135"/>
      <point x="522" y="10"/>
      <point x="350" y="10" type="curve"/>
      <point x="175" y="10"/>
      <point x="58" y="139"/>
      <point x="95" y="351" type="curve"/>
      <point x="133" y="563"/>
      <point x="295" y="692"/>
      <point x="470" y="692" type="curve"/>
      <point x="616" y="692"/>
      <point x="708" y="608"/>
      <point x="729" y="495" type="curve"/>
    </contour>
  </outline>
</glyph>
<glyph name="H" format="2">
  <advance width="649"/>
  <unicode hex="0048"/>
  <outline>
    <contour>
      <point x="162" y="704" type="line"/>
      <point x="37" y="0" type="line"/>
      <point x="57" y="0" type="line"/>
      <point x="182" y="704" type="line"/>
    </contour>
    <contour>
      <point x="621" y="704" type="line"/>
      <point x="496" y="0" type="line"/>
      <point x="516" y="0" type="line"/>
      <point x="641" y="704" type="line"/>
    </contour>
    <contour>
      <point x="113" y="371" type="line"/>
      <point x="110" y="353" type="line"/>
      <point x="571" y="353" type="line"/>
      <point x="574" y="371" type="line"/>
    </contour>
  </outline>
</glyph>
<glyph name="I" format="2">
  <advance width="190"/>
  <unicode hex="0049"/>
  <anchor x="57" y="0" name="ogonek"/>
  <anchor x="168" y="683" name="top"/>
  <outline>
    <contour>
      <point x="162" y="704" type="line"/>
      <point x="37" y="0" type="line"/>
      <point x="57" y="0" type="line"/>
      <point x="182" y="704" type="line"/>
    </contour>
  </outline>
</glyph>
<glyph name="J" format="2">
  <advance width="426"/>
  <unicode hex="004A"/>
  <outline>
    <contour>
      <point x="403" y="704" type="line"/>
      <point x="304" y="143" type="line" smooth="yes"/>
      <point x="293" y="85"/>
      <point x="252" y="11"/>
      <point x="147" y="11" type="curve" smooth="yes"/>
      <point x="40" y="11"/>
      <point x="18" y="89"/>
      <point x="33" y="173" type="curve"/>
      <point x="13" y="173" type="line"/>
      <point x="-6" y="63"/>
      <point x="39" y="-7"/>
      <point x="144" y="-7" type="curve" smooth="yes"/>
      <point x="243" y="-7"/>
      <point x="309" y="60"/>
      <point x="324" y="143" type="curve" smooth="yes"/>
      <point x="423" y="704" type="line"/>
    </contour>
  </outline>
</glyph>
<glyph name="K" format="2">
  <advance width="494"/>
  <unicode hex="004B"/>
  <anchor x="207" y="0" name="bottom"/>
  <anchor x="328" y="683" name="top"/>
  <outline>
    <contour>
      <point x="162" y="704" type="line"/>
      <point x="37" y="0" type="line"/>
      <point x="57" y="0" type="line"/>
      <point x="182" y="704" type="line"/>
    </contour>
    <contour>
      <point x="524" y="704" type="line"/>
      <point x="104" y="351" type="line"/>
      <point x="399" y="0" type="line"/>
      <point x="426" y="0" type="line"/>
      <point x="126" y="359" type="line"/>
      <point x="127" y="348" type="line"/>
      <point x="551" y="704" type="line"/>
    </contour>
  </outline>
</glyph>
<glyph name="L" format="2">
  <advance width="395"/>
  <unicode hex="004C"/>
  <anchor x="172" y="0" name="bottom"/>
  <anchor x="174" y="10" name="commaaccent"/>
  <anchor x="275" y="683" name="top"/>
  <anchor x="448" y="683" name="topright"/>
  <outline>
    <contour>
      <point x="182" y="704" type="line"/>
      <point x="162" y="704" type="line"/>
      <point x="37" y="0" type="line"/>
      <point x="327" y="0" type="line"/>
      <point x="331" y="18" type="line"/>
      <point x="61" y="18" type="line"/>
    </contour>
  </outline>
</glyph>
<glyph name="M" format="2">
  <advance width="797"/>
  <unicode hex="004D"/>
  <outline>
    <contour>
      <point x="158" y="684" type="line"/>
      <point x="37" y="0" type="line"/>
      <point x="57" y="0" type="line"/>
      <point x="170" y="639" type="line"/>
      <point x="166" y="644" type="line"/>
      <point x="341" y="0" type="line"/>
      <point x="361" y="0" type="line"/>
      <point x="762" y="644" type="line"/>
      <point x="757" y="639" type="line"/>
      <point x="644" y="0" type="line"/>
      <point x="664" y="0" type="line"/>
      <point x="785" y="684" type="line"/>
      <point x="765" y="684" type="line"/>
      <point x="349" y="15" type="line"/>
      <point x="360" y="15" type="line"/>
      <point x="178" y="684" type="line"/>
    </contour>
  </outline>
</glyph>
<glyph name="N" format="2">
  <advance width="647"/>
  <unicode hex="004E"/>
  <anchor x="276" y="0" name="bottom"/>
  <anchor x="397" y="683" name="top"/>
  <outline>
    <contour>
      <point x="638" y="703" type="line"/>
      <point x="618" y="703" type="line"/>
      <point x="501" y="37" type="line"/>
      <point x="181" y="703" type="line"/>
      <point x="161" y="703" type="line"/>
      <point x="37" y="0" type="line"/>
      <point x="57" y="0" type="line"/>
      <point x="175" y="667" type="line"/>
      <point x="494" y="0" type="line"/>
      <point x="514" y="0" type="line"/>
    </contour>
  </outline>
</glyph>
<glyph name="O" format="2">
  <advance width="792"/>
  <unicode hex="004F"/>
  <anchor x="480" y="683" name="top"/>
  <outline>
    <contour>
      <point x="347" y="-8" type="curve"/>
      <point x="577" y="-8"/>
      <point x="753" y="195"/>
      <point x="753" y="428" type="curve" smooth="yes"/>
      <point x="753" y="597"/>
      <point x="645" y="710"/>
      <point x="474" y="710" type="curve"/>
      <point x="243" y="710"/>
      <point x="67" y="506"/>
      <point x="67" y="274" type="curve" smooth="yes"/>
      <point x="67" y="105"/>
      <point x="176" y="-8"/>
    </contour>
    <contour>
      <point x="350" y="10" type="curve"/>
      <point x="197" y="10"/>
      <point x="88" y="109"/>
      <point x="88" y="275" type="curve" smooth="yes"/>
      <point x="88" y="494"/>
      <point x="248" y="692"/>
      <point x="470" y="692" type="curve"/>
      <point x="623" y="692"/>
      <point x="732" y="594"/>
      <point x="732" y="428" type="curve" smooth="yes"/>
      <point x="732" y="204"/>
      <point x="569" y="10"/>
    </contour>
  </outline>
</glyph>
<glyph name="P" format="2">
  <advance width="528"/>
  <unicode hex="0050"/>
  <outline>
    <contour>
      <point x="275" y="338" type="curve" smooth="yes"/>
      <point x="117" y="338" type="line"/>
      <point x="178" y="684" type="line"/>
      <point x="336" y="684" type="line" smooth="yes"/>
      <point x="487" y="684"/>
      <point x="530" y="619"/>
      <point x="510" y="510" type="curve" smooth="yes"/>
      <point x="492" y="406"/>
      <point x="426" y="338"/>
    </contour>
    <contour>
      <point x="507" y="380"/>
      <point x="530" y="510" type="curve" smooth="yes"/>
      <point x="551" y="627"/>
      <point x="500" y="704"/>
      <point x="340" y="704" type="curve" smooth="yes"/>
      <point x="162" y="704" type="line"/>
      <point x="37" y="0" type="line"/>
      <point x="57" y="0" type="line"/>
      <point x="113" y="317" type="line"/>
      <point x="271" y="317" type="line" smooth="yes"/>
      <point x="417" y="317"/>
    </contour>
  </outline>
</glyph>
<glyph name="Q" format="2">
  <advance width="792"/>
  <unicode hex="0051"/>
  <outline>
    <contour>
      <point x="473" y="30" type="line"/>
      <point x="455" y="14" type="line"/>
      <point x="634" y="-149" type="line"/>
      <point x="669" y="-149" type="line"/>
    </contour>
    <component base="O"/>
  </outline>
</glyph>
<glyph name="R" format="2">
  <advance width="535"/>
  <unicode hex="0052"/>
  <anchor x="248" y="0" name="bottom"/>
  <anchor x="369" y="683" name="top"/>
  <outline>
    <contour>
      <point x="530" y="615"/>
      <point x="511" y="506" type="curve" smooth="yes"/>
      <point x="492" y="403"/>
      <point x="417" y="326"/>
      <point x="273" y="326" type="curve" smooth="yes"/>
      <point x="115" y="326" type="line"/>
      <point x="178" y="684" type="line"/>
      <point x="334" y="684" type="line" smooth="yes"/>
      <point x="485" y="684"/>
    </contour>
    <contour>
      <point x="338" y="704" type="curve" smooth="yes"/>
      <point x="162" y="704" type="line"/>
      <point x="37" y="0" type="line"/>
      <point x="57" y="0" type="line"/>
      <point x="112" y="307" type="line"/>
      <point x="270" y="307" type="line" smooth="yes"/>
      <point x="416" y="307"/>
      <point x="509" y="379"/>
      <point x="532" y="506" type="curve" smooth="yes"/>
      <point x="552" y="623"/>
      <point x="498" y="704"/>
    </contour>
    <contour>
      <point x="309" y="315" type="line"/>
      <point x="285" y="315" type="line"/>
      <point x="422" y="0" type="line"/>
      <point x="447" y="0" type="line"/>
    </contour>
  </outline>
</glyph>
<glyph name="S" format="2">
  <advance width="528"/>
  <unicode hex="0053"/>
  <anchor x="219" y="0" name="bottom"/>
  <anchor x="340" y="683" name="top"/>
  <outline>
    <contour>
      <point x="229" y="-7" type="curve" smooth="yes"/>
      <point x="359" y="-7"/>
      <point x="433" y="72"/>
      <point x="448" y="157" type="curve" smooth="yes"/>
      <point x="495" y="432"/>
      <point x="74" y="322"/>
      <point x="115" y="557" type="curve" smooth="yes"/>
      <point x="130" y="643"/>
      <point x="212" y="693"/>
      <point x="311" y="693" type="curve"/>
      <point x="432" y="693"/>
      <point x="481" y="613"/>
      <point x="479" y="563" type="curve"/>
      <point x="499" y="563" type="line"/>
      <point x="502" y="631"/>
      <point x="442" y="711"/>
      <point x="314" y="711" type="curve"/>
      <point x="185" y="711"/>
      <point x="109" y="638"/>
      <point x="95" y="557" type="curve" smooth="yes"/>
      <point x="52" y="303"/>
      <point x="473" y="415"/>
      <point x="428" y="157" type="curve" smooth="yes"/>
      <point x="413" y="70"/>
      <point x="338" y="11"/>
      <point x="232" y="11" type="curve" smooth="yes"/>
      <point x="81" y="11"/>
      <point x="52" y="108"/>
      <point x="55" y="166" type="curve"/>
      <point x="35" y="166" type="line"/>
      <point x="29" y="77"/>
      <point x="88" y="-7"/>
    </contour>
  </outline>
</glyph>
<glyph name="T" format="2">
  <advance width="470"/>
  <unicode hex="0054"/>
  <anchor x="185" y="0" name="bottom"/>
  <anchor x="309" y="683" name="top"/>
  <outline>
    <contour>
      <point x="97" y="704" type="line"/>
      <point x="93" y="686" type="line"/>
      <point x="298" y="686" type="line"/>
      <point x="177" y="0" type="line"/>
      <point x="197" y="0" type="line"/>
      <point x="318" y="686" type="line"/>
      <point x="523" y="686" type="line"/>
      <point x="527" y="704" type="line"/>
    </contour>
  </outline>
</glyph>
<glyph name="U" format="2">
  <advance width="629"/>
  <unicode hex="0055"/>
  <anchor x="330" y="0" name="ogonek"/>
  <anchor x="387" y="683" name="top"/>
  <outline>
    <contour>
      <point x="157" y="704" type="line"/>
      <point x="79" y="267" type="line" smooth="yes"/>
      <point x="45" y="73"/>
      <point x="130" y="-7"/>
      <point x="268" y="-7" type="curve" smooth="yes"/>
      <point x="406" y="-7"/>
      <point x="514" y="73"/>
      <point x="548" y="267" type="curve" smooth="yes"/>
      <point x="626" y="704" type="line"/>
      <point x="606" y="704" type="line"/>
      <point x="528" y="267" type="line" smooth="yes"/>
      <point x="495" y="79"/>
      <point x="393" y="11"/>
      <point x="271" y="11" type="curve" smooth="yes"/>
      <point x="147" y="11"/>
      <point x="66" y="79"/>
      <point x="99" y="267" type="curve" smooth="yes"/>
      <point x="177" y="704" type="line"/>
    </contour>
  </outline>
</glyph>
<glyph name="V" format="2">
  <advance width="619"/>
  <unicode hex="0056"/>
  <outline>
    <contour>
      <point x="107" y="704" type="line"/>
      <point x="251" y="0" type="line"/>
      <point x="271" y="0" type="line"/>
      <point x="666" y="704" type="line"/>
      <point x="642" y="704" type="line"/>
      <point x="267" y="35" type="line"/>
      <point x="131" y="704" type="line"/>
    </contour>
  </outline>
</glyph>
<glyph name="W" format="2">
  <advance width="904"/>
  <unicode hex="0057"/>
  <outline>
    <contour>
      <point x="112" y="704" type="line"/>
      <point x="176" y="0" type="line"/>
      <point x="196" y="0" type="line"/>
      <point x="536" y="697" type="line"/>
      <point x="518" y="697" type="line"/>
      <point x="612" y="0" type="line"/>
      <point x="632" y="0" type="line"/>
      <point x="946" y="704" type="line"/>
      <point x="922" y="704" type="line"/>
      <point x="617" y="15" type="line"/>
      <point x="633" y="15" type="line"/>
      <point x="541" y="704" type="line"/>
      <point x="517" y="704" type="line"/>
      <point x="181" y="15" type="line"/>
      <point x="197" y="15" type="line"/>
      <point x="136" y="704" type="line"/>
    </contour>
  </outline>
</glyph>
<glyph name="X" format="2">
  <advance width="500"/>
  <unicode hex="0058"/>
  <outline>
    <contour>
      <point x="107" y="704" type="line"/>
      <point x="399" y="0" type="line"/>
      <point x="422" y="0" type="line"/>
      <point x="130" y="704" type="line"/>
    </contour>
    <contour>
      <point x="276" y="361" type="line"/>
      <point x="262" y="371" type="line"/>
      <point x="-18" y="0" type="line"/>
      <point x="5" y="0" type="line"/>
    </contour>
    <contour>
      <point x="257" y="357" type="line"/>
      <point x="272" y="347" type="line"/>
      <point x="547" y="704" type="line"/>
      <point x="524" y="704" type="line"/>
    </contour>
  </outline>
</glyph>
<glyph name="Y" format="2">
  <advance width="518"/>
  <unicode hex="0059"/>
  <anchor x="333" y="683" name="top"/>
  <outline>
    <contour>
      <point x="107" y="704" type="line"/>
      <point x="254" y="295" type="line"/>
      <point x="202" y="0" type="line"/>
      <point x="222" y="0" type="line"/>
      <point x="274" y="295" type="line"/>
      <point x="565" y="704" type="line"/>
      <point x="541" y="704" type="line"/>
      <point x="262" y="309" type="line"/>
      <point x="271" y="309" type="line"/>
      <point x="131" y="704" type="line"/>
    </contour>
  </outline>
</glyph>
<glyph name="Z" format="2">
  <advance width="487"/>
  <unicode hex="005A"/>
  <anchor x="318" y="683" name="top"/>
  <outline>
    <contour>
      <point x="515" y="684" type="line"/>
      <point x="519" y="704" type="line"/>
      <point x="125" y="704" type="line"/>
      <point x="121" y="684" type="line"/>
      <point x="494" y="684" type="line"/>
      <point x="-9" y="19" type="line"/>
      <point x="-13" y="0" type="line"/>
      <point x="404" y="0" type="line"/>
      <point x="408" y="19" type="line"/>
      <point x="13" y="19" type="line"/>
    </contour>
  </outline>
</glyph>
<glyph name="bracketleft" format="2">
  <advance width="233"/>
  <unicode hex="005B"/>
  <outline>
    <contour>
      <point x="202" y="934" type="line"/>
      <point x="5" y="-185" type="line"/>
      <point x="99" y="-185" type="line"/>
      <point x="102" y="-167" type="line"/>
      <point x="28" y="-167" type="line"/>
      <point x="219" y="916" type="line"/>
      <point x="293" y="916" type="line"/>
      <point x="296" y="934" type="line"/>
    </contour>
  </outline>
</glyph>
<glyph name="backslash" format="2">
  <advance width="438"/>
  <unicode hex="005C"/>
  <outline>
    <contour>
      <point x="309" y="-156" type="line"/>
      <point x="149" y="935" type="line"/>
      <point x="126" y="935" type="line"/>
      <point x="288" y="-156" type="line"/>
    </contour>
  </outline>
</glyph>
<glyph name="bracketright" format="2">
  <advance width="233"/>
  <unicode hex="005D"/>
  <outline>
    <contour>
      <point x="265" y="934" type="line"/>
      <point x="171" y="934" type="line"/>
      <point x="168" y="916" type="line"/>
      <point x="242" y="916" type="line"/>
      <point x="51" y="-167" type="line"/>
      <point x="-23" y="-167" type="line"/>
      <point x="-26" y="-185" type="line"/>
      <point x="68" y="-185" type="line"/>
    </contour>
  </outline>
</glyph>
<glyph name="asciicircum" format="2">
  <advance width="552"/>
  <unicode hex="005E"/>
  <outline>
    <contour>
      <point x="345" y="653" type="line"/>
      <point x="475" y="174" type="line"/>
      <point x="495" y="174" type="line"/>
      <point x="355" y="683" type="line"/>
      <point x="343" y="683" type="line"/>
      <point x="23" y="174" type="line"/>
      <point x="43" y="174" type="line"/>
    </contour>
  </outline>
</glyph>
<glyph name="underscore" format="2">
  <advance width="533"/>
  <unicode hex="005F"/>
  <outline>
    <contour>
      <point x="-13" y="-30" type="line"/>
      <point x="-16" y="-48" type="line"/>
      <point x="437" y="-48" type="line"/>
      <point x="440" y="-30" type="line"/>
    </contour>
  </outline>
</glyph>
<glyph name="gravecomb" format="2">
  <advance width="267"/>
  <unicode hex="0060"/>
  <anchor x="195" y="540" name="_top"/>
  <outline>
    <contour>
      <point x="123" y="740" type="line"/>
      <point x="119" y="716" type="line"/>
      <point x="283" y="586" type="line"/>
      <point x="286" y="606" type="line"/>
    </contour>
  </outline>
</glyph>
<glyph name="a" format="2">
  <advance width="671"/>
  <unicode hex="0061"/>
  <anchor x="538" y="0" name="ogonek"/>
  <anchor x="387" y="540" name="top"/>
  <outline>
    <contour>
      <point x="90" y="442"/>
      <point x="60" y="270" type="curve"/>
      <point x="30" y="98"/>
      <point x="119" y="-7"/>
      <point x="274" y="-7" type="curve"/>
      <point x="403" y="-7"/>
      <point x="504" y="69"/>
      <point x="548" y="165" type="curve"/>
      <point x="519" y="0" type="line"/>
      <point x="538" y="0" type="line"/>
      <point x="634" y="540" type="line"/>
      <point x="615" y="540" type="line"/>
      <point x="586" y="375" type="line"/>
      <point x="574" y="471"/>
      <point x="501" y="547"/>
      <point x="372" y="547" type="curve"/>
      <point x="217" y="547"/>
    </contour>
    <contour>
      <point x="595" y="426"/>
      <point x="567" y="270" type="curve"/>
      <point x="539" y="114"/>
      <point x="418" y="11"/>
      <point x="277" y="11" type="curve"/>
      <point x="129" y="11"/>
      <point x="52" y="109"/>
      <point x="80" y="270" type="curve"/>
      <point x="108" y="431"/>
      <point x="221" y="529"/>
      <point x="369" y="529" type="curve"/>
      <point x="510" y="529"/>
    </contour>
  </outline>
</glyph>
<glyph name="c" format="2">
  <advance width="628"/>
  <unicode hex="0063"/>
  <anchor x="269" y="0" name="bottom"/>
  <anchor x="365" y="540" name="top"/>
  <outline>
    <contour>
      <point x="91" y="444"/>
      <point x="60" y="270" type="curve"/>
      <point x="29" y="96"/>
      <point x="121" y="-7"/>
      <point x="271" y="-7" type="curve" smooth="yes"/>
      <point x="411" y="-7"/>
      <point x="515" y="72"/>
      <point x="553" y="183" type="curve"/>
      <point x="533" y="183" type="line"/>
      <point x="497" y="76"/>
      <point x="394" y="11"/>
      <point x="274" y="11" type="curve" smooth="yes"/>
      <point x="150" y="11"/>
      <point x="48" y="91"/>
      <point x="80" y="270" type="curve"/>
      <point x="112" y="449"/>
      <point x="242" y="529"/>
      <point x="366" y="529" type="curve" smooth="yes"/>
      <point x="486" y="529"/>
      <point x="565" y="464"/>
      <point x="563" y="357" type="curve"/>
      <point x="583" y="357" type="line"/>
      <point x="585" y="468"/>
      <point x="509" y="547"/>
      <point x="369" y="547" type="curve" smooth="yes"/>
      <point x="219" y="547"/>
    </contour>
  </outline>
</glyph>
<glyph name="e" format="2">
  <advance width="628"/>
  <unicode hex="0065"/>
  <anchor x="266" y="0" name="bottom"/>
  <anchor x="383" y="12" name="ogonek"/>
  <anchor x="362" y="540" name="top"/>
  <outline>
    <contour>
      <point x="72" y="279" type="line"/>
      <point x="68" y="261" type="line"/>
      <point x="565" y="261" type="line"/>
      <point x="570" y="279"/>
      <point x="571" y="289"/>
      <point x="576" y="315" type="curve" smooth="yes"/>
      <point x="596" y="428"/>
      <point x="534" y="547"/>
      <point x="369" y="547" type="curve" smooth="yes"/>
      <point x="219" y="547"/>
      <point x="91" y="444"/>
      <point x="60" y="270" type="curve"/>
      <point x="29" y="96"/>
      <point x="121" y="-7"/>
      <point x="271" y="-7" type="curve" smooth="yes"/>
      <point x="411" y="-7"/>
      <point x="515" y="72"/>
      <point x="553" y="183" type="curve"/>
      <point x="533" y="183" type="line"/>
      <point x="497" y="76"/>
      <point x="394" y="11"/>
      <point x="274" y="11" type="curve" smooth="yes"/>
      <point x="151" y="11"/>
      <point x="48" y="90"/>
      <point x="79" y="267" type="curve" smooth="yes"/>
      <point x="81" y="275" type="line" smooth="yes"/>
      <point x="112" y="451"/>
      <point x="243" y="529"/>
      <point x="366" y="529" type="curve" smooth="yes"/>
      <point x="486" y="529"/>
      <point x="592" y="453"/>
      <point x="552" y="279" type="curve"/>
    </contour>
  </outline>
</glyph>
<glyph name="f" format="2">
  <advance width="318"/>
  <unicode hex="0066"/>
  <outline>
    <contour>
      <point x="162" y="578" type="curve" smooth="yes"/>
      <point x="60" y="0" type="line"/>
      <point x="80" y="0" type="line"/>
      <point x="182" y="578" type="line" smooth="yes"/>
      <point x="199" y="675"/>
      <point x="243" y="720"/>
      <point x="362" y="720" type="curve"/>
      <point x="366" y="740" type="line"/>
      <point x="235" y="740"/>
      <point x="181" y="683"/>
    </contour>
    <contour>
      <point x="68" y="540" type="line"/>
      <point x="64" y="519" type="line"/>
      <point x="327" y="519" type="line"/>
      <point x="331" y="540" type="line"/>
    </contour>
  </outline>
</glyph>
<glyph name="g" format="2">
  <advance width="671"/>
  <unicode hex="0067"/>
  <anchor x="387" y="540" name="top"/>
  <outline>
    <contour>
      <point x="372" y="547" type="curve"/>
      <point x="217" y="547"/>
      <point x="90" y="442"/>
      <point x="60" y="270" type="curve"/>
      <point x="30" y="98"/>
      <point x="119" y="-7"/>
      <point x="274" y="-7" type="curve"/>
      <point x="403" y="-7"/>
      <point x="504" y="69"/>
      <point x="548" y="164" type="curve"/>
      <point x="516" y="-20" type="line"/>
      <point x="491" y="-159"/>
      <point x="379" y="-246"/>
      <point x="256" y="-246" type="curve" smooth="yes"/>
      <point x="131" y="-246"/>
      <point x="65" y="-181"/>
      <point x="53" y="-88" type="curve"/>
      <point x="33" y="-88" type="line"/>
      <point x="46" y="-192"/>
      <point x="119" y="-264"/>
      <point x="253" y="-264" type="curve" smooth="yes"/>
      <point x="378" y="-264"/>
      <point x="507" y="-176"/>
      <point x="535" y="-20" type="curve"/>
      <point x="634" y="540" type="line"/>
      <point x="615" y="540" type="line"/>
      <point x="586" y="377" type="line"/>
      <point x="574" y="471"/>
      <point x="501" y="547"/>
    </contour>
    <contour>
      <point x="595" y="426"/>
      <point x="567" y="270" type="curve"/>
      <point x="539" y="114"/>
      <point x="418" y="11"/>
      <point x="277" y="11" type="curve"/>
      <point x="129" y="11"/>
      <point x="52" y="109"/>
      <point x="80" y="270" type="curve"/>
      <point x="108" y="431"/>
      <point x="221" y="529"/>
      <point x="369" y="529" type="curve"/>
      <point x="510" y="529"/>
    </contour>
  </outline>
</glyph>
<glyph name="i" format="2">
  <advance width="190"/>
  <unicode hex="0069"/>
  <anchor x="57" y="0" name="ogonek"/>
  <outline>
    <contour>
      <point x="133" y="540" type="line"/>
      <point x="37" y="0" type="line"/>
      <point x="57" y="0" type="line"/>
      <point x="153" y="540" type="line"/>
    </contour>
    <contour>
      <point x="153" y="678"/>
      <point x="167" y="678" type="curve"/>
      <point x="181" y="678"/>
      <point x="195" y="688"/>
      <point x="198" y="705" type="curve" smooth="yes"/>
      <point x="201" y="722"/>
      <point x="190" y="732"/>
      <point x="176" y="732" type="curve"/>
      <point x="162" y="732"/>
      <point x="149" y="722"/>
      <point x="146" y="705" type="curve" smooth="yes"/>
      <point x="143" y="688"/>
    </contour>
  </outline>
</glyph>
<glyph name="j" format="2">
  <advance width="200"/>
  <unicode hex="006A"/>
  <outline>
    <contour>
      <point x="163" y="678"/>
      <point x="177" y="678" type="curve"/>
      <point x="191" y="678"/>
      <point x="205" y="688"/>
      <point x="208" y="705" type="curve" smooth="yes"/>
      <point x="211" y="722"/>
      <point x="200" y="732"/>
      <point x="186" y="732" type="curve"/>
      <point x="172" y="732"/>
      <point x="159" y="722"/>
      <point x="156" y="705" type="curve" smooth="yes"/>
      <point x="153" y="688"/>
    </contour>
    <contour>
      <point x="163" y="540" type="line"/>
      <point x="143" y="540" type="line"/>
      <point x="22" y="-146" type="line" smooth="yes"/>
      <point x="10" y="-214"/>
      <point x="-22" y="-234"/>
      <point x="-78" y="-234" type="curve" smooth="yes"/>
      <point x="-114" y="-234" type="line"/>
      <point x="-117" y="-254" type="line"/>
      <point x="-81" y="-254" type="line" smooth="yes"/>
      <point x="-3" y="-254"/>
      <point x="30" y="-213"/>
      <point x="41" y="-152" type="curve" smooth="yes"/>
    </contour>
  </outline>
</glyph>
<glyph name="k" format="2">
  <advance width="395"/>
  <unicode hex="006B"/>
  <anchor x="156" y="0" name="bottom"/>
  <outline>
    <contour>
      <point x="168" y="740" type="line"/>
      <point x="37" y="0" type="line"/>
      <point x="57" y="0" type="line"/>
      <point x="188" y="740" type="line"/>
    </contour>
    <contour>
      <point x="397" y="540" type="line"/>
      <point x="86" y="273" type="line"/>
      <point x="306" y="0" type="line"/>
      <point x="334" y="0" type="line"/>
      <point x="94" y="295" type="line"/>
      <point x="94" y="256" type="line"/>
      <point x="426" y="540" type="line"/>
    </contour>
  </outline>
</glyph>
<glyph name="l" format="2">
  <advance width="190"/>
  <unicode hex="006C"/>
  <anchor x="47" y="0" name="bottom"/>
  <anchor x="49" y="10" name="commaaccent"/>
  <anchor x="178" y="740" name="top"/>
  <anchor x="208" y="540" name="topright"/>
  <outline>
    <contour>
      <point x="168" y="740" type="line"/>
      <point x="37" y="0" type="line"/>
      <point x="57" y="0" type="line"/>
      <point x="188" y="740" type="line"/>
    </contour>
  </outline>
</glyph>
<glyph name="m" format="2">
  <advance width="1003"/>
  <unicode hex="006D"/>
  <outline>
    <contour>
      <point x="133" y="540" type="line"/>
      <point x="37" y="0" type="line"/>
      <point x="57" y="0" type="line"/>
      <point x="153" y="540" type="line"/>
    </contour>
    <contour>
      <point x="503" y="317" type="curve" smooth="yes"/>
      <point x="447" y="0" type="line"/>
      <point x="466" y="0" type="line"/>
      <point x="522" y="315" type="line" smooth="yes"/>
      <point x="551" y="482"/>
      <point x="470" y="552"/>
      <point x="358" y="552" type="curve" smooth="yes"/>
      <point x="246" y="552"/>
      <point x="140" y="485"/>
      <point x="105" y="327" type="curve"/>
      <point x="107" y="282" type="line"/>
      <point x="137" y="452"/>
      <point x="238" y="534"/>
      <point x="355" y="534" type="curve" smooth="yes"/>
      <point x="468" y="534"/>
      <point x="529" y="461"/>
    </contour>
    <contour>
      <point x="912" y="317" type="curve" smooth="yes"/>
      <point x="856" y="0" type="line"/>
      <point x="875" y="0" type="line"/>
      <point x="931" y="315" type="line" smooth="yes"/>
      <point x="960" y="482"/>
      <point x="879" y="552"/>
      <point x="767" y="552" type="curve" smooth="yes"/>
      <point x="654" y="552"/>
      <point x="547" y="485"/>
      <point x="512" y="327" type="curve"/>
      <point x="516" y="282" type="line"/>
      <point x="546" y="452"/>
      <point x="648" y="534"/>
      <point x="764" y="534" type="curve" smooth="yes"/>
      <point x="877" y="534"/>
      <point x="938" y="461"/>
    </contour>
  </outline>
</glyph>
<glyph name="n" format="2">
  <advance width="614"/>
  <unicode hex="006E"/>
  <anchor x="245" y="0" name="bottom"/>
  <anchor x="329" y="540" name="top"/>
  <outline>
    <contour>
      <point x="133" y="540" type="line"/>
      <point x="37" y="0" type="line"/>
      <point x="57" y="0" type="line"/>
      <point x="153" y="540" type="line"/>
    </contour>
    <contour>
      <point x="523" y="317" type="curve" smooth="yes"/>
      <point x="467" y="0" type="line"/>
      <point x="486" y="0" type="line"/>
      <point x="542" y="315" type="line" smooth="yes"/>
      <point x="571" y="482"/>
      <point x="485" y="552"/>
      <point x="367" y="552" type="curve"/>
      <point x="249" y="552"/>
      <point x="141" y="484"/>
      <point x="109" y="340" type="curve"/>
      <point x="108" y="287" type="line"/>
      <point x="138" y="456"/>
      <point x="241" y="534"/>
      <point x="364" y="534" type="curve"/>
      <point x="483" y="534"/>
      <point x="549" y="461"/>
    </contour>
  </outline>
</glyph>
<glyph name="o" format="2">
  <advance width="647"/>
  <unicode hex="006F"/>
  <anchor x="372" y="547" name="top"/>
  <outline>
    <contour>
      <point x="276" y="-7" type="curve"/>
      <point x="461" y="-7"/>
      <point x="592" y="148"/>
      <point x="592" y="333" type="curve" smooth="yes"/>
      <point x="592" y="469"/>
      <point x="503" y="547"/>
      <point x="372" y="547" type="curve"/>
      <point x="187" y="547"/>
      <point x="55" y="392"/>
      <point x="55" y="207" type="curve" smooth="yes"/>
      <point x="55" y="72"/>
      <point x="145" y="-7"/>
    </contour>
    <contour>
      <point x="279" y="11" type="curve"/>
      <point x="170" y="11"/>
      <point x="75" y="73"/>
      <point x="75" y="209" type="curve" smooth="yes"/>
      <point x="75" y="379"/>
      <point x="192" y="529"/>
      <point x="369" y="529" type="curve"/>
      <point x="478" y="529"/>
      <point x="572" y="468"/>
      <point x="572" y="332" type="curve" smooth="yes"/>
      <point x="572" y="160"/>
      <point x="456" y="11"/>
    </contour>
  </outline>
</glyph>
<glyph name="p" format="2">
  <advance width="671"/>
  <unicode hex="0070"/>
  <outline>
    <contour>
      <point x="167" y="471"/>
      <point x="123" y="375" type="curve"/>
      <point x="152" y="540" type="line"/>
      <point x="133" y="540" type="line"/>
      <point x="-7" y="-254" type="line"/>
      <point x="12" y="-254" type="line"/>
      <point x="85" y="165" type="line"/>
      <point x="97" y="69"/>
      <point x="170" y="-7"/>
      <point x="299" y="-7" type="curve"/>
      <point x="454" y="-7"/>
      <point x="581" y="98"/>
      <point x="611" y="270" type="curve"/>
      <point x="641" y="442"/>
      <point x="552" y="547"/>
      <point x="397" y="547" type="curve"/>
      <point x="268" y="547"/>
    </contour>
    <contour>
      <point x="619" y="431"/>
      <point x="591" y="270" type="curve"/>
      <point x="563" y="109"/>
      <point x="450" y="11"/>
      <point x="302" y="11" type="curve"/>
      <point x="161" y="11"/>
      <point x="76" y="114"/>
      <point x="104" y="270" type="curve"/>
      <point x="132" y="426"/>
      <point x="253" y="529"/>
      <point x="394" y="529" type="curve"/>
      <point x="542" y="529"/>
    </contour>
  </outline>
</glyph>
<glyph name="r" format="2">
  <advance width="338"/>
  <unicode hex="0072"/>
  <anchor x="52" y="0" name="bottom"/>
  <anchor x="248" y="540" name="top"/>
  <outline>
    <contour>
      <point x="111" y="341" type="curve"/>
      <point x="114" y="321" type="line"/>
      <point x="142" y="481"/>
      <point x="258" y="530"/>
      <point x="355" y="530" type="curve" smooth="yes"/>
      <point x="364" y="530" type="line"/>
      <point x="368" y="552" type="line"/>
      <point x="221" y="552"/>
      <point x="135" y="479"/>
    </contour>
    <contour>
      <point x="133" y="540" type="line"/>
      <point x="37" y="0" type="line"/>
      <point x="57" y="0" type="line"/>
      <point x="153" y="540" type="line"/>
    </contour>
  </outline>
</glyph>
<glyph name="s" format="2">
  <advance width="483"/>
  <unicode hex="0073"/>
  <anchor x="196" y="0" name="bottom"/>
  <anchor x="292" y="540" name="top"/>
  <outline>
    <contour>
      <point x="196" y="-7" type="curve" smooth="yes"/>
      <point x="309" y="-7"/>
      <point x="389" y="49"/>
      <point x="389" y="141" type="curve" smooth="yes"/>
      <point x="389" y="313"/>
      <point x="100" y="243"/>
      <point x="100" y="405" type="curve" smooth="yes"/>
      <point x="100" y="482"/>
      <point x="171" y="529"/>
      <point x="259" y="529" type="curve" smooth="yes"/>
      <point x="346" y="529"/>
      <point x="419" y="477"/>
      <point x="407" y="392" type="curve"/>
      <point x="427" y="392" type="line"/>
      <point x="440" y="486"/>
      <point x="362" y="547"/>
      <point x="262" y="547" type="curve" smooth="yes"/>
      <point x="161" y="547"/>
      <point x="80" y="490"/>
      <point x="80" y="405" type="curve" smooth="yes"/>
      <point x="80" y="226"/>
      <point x="369" y="294"/>
      <point x="369" y="141" type="curve" smooth="yes"/>
      <point x="369" y="69"/>
      <point x="307" y="11"/>
      <point x="197" y="11" type="curve" smooth="yes"/>
      <point x="94" y="11"/>
      <point x="43" y="60"/>
      <point x="49" y="138" type="curve"/>
      <point x="29" y="138" type="line"/>
      <point x="23" y="37"/>
      <point x="94" y="-7"/>
    </contour>
  </outline>
</glyph>
<glyph name="t" format="2">
  <advance width="338"/>
  <unicode hex="0074"/>
  <anchor x="110" y="0" name="bottom"/>
  <anchor x="220" y="726" name="topright"/>
  <outline>
    <contour>
      <point x="180" y="678" type="line"/>
      <point x="85" y="142" type="line" smooth="yes"/>
      <point x="67" y="37"/>
      <point x="99" y="0"/>
      <point x="191" y="0" type="curve" smooth="yes"/>
      <point x="250" y="0" type="line"/>
      <point x="254" y="20" type="line"/>
      <point x="197" y="20" type="line" smooth="yes"/>
      <point x="115" y="20"/>
      <point x="88" y="45"/>
      <point x="105" y="142" type="curve" smooth="yes"/>
      <point x="200" y="678" type="line"/>
    </contour>
    <contour>
      <point x="64" y="520" type="line"/>
      <point x="342" y="520" type="line"/>
      <point x="346" y="540" type="line"/>
      <point x="68" y="540" type="line"/>
    </contour>
  </outline>
</glyph>
<glyph name="u" format="2">
  <advance width="614"/>
  <unicode hex="0075"/>
  <anchor x="481" y="0" name="ogonek"/>
  <anchor x="356" y="540" name="top"/>
  <outline>
    <contour>
      <point x="481" y="0" type="line"/>
      <point x="577" y="540" type="line"/>
      <point x="557" y="540" type="line"/>
      <point x="461" y="0" type="line"/>
    </contour>
    <contour>
      <point x="91" y="225" type="curve" smooth="yes"/>
      <point x="147" y="540" type="line"/>
      <point x="128" y="540" type="line"/>
      <point x="72" y="227" type="line" smooth="yes"/>
      <point x="43" y="60"/>
      <point x="130" y="-10"/>
      <point x="248" y="-10" type="curve"/>
      <point x="365" y="-10"/>
      <point x="474" y="58"/>
      <point x="504" y="202" type="curve"/>
      <point x="506" y="255" type="line"/>
      <point x="477" y="86"/>
      <point x="374" y="8"/>
      <point x="251" y="8" type="curve"/>
      <point x="132" y="8"/>
      <point x="66" y="81"/>
    </contour>
  </outline>
</glyph>
<glyph name="v" format="2">
  <advance width="515"/>
  <unicode hex="0076"/>
  <outline>
    <contour>
      <point x="90" y="540" type="line"/>
      <point x="68" y="540" type="line"/>
      <point x="202" y="0" type="line"/>
      <point x="217" y="0" type="line"/>
      <point x="543" y="540" type="line"/>
      <point x="521" y="540" type="line"/>
      <point x="217" y="35" type="line"/>
    </contour>
  </outline>
</glyph>
<glyph name="w" format="2">
  <advance width="803"/>
  <unicode hex="0077"/>
  <outline>
    <contour>
      <point x="68" y="540" type="line"/>
      <point x="142" y="0" type="line"/>
      <point x="157" y="0" type="line"/>
      <point x="456" y="528" type="line"/>
      <point x="437" y="530" type="line"/>
      <point x="550" y="0" type="line"/>
      <point x="565" y="0" type="line"/>
      <point x="831" y="540" type="line"/>
      <point x="809" y="540" type="line"/>
      <point x="550" y="13" type="line"/>
      <point x="570" y="13" type="line"/>
      <point x="458" y="540" type="line"/>
      <point x="441" y="540" type="line"/>
      <point x="143" y="13" type="line"/>
      <point x="163" y="13" type="line"/>
      <point x="90" y="540" type="line"/>
    </contour>
  </outline>
</glyph>
<glyph name="x" format="2">
  <advance width="416"/>
  <unicode hex="0078"/>
  <outline>
    <contour>
      <point x="72" y="540" type="line"/>
      <point x="324" y="0" type="line"/>
      <point x="348" y="0" type="line"/>
      <point x="96" y="540" type="line"/>
    </contour>
    <contour>
      <point x="209" y="262" type="line"/>
      <point x="202" y="284" type="line"/>
      <point x="-28" y="0" type="line"/>
      <point x="-6" y="0" type="line"/>
    </contour>
    <contour>
      <point x="202" y="279" type="line"/>
      <point x="209" y="257" type="line"/>
      <point x="439" y="540" type="line"/>
      <point x="417" y="540" type="line"/>
    </contour>
  </outline>
</glyph>
<glyph name="y" format="2">
  <advance width="503"/>
  <unicode hex="0079"/>
  <anchor x="301" y="540" name="top"/>
  <outline>
    <contour>
      <point x="68" y="540" type="line"/>
      <point x="202" y="-2" type="line"/>
      <point x="59" y="-254" type="line"/>
      <point x="83" y="-254" type="line"/>
      <point x="531" y="540" type="line"/>
      <point x="509" y="540" type="line"/>
      <point x="219" y="29" type="line"/>
      <point x="90" y="540" type="line"/>
    </contour>
  </outline>
</glyph>
<glyph name="z" format="2">
  <advance width="407"/>
  <unicode hex="007A"/>
  <anchor x="253" y="540" name="top"/>
  <outline>
    <contour>
      <point x="411" y="522" type="line"/>
      <point x="415" y="540" type="line"/>
      <point x="88" y="540" type="line"/>
      <point x="84" y="522" type="line"/>
      <point x="389" y="522" type="line"/>
      <point x="-14" y="18" type="line"/>
      <point x="-18" y="0" type="line"/>
      <point x="329" y="0" type="line"/>
      <point x="333" y="18" type="line"/>
      <point x="7" y="18" type="line"/>
    </contour>
  </outline>
</glyph>
<glyph name="braceleft" format="2">
  <advance width="295"/>
  <unicode hex="007B"/>
  <outline>
    <contour>
      <point x="56" y="360" type="line"/>
      <point x="131" y="335"/>
      <point x="147" y="309"/>
      <point x="147" y="261" type="curve" smooth="yes"/>
      <point x="147" y="179"/>
      <point x="64" y="1"/>
      <point x="64" y="-84" type="curve" smooth="yes"/>
      <point x="64" y="-157"/>
      <point x="109" y="-185"/>
      <point x="183" y="-185" type="curve" smooth="yes"/>
      <point x="214" y="-185" type="line"/>
      <point x="217" y="-167" type="line"/>
      <point x="186" y="-167" type="line" smooth="yes"/>
      <point x="123" y="-167"/>
      <point x="84" y="-143"/>
      <point x="84" y="-84" type="curve" smooth="yes"/>
      <point x="84" y="4"/>
      <point x="167" y="174"/>
      <point x="167" y="261" type="curve" smooth="yes"/>
      <point x="167" y="321"/>
      <point x="140" y="349"/>
      <point x="76" y="371" type="curve"/>
      <point x="76" y="373" type="line"/>
      <point x="163" y="391"/>
      <point x="205" y="449"/>
      <point x="219" y="530" type="curve" smooth="yes"/>
      <point x="232" y="605"/>
      <point x="219" y="694"/>
      <point x="236" y="791" type="curve" smooth="yes"/>
      <point x="251" y="879"/>
      <point x="302" y="911"/>
      <point x="376" y="911" type="curve" smooth="yes"/>
      <point x="407" y="911" type="line"/>
      <point x="410" y="929" type="line"/>
      <point x="379" y="929" type="line" smooth="yes"/>
      <point x="293" y="929"/>
      <point x="233" y="891"/>
      <point x="216" y="791" type="curve" smooth="yes"/>
      <point x="199" y="698"/>
      <point x="214" y="615"/>
      <point x="199" y="530" type="curve" smooth="yes"/>
      <point x="188" y="469"/>
      <point x="167" y="416"/>
      <point x="60" y="384" type="curve"/>
    </contour>
  </outline>
</glyph>
<glyph name="braceright" format="2">
  <advance width="295"/>
  <unicode hex="007D"/>
  <outline>
    <contour>
      <point x="271" y="360" type="curve"/>
      <point x="275" y="384" type="line"/>
      <point x="173" y="418"/>
      <point x="180" y="485"/>
      <point x="188" y="530" type="curve" smooth="yes"/>
      <point x="203" y="614"/>
      <point x="246" y="698"/>
      <point x="263" y="791" type="curve" smooth="yes"/>
      <point x="280" y="891"/>
      <point x="234" y="929"/>
      <point x="148" y="929" type="curve" smooth="yes"/>
      <point x="117" y="929" type="line"/>
      <point x="114" y="911" type="line"/>
      <point x="145" y="911" type="line" smooth="yes"/>
      <point x="219" y="911"/>
      <point x="258" y="879"/>
      <point x="243" y="791" type="curve" smooth="yes"/>
      <point x="226" y="694"/>
      <point x="181" y="605"/>
      <point x="168" y="530" type="curve" smooth="yes"/>
      <point x="155" y="456"/>
      <point x="179" y="394"/>
      <point x="261" y="373" type="curve"/>
      <point x="261" y="371" type="line"/>
      <point x="171" y="350"/>
      <point x="125" y="288"/>
      <point x="112" y="214" type="curve" smooth="yes"/>
      <point x="99" y="139"/>
      <point x="112" y="50"/>
      <point x="95" y="-47" type="curve" smooth="yes"/>
      <point x="80" y="-135"/>
      <point x="29" y="-167"/>
      <point x="-45" y="-167" type="curve" smooth="yes"/>
      <point x="-76" y="-167" type="line"/>
      <point x="-79" y="-185" type="line"/>
      <point x="-48" y="-185" type="line" smooth="yes"/>
      <point x="38" y="-185"/>
      <point x="97" y="-147"/>
      <point x="115" y="-47" type="curve" smooth="yes"/>
      <point x="132" y="46"/>
      <point x="117" y="130"/>
      <point x="132" y="214" type="curve" smooth="yes"/>
      <point x="140" y="259"/>
      <point x="157" y="326"/>
    </contour>
  </outline>
</glyph>
<glyph name="asciitilde" format="2">
  <advance width="412"/>
  <unicode hex="007E"/>
  <outline>
    <contour>
      <point x="61" y="331"/>
      <point x="42" y="279" type="curve"/>
      <point x="62" y="279" type="line"/>
      <point x="75" y="314"/>
      <point x="104" y="346"/>
      <point x="139" y="346" type="curve"/>
      <point x="198" y="346"/>
      <point x="219" y="279"/>
      <point x="285" y="279" type="curve"/>
      <point x="335" y="279"/>
      <point x="370" y="315"/>
      <point x="389" y="367" type="curve"/>
      <point x="369" y="367" type="line"/>
      <point x="356" y="332"/>
      <point x="326" y="300"/>
      <point x="291" y="300" type="curve"/>
      <point x="233" y="300"/>
      <point x="212" y="367"/>
      <point x="146" y="367" type="curve" smooth="yes"/>
      <point x="96" y="367"/>
    </contour>
  </outline>
</glyph>
<glyph name="cent" format="2">
  <advance width="588"/>
  <unicode hex="00A2"/>
  <outline>
    <contour>
      <point x="226" y="499"/>
      <point x="340" y="499" type="curve" smooth="yes"/>
      <point x="449" y="499"/>
      <point x="520" y="434"/>
      <point x="518" y="327" type="curve"/>
      <point x="538" y="327" type="line"/>
      <point x="540" y="438"/>
      <point x="473" y="517"/>
      <point x="344" y="517" type="curve" smooth="yes"/>
      <point x="206" y="517"/>
      <point x="87" y="425"/>
      <point x="60" y="270" type="curve"/>
      <point x="33" y="115"/>
      <point x="118" y="23"/>
      <point x="256" y="23" type="curve" smooth="yes"/>
      <point x="385" y="23"/>
      <point x="480" y="102"/>
      <point x="518" y="213" type="curve"/>
      <point x="498" y="213" type="line"/>
      <point x="462" y="106"/>
      <point x="369" y="41"/>
      <point x="260" y="41" type="curve" smooth="yes"/>
      <point x="146" y="41"/>
      <point x="52" y="112"/>
      <point x="80" y="270" type="curve"/>
      <point x="108" y="428"/>
    </contour>
    <contour>
      <point x="344" y="623" type="line"/>
      <point x="323" y="504" type="line"/>
      <point x="343" y="504" type="line"/>
      <point x="364" y="623" type="line"/>
    </contour>
    <contour>
      <point x="239" y="26" type="line"/>
      <point x="218" y="-93" type="line"/>
      <point x="238" y="-93" type="line"/>
      <point x="259" y="26" type="line"/>
    </contour>
  </outline>
</glyph>
<glyph name="sterling" format="2">
  <advance width="540"/>
  <unicode hex="00A3"/>
  <outline>
    <contour>
      <point x="382" y="711" type="curve" smooth="yes"/>
      <point x="267" y="711"/>
      <point x="179" y="630"/>
      <point x="161" y="524" type="curve" smooth="yes"/>
      <point x="138" y="396"/>
      <point x="202" y="315"/>
      <point x="182" y="202" type="curve" smooth="yes"/>
      <point x="168" y="123"/>
      <point x="119" y="76"/>
      <point x="63" y="19" type="curve"/>
      <point x="63" y="0" type="line"/>
      <point x="456" y="0" type="line"/>
      <point x="460" y="20" type="line"/>
      <point x="84" y="20" type="line"/>
      <point x="149" y="80"/>
      <point x="188" y="132"/>
      <point x="201" y="207" type="curve"/>
      <point x="220" y="318"/>
      <point x="160" y="404"/>
      <point x="181" y="524" type="curve" smooth="yes"/>
      <point x="202" y="642"/>
      <point x="294" y="693"/>
      <point x="379" y="693" type="curve" smooth="yes"/>
      <point x="483" y="693"/>
      <point x="542" y="619"/>
      <point x="534" y="521" type="curve"/>
      <point x="554" y="521" type="line"/>
      <point x="560" y="625"/>
      <point x="504" y="711"/>
    </contour>
    <contour>
      <point x="386" y="345" type="line"/>
      <point x="63" y="345" type="line"/>
      <point x="60" y="328" type="line"/>
      <point x="383" y="328" type="line"/>
    </contour>
  </outline>
</glyph>
<glyph name="currency" format="2">
  <advance width="501"/>
  <unicode hex="00A4"/>
  <outline>
    <contour>
      <point x="299" y="549" type="curve" smooth="yes"/>
      <point x="215" y="549"/>
      <point x="137" y="480"/>
      <point x="119" y="377" type="curve" smooth="yes"/>
      <point x="101" y="273"/>
      <point x="153" y="205"/>
      <point x="239" y="205" type="curve" smooth="yes"/>
      <point x="319" y="205"/>
      <point x="402" y="273"/>
      <point x="420" y="377" type="curve" smooth="yes"/>
      <point x="438" y="480"/>
      <point x="379" y="549"/>
    </contour>
    <contour>
      <point x="296" y="531" type="curve" smooth="yes"/>
      <point x="365" y="531"/>
      <point x="417" y="472"/>
      <point x="400" y="377" type="curve" smooth="yes"/>
      <point x="383" y="280"/>
      <point x="310" y="223"/>
      <point x="242" y="223" type="curve" smooth="yes"/>
      <point x="168" y="223"/>
      <point x="122" y="280"/>
      <point x="139" y="377" type="curve" smooth="yes"/>
      <point x="156" y="472"/>
      <point x="222" y="531"/>
    </contour>
    <contour>
      <point x="182" y="482" type="line"/>
      <point x="191" y="502" type="line"/>
      <point x="138" y="566" type="line"/>
      <point x="122" y="553" type="line"/>
    </contour>
    <contour>
      <point x="390" y="502" type="line"/>
      <point x="391" y="482" type="line"/>
      <point x="477" y="553" type="line"/>
      <point x="465" y="566" type="line"/>
    </contour>
    <contour>
      <point x="355" y="274" type="line"/>
      <point x="346" y="254" type="line"/>
      <point x="399" y="190" type="line"/>
      <point x="415" y="203" type="line"/>
    </contour>
    <contour>
      <point x="147" y="254" type="line"/>
      <point x="146" y="274" type="line"/>
      <point x="60" y="203" type="line"/>
      <point x="72" y="190" type="line"/>
    </contour>
  </outline>
</glyph>
<glyph name="yen" format="2">
  <advance width="563"/>
  <unicode hex="00A5"/>
  <outline>
    <contour>
      <point x="321" y="346" type="line"/>
      <point x="310" y="328" type="line"/>
      <point x="505" y="328" type="line"/>
      <point x="508" y="346" type="line"/>
    </contour>
    <contour>
      <point x="68" y="229" type="line"/>
      <point x="64" y="209" type="line"/>
      <point x="484" y="209" type="line"/>
      <point x="488" y="229" type="line"/>
    </contour>
    <contour>
      <point x="132" y="704" type="line"/>
      <point x="279" y="295" type="line"/>
      <point x="227" y="0" type="line"/>
      <point x="247" y="0" type="line"/>
      <point x="299" y="295" type="line"/>
      <point x="590" y="704" type="line"/>
      <point x="566" y="704" type="line"/>
      <point x="287" y="309" type="line"/>
      <point x="296" y="309" type="line"/>
      <point x="156" y="704" type="line"/>
    </contour>
    <contour>
      <point x="88" y="346" type="line"/>
      <point x="85" y="328" type="line"/>
      <point x="279" y="328" type="line"/>
      <point x="274" y="346" type="line"/>
    </contour>
  </outline>
</glyph>
<glyph name="brokenbar" format="2">
  <advance width="190"/>
  <unicode hex="00A6"/>
  <outline>
    <contour>
      <point x="104" y="265" type="line"/>
      <point x="84" y="265" type="line"/>
      <point x="22" y="-86" type="line"/>
      <point x="42" y="-86" type="line"/>
    </contour>
    <contour>
      <point x="113" y="428" type="line"/>
      <point x="133" y="428" type="line"/>
      <point x="195" y="778" type="line"/>
      <point x="175" y="778" type="line"/>
    </contour>
  </outline>
</glyph>
<glyph name="section" format="2">
  <advance width="566"/>
  <unicode hex="00A7"/>
  <outline>
    <contour>
      <point x="158" y="693"/>
      <point x="145" y="620" type="curve" smooth="yes"/>
      <point x="127" y="517"/>
      <point x="240" y="483"/>
      <point x="326" y="465" type="curve"/>
      <point x="326" y="461" type="line"/>
      <point x="179" y="475"/>
      <point x="81" y="388"/>
      <point x="65" y="300" type="curve"/>
      <point x="44" y="180"/>
      <point x="145" y="143"/>
      <point x="264" y="114" type="curve" smooth="yes"/>
      <point x="383" y="85"/>
      <point x="424" y="48"/>
      <point x="412" y="-17" type="curve" smooth="yes"/>
      <point x="399" y="-94"/>
      <point x="330" y="-129"/>
      <point x="242" y="-129" type="curve"/>
      <point x="106" y="-129"/>
      <point x="68" y="-52"/>
      <point x="71" y="19" type="curve"/>
      <point x="51" y="19" type="line"/>
      <point x="47" y="-87"/>
      <point x="120" y="-147"/>
      <point x="238" y="-147" type="curve"/>
      <point x="347" y="-147"/>
      <point x="419" y="-91"/>
      <point x="432" y="-17" type="curve" smooth="yes"/>
      <point x="450" y="84"/>
      <point x="342" y="117"/>
      <point x="250" y="135" type="curve"/>
      <point x="251" y="139" type="line"/>
      <point x="397" y="125"/>
      <point x="496" y="212"/>
      <point x="511" y="300" type="curve"/>
      <point x="532" y="420"/>
      <point x="432" y="457"/>
      <point x="312" y="486" type="curve" smooth="yes"/>
      <point x="193" y="515"/>
      <point x="153" y="554"/>
      <point x="165" y="620" type="curve" smooth="yes"/>
      <point x="178" y="695"/>
      <point x="249" y="729"/>
      <point x="340" y="729" type="curve"/>
      <point x="473" y="729"/>
      <point x="511" y="645"/>
      <point x="506" y="581" type="curve"/>
      <point x="526" y="581" type="line"/>
      <point x="530" y="687"/>
      <point x="459" y="747"/>
      <point x="343" y="747" type="curve"/>
      <point x="231" y="747"/>
    </contour>
    <contour>
      <point x="507" y="387"/>
      <point x="491" y="300" type="curve"/>
      <point x="478" y="223"/>
      <point x="397" y="153"/>
      <point x="265" y="153" type="curve" smooth="yes"/>
      <point x="134" y="153"/>
      <point x="70" y="213"/>
      <point x="85" y="300" type="curve"/>
      <point x="99" y="377"/>
      <point x="179" y="447"/>
      <point x="311" y="447" type="curve" smooth="yes"/>
      <point x="442" y="447"/>
    </contour>
  </outline>
</glyph>
<glyph name="dieresis" format="2">
  <advance width="319"/>
  <unicode hex="00A8"/>
  <anchor x="207" y="540" name="_top"/>
  <outline>
    <contour>
      <point x="141" y="627"/>
      <point x="156" y="627" type="curve" smooth="yes"/>
      <point x="174" y="627"/>
      <point x="190" y="644"/>
      <point x="190" y="662" type="curve" smooth="yes"/>
      <point x="190" y="676"/>
      <point x="181" y="687"/>
      <point x="167" y="687" type="curve" smooth="yes"/>
      <point x="148" y="687"/>
      <point x="132" y="670"/>
      <point x="132" y="652" type="curve" smooth="yes"/>
      <point x="132" y="638"/>
    </contour>
    <contour>
      <point x="275" y="627"/>
      <point x="290" y="627" type="curve" smooth="yes"/>
      <point x="308" y="627"/>
      <point x="324" y="644"/>
      <point x="324" y="663" type="curve" smooth="yes"/>
      <point x="324" y="676"/>
      <point x="315" y="687"/>
      <point x="301" y="687" type="curve" smooth="yes"/>
      <point x="282" y="687"/>
      <point x="266" y="670"/>
      <point x="266" y="652" type="curve" smooth="yes"/>
      <point x="266" y="638"/>
    </contour>
  </outline>
</glyph>
<glyph name="copyright" format="2">
  <advance width="803"/>
  <unicode hex="00A9"/>
  <outline>
    <contour>
      <point x="794" y="557"/>
      <point x="681" y="702"/>
      <point x="478" y="702" type="curve" smooth="yes"/>
      <point x="275" y="702"/>
      <point x="111" y="557"/>
      <point x="74" y="352" type="curve"/>
      <point x="38" y="147"/>
      <point x="152" y="2"/>
      <point x="355" y="2" type="curve" smooth="yes"/>
      <point x="558" y="2"/>
      <point x="721" y="147"/>
      <point x="757" y="352" type="curve"/>
    </contour>
    <contour>
      <point x="128" y="542"/>
      <point x="277" y="684"/>
      <point x="475" y="684" type="curve" smooth="yes"/>
      <point x="672" y="684"/>
      <point x="771" y="542"/>
      <point x="737" y="352" type="curve"/>
      <point x="704" y="162"/>
      <point x="555" y="20"/>
      <point x="358" y="20" type="curve" smooth="yes"/>
      <point x="160" y="20"/>
      <point x="61" y="162"/>
      <point x="94" y="352" type="curve"/>
    </contour>
    <contour>
      <point x="233" y="509"/>
      <point x="348" y="590"/>
      <point x="461" y="590" type="curve"/>
      <point x="552" y="590"/>
      <point x="627" y="537"/>
      <point x="637" y="435" type="curve"/>
      <point x="616" y="435" type="line"/>
      <point x="604" y="525"/>
      <point x="537" y="570"/>
      <point x="458" y="570" type="curve"/>
      <point x="358" y="570"/>
      <point x="251" y="497"/>
      <point x="225" y="351" type="curve"/>
      <point x="200" y="207"/>
      <point x="281" y="134"/>
      <point x="381" y="134" type="curve"/>
      <point x="460" y="134"/>
      <point x="543" y="179"/>
      <point x="587" y="269" type="curve"/>
      <point x="608" y="269" type="line"/>
      <point x="562" y="167"/>
      <point x="468" y="114"/>
      <point x="377" y="114" type="curve"/>
      <point x="264" y="114"/>
      <point x="178" y="195"/>
      <point x="206" y="353" type="curve"/>
    </contour>
  </outline>
</glyph>
<glyph name="ordfeminine" format="2">
  <advance width="433"/>
  <unicode hex="00AA"/>
  <outline>
    <contour>
      <point x="104" y="635"/>
      <point x="85" y="528" type="curve"/>
      <point x="67" y="421"/>
      <point x="118" y="347"/>
      <point x="216" y="347" type="curve" smooth="yes"/>
      <point x="295" y="347"/>
      <point x="354" y="390"/>
      <point x="384" y="456" type="curve"/>
      <point x="366" y="354" type="line"/>
      <point x="386" y="354" type="line"/>
      <point x="447" y="703" type="line"/>
      <point x="427" y="703" type="line"/>
      <point x="409" y="600" type="line"/>
      <point x="403" y="666"/>
      <point x="358" y="709"/>
      <point x="279" y="709" type="curve" smooth="yes"/>
      <point x="181" y="709"/>
    </contour>
    <contour>
      <point x="414" y="627"/>
      <point x="396" y="528" type="curve"/>
      <point x="379" y="429"/>
      <point x="307" y="365"/>
      <point x="219" y="365" type="curve" smooth="yes"/>
      <point x="137" y="365"/>
      <point x="88" y="428"/>
      <point x="105" y="528" type="curve"/>
      <point x="123" y="628"/>
      <point x="194" y="691"/>
      <point x="276" y="691" type="curve" smooth="yes"/>
      <point x="364" y="691"/>
    </contour>
  </outline>
</glyph>
<glyph name="guillemotleft" format="2">
  <advance width="374"/>
  <unicode hex="00AB"/>
  <outline>
    <contour>
      <point x="153" y="120" type="line"/>
      <point x="74" y="295" type="line"/>
      <point x="214" y="470" type="line"/>
      <point x="187" y="470" type="line"/>
      <point x="49" y="295" type="line"/>
      <point x="126" y="120" type="line"/>
    </contour>
    <contour>
      <point x="298" y="120" type="line"/>
      <point x="219" y="295" type="line"/>
      <point x="359" y="470" type="line"/>
      <point x="332" y="470" type="line"/>
      <point x="194" y="295" type="line"/>
      <point x="271" y="120" type="line"/>
    </contour>
  </outline>
</glyph>
<glyph name="logicalnot" format="2">
  <advance width="708"/>
  <unicode hex="00AC"/>
  <outline>
    <contour>
      <point x="86" y="424" type="line"/>
      <point x="83" y="404" type="line"/>
      <point x="669" y="404" type="line"/>
      <point x="642" y="255" type="line"/>
      <point x="660" y="255" type="line"/>
      <point x="690" y="424" type="line"/>
    </contour>
  </outline>
</glyph>
<glyph name="registered" format="2">
  <advance width="486"/>
  <unicode hex="00AE"/>
  <outline>
    <contour>
      <point x="102" y="520" type="curve" smooth="yes"/>
      <point x="83" y="413"/>
      <point x="144" y="329"/>
      <point x="253" y="329" type="curve" smooth="yes"/>
      <point x="362" y="329"/>
      <point x="453" y="413"/>
      <point x="472" y="520" type="curve" smooth="yes"/>
      <point x="491" y="627"/>
      <point x="430" y="711"/>
      <point x="321" y="711" type="curve" smooth="yes"/>
      <point x="212" y="711"/>
      <point x="121" y="627"/>
    </contour>
    <contour>
      <point x="122" y="520" type="curve" smooth="yes"/>
      <point x="139" y="617"/>
      <point x="219" y="692"/>
      <point x="317" y="692" type="curve" smooth="yes"/>
      <point x="415" y="692"/>
      <point x="469" y="617"/>
      <point x="452" y="520" type="curve" smooth="yes"/>
      <point x="435" y="423"/>
      <point x="355" y="348"/>
      <point x="257" y="348" type="curve" smooth="yes"/>
      <point x="159" y="348"/>
      <point x="105" y="423"/>
    </contour>
    <contour>
      <point x="322" y="627" type="line" smooth="yes"/>
      <point x="363" y="627"/>
      <point x="384" y="606"/>
      <point x="378" y="568" type="curve" smooth="yes"/>
      <point x="371" y="531"/>
      <point x="342" y="508"/>
      <point x="301" y="508" type="curve" smooth="yes"/>
      <point x="238" y="508" type="line"/>
      <point x="221" y="413" type="line"/>
      <point x="201" y="413" type="line"/>
      <point x="239" y="627" type="line"/>
    </contour>
    <contour>
      <point x="330" y="413" type="line"/>
      <point x="276" y="512" type="line"/>
      <point x="298" y="512" type="line"/>
      <point x="352" y="414" type="line"/>
    </contour>
    <contour>
      <point x="317" y="608" type="curve" smooth="yes"/>
      <point x="256" y="608" type="line"/>
      <point x="241" y="527" type="line"/>
      <point x="302" y="527" type="line" smooth="yes"/>
      <point x="330" y="527"/>
      <point x="352" y="539"/>
      <point x="358" y="568" type="curve" smooth="yes"/>
      <point x="363" y="597"/>
      <point x="345" y="608"/>
    </contour>
  </outline>
</glyph>
<glyph name="macron" format="2">
  <advance width="389"/>
  <unicode hex="00AF"/>
  <anchor x="243" y="540" name="_top"/>
  <outline>
    <contour>
      <point x="112" y="677" type="line"/>
      <point x="109" y="659" type="line"/>
      <point x="418" y="659" type="line"/>
      <point x="421" y="677" type="line"/>
    </contour>
  </outline>
</glyph>
<glyph name="degree" format="2">
  <advance width="356"/>
  <unicode hex="00B0"/>
  <outline>
    <contour>
      <point x="92" y="622"/>
      <point x="74" y="519" type="curve"/>
      <point x="56" y="416"/>
      <point x="103" y="347"/>
      <point x="192" y="347" type="curve"/>
      <point x="281" y="347"/>
      <point x="352" y="416"/>
      <point x="370" y="519" type="curve"/>
      <point x="388" y="622"/>
      <point x="341" y="691"/>
      <point x="252" y="691" type="curve"/>
      <point x="163" y="691"/>
    </contour>
    <contour>
      <point x="367" y="616"/>
      <point x="350" y="519" type="curve"/>
      <point x="333" y="422"/>
      <point x="273" y="365"/>
      <point x="195" y="365" type="curve"/>
      <point x="117" y="365"/>
      <point x="77" y="422"/>
      <point x="94" y="519" type="curve"/>
      <point x="111" y="616"/>
      <point x="171" y="673"/>
      <point x="249" y="673" type="curve"/>
      <point x="327" y="673"/>
    </contour>
  </outline>
</glyph>
<glyph name="plusminus" format="2">
  <advance width="589"/>
  <unicode hex="00B1"/>
  <outline>
    <contour>
      <point x="368" y="635" type="line"/>
      <point x="348" y="635" type="line"/>
      <point x="265" y="165" type="line"/>
      <point x="285" y="165" type="line"/>
    </contour>
    <contour>
      <point x="65" y="409" type="line"/>
      <point x="61" y="391" type="line"/>
      <point x="570" y="391" type="line"/>
      <point x="574" y="409" type="line"/>
    </contour>
    <contour>
      <point x="12" y="109" type="line"/>
      <point x="8" y="91" type="line"/>
      <point x="517" y="91" type="line"/>
      <point x="521" y="109" type="line"/>
    </contour>
  </outline>
</glyph>
<glyph name="twosuperior" format="2">
  <advance width="301"/>
  <unicode hex="00B2"/>
  <outline>
    <contour>
      <point x="112" y="655"/>
      <point x="98" y="598" type="curve"/>
      <point x="118" y="598" type="line"/>
      <point x="134" y="657"/>
      <point x="172" y="689"/>
      <point x="225" y="689" type="curve" smooth="yes"/>
      <point x="267" y="689"/>
      <point x="299" y="666"/>
      <point x="289" y="610" type="curve" smooth="yes"/>
      <point x="278" y="550"/>
      <point x="232" y="511"/>
      <point x="190" y="475" type="curve" smooth="yes"/>
      <point x="56" y="362" type="line"/>
      <point x="54" y="352" type="line"/>
      <point x="275" y="352" type="line"/>
      <point x="279" y="370" type="line"/>
      <point x="77" y="370" type="line"/>
      <point x="80" y="362" type="line"/>
      <point x="192" y="454" type="line" smooth="yes"/>
      <point x="253" y="504"/>
      <point x="298" y="547"/>
      <point x="309" y="610" type="curve" smooth="yes"/>
      <point x="320" y="671"/>
      <point x="285" y="707"/>
      <point x="228" y="707" type="curve" smooth="yes"/>
      <point x="154" y="707"/>
    </contour>
  </outline>
</glyph>
<glyph name="threesuperior" format="2">
  <advance width="302"/>
  <unicode hex="00B3"/>
  <outline>
    <contour>
      <point x="120" y="668"/>
      <point x="103" y="619" type="curve"/>
      <point x="123" y="619" type="line"/>
      <point x="139" y="660"/>
      <point x="174" y="687"/>
      <point x="229" y="687" type="curve" smooth="yes"/>
      <point x="281" y="687"/>
      <point x="309" y="656"/>
      <point x="301" y="611" type="curve" smooth="yes"/>
      <point x="292" y="562"/>
      <point x="251" y="534"/>
      <point x="199" y="534" type="curve" smooth="yes"/>
      <point x="135" y="534" type="line"/>
      <point x="131" y="516" type="line"/>
      <point x="192" y="516" type="line" smooth="yes"/>
      <point x="245" y="516"/>
      <point x="281" y="489"/>
      <point x="272" y="439" type="curve" smooth="yes"/>
      <point x="264" y="394"/>
      <point x="227" y="365"/>
      <point x="169" y="365" type="curve" smooth="yes"/>
      <point x="122" y="365"/>
      <point x="87" y="382"/>
      <point x="91" y="444" type="curve"/>
      <point x="71" y="444" type="line"/>
      <point x="67" y="378"/>
      <point x="101" y="347"/>
      <point x="166" y="347" type="curve" smooth="yes"/>
      <point x="241" y="347"/>
      <point x="284" y="394"/>
      <point x="292" y="439" type="curve" smooth="yes"/>
      <point x="300" y="485"/>
      <point x="277" y="514"/>
      <point x="239" y="525" type="curve"/>
      <point x="239" y="527" type="line"/>
      <point x="286" y="539"/>
      <point x="314" y="571"/>
      <point x="321" y="611" type="curve" smooth="yes"/>
      <point x="331" y="669"/>
      <point x="292" y="707"/>
      <point x="232" y="707" type="curve" smooth="yes"/>
      <point x="164" y="707"/>
    </contour>
  </outline>
</glyph>
<glyph name="micro" format="2">
  <advance width="619"/>
  <unicode hex="00B5"/>
  <outline>
    <contour>
      <point x="486" y="0" type="line"/>
      <point x="582" y="540" type="line"/>
      <point x="562" y="540" type="line"/>
      <point x="466" y="0" type="line"/>
    </contour>
    <contour>
      <point x="512" y="215" type="curve"/>
      <point x="511" y="253" type="line"/>
      <point x="481" y="84"/>
      <point x="383" y="6"/>
      <point x="267" y="6" type="curve"/>
      <point x="145" y="6"/>
      <point x="72" y="87"/>
      <point x="103" y="263" type="curve"/>
      <point x="152" y="540" type="line"/>
      <point x="133" y="540" type="line"/>
      <point x="-7" y="-254" type="line"/>
      <point x="12" y="-254" type="line"/>
      <point x="88" y="182" type="line"/>
      <point x="81" y="181" type="line"/>
      <point x="79" y="31"/>
      <point x="171" y="-12"/>
      <point x="264" y="-12" type="curve"/>
      <point x="368" y="-12"/>
      <point x="479" y="55"/>
    </contour>
  </outline>
</glyph>
<glyph name="paragraph" format="2">
  <advance width="489"/>
  <unicode hex="00B6"/>
  <outline>
    <contour>
      <point x="477" y="684" type="line"/>
      <point x="328" y="684" type="line" smooth="yes"/>
      <point x="173" y="684"/>
      <point x="79" y="607"/>
      <point x="59" y="490" type="curve" smooth="yes"/>
      <point x="39" y="375"/>
      <point x="102" y="297"/>
      <point x="260" y="297" type="curve" smooth="yes"/>
      <point x="261" y="297" type="line"/>
      <point x="208" y="0" type="line"/>
      <point x="228" y="0" type="line"/>
      <point x="346" y="666" type="line"/>
      <point x="454" y="666" type="line"/>
      <point x="336" y="0" type="line"/>
      <point x="356" y="0" type="line"/>
    </contour>
  </outline>
</glyph>
<glyph name="onesuperior" format="2">
  <advance width="154"/>
  <unicode hex="00B9"/>
  <outline>
    <contour>
      <point x="167" y="686" type="line"/>
      <point x="108" y="352" type="line"/>
      <point x="128" y="352" type="line"/>
      <point x="191" y="704" type="line"/>
      <point x="117" y="704" type="line"/>
      <point x="113" y="686" type="line"/>
    </contour>
  </outline>
</glyph>
<glyph name="ordmasculine" format="2">
  <advance width="412"/>
  <unicode hex="00BA"/>
  <outline>
    <contour>
      <point x="104" y="635"/>
      <point x="85" y="526" type="curve"/>
      <point x="66" y="417"/>
      <point x="124" y="343"/>
      <point x="220" y="343" type="curve"/>
      <point x="316" y="343"/>
      <point x="400" y="417"/>
      <point x="419" y="526" type="curve"/>
      <point x="438" y="635"/>
      <point x="380" y="709"/>
      <point x="284" y="709" type="curve"/>
      <point x="188" y="709"/>
    </contour>
    <contour>
      <point x="418" y="631"/>
      <point x="399" y="526" type="curve"/>
      <point x="381" y="421"/>
      <point x="305" y="363"/>
      <point x="223" y="363" type="curve"/>
      <point x="141" y="363"/>
      <point x="87" y="421"/>
      <point x="105" y="526" type="curve"/>
      <point x="124" y="631"/>
      <point x="199" y="689"/>
      <point x="281" y="689" type="curve"/>
      <point x="363" y="689"/>
    </contour>
  </outline>
</glyph>
<glyph name="guillemotright" format="2">
  <advance width="374"/>
  <unicode hex="00BB"/>
  <outline>
    <contour>
      <point x="169" y="120" type="line"/>
      <point x="197" y="120" type="line"/>
      <point x="333" y="295" type="line"/>
      <point x="258" y="470" type="line"/>
      <point x="230" y="470" type="line"/>
      <point x="309" y="295" type="line"/>
    </contour>
    <contour>
      <point x="24" y="120" type="line"/>
      <point x="52" y="120" type="line"/>
      <point x="188" y="295" type="line"/>
      <point x="113" y="470" type="line"/>
      <point x="85" y="470" type="line"/>
      <point x="164" y="295" type="line"/>
    </contour>
  </outline>
</glyph>
<glyph name="onehalf" format="2">
  <advance width="593"/>
  <unicode hex="00BD"/>
  <outline>
    <contour>
      <point x="465" y="704" type="line"/>
      <point x="-8" y="0" type="line"/>
      <point x="12" y="0" type="line"/>
      <point x="485" y="704" type="line"/>
    </contour>
    <component base="onesuperior" xOffset="23"/>
    <component base="twosuperior" xOffset="292" yOffset="-353"/>
  </outline>
</glyph>
<glyph name="AE" format="2">
  <advance width="837"/>
  <unicode hex="00C6"/>
  <outline>
    <contour>
      <point x="133" y="212" type="line"/>
      <point x="124" y="194" type="line"/>
      <point x="437" y="194" type="line"/>
      <point x="440" y="212" type="line"/>
    </contour>
    <contour>
      <point x="536" y="686" type="line"/>
      <point x="860" y="686" type="line"/>
      <point x="864" y="704" type="line"/>
      <point x="520" y="704" type="line"/>
      <point x="-38" y="0" type="line"/>
      <point x="-15" y="0" type="line"/>
      <point x="513" y="667" type="line"/>
      <point x="395" y="0" type="line"/>
      <point x="739" y="0" type="line"/>
      <point x="743" y="18" type="line"/>
      <point x="419" y="18" type="line"/>
      <point x="476" y="343" type="line"/>
      <point x="770" y="343" type="line"/>
      <point x="773" y="361" type="line"/>
      <point x="479" y="361" type="line"/>
    </contour>
  </outline>
</glyph>
<glyph name="Eth" format="2">
  <advance width="742"/>
  <unicode hex="00D0"/>
  <outline>
    <contour>
      <point x="26" y="361" type="line"/>
      <point x="23" y="343" type="line"/>
      <point x="391" y="343" type="line"/>
      <point x="394" y="361" type="line"/>
    </contour>
    <contour>
      <point x="632" y="704"/>
      <point x="387" y="704" type="curve"/>
      <point x="202" y="704" type="line"/>
      <point x="77" y="0" type="line"/>
      <point x="262" y="0" type="line"/>
      <point x="507" y="0"/>
      <point x="657" y="130"/>
      <point x="696" y="352" type="curve"/>
      <point x="736" y="574"/>
    </contour>
    <contour>
      <point x="266" y="18" type="curve"/>
      <point x="101" y="18" type="line"/>
      <point x="218" y="686" type="line"/>
      <point x="383" y="686" type="line"/>
      <point x="619" y="686"/>
      <point x="713" y="558"/>
      <point x="676" y="352" type="curve"/>
      <point x="640" y="146"/>
      <point x="502" y="18"/>
    </contour>
  </outline>
</glyph>
<glyph name="multiply" format="2">
  <advance width="469"/>
  <unicode hex="00D7"/>
  <outline>
    <contour>
      <point x="108" y="574" type="line"/>
      <point x="91" y="560" type="line"/>
      <point x="400" y="185" type="line"/>
      <point x="416" y="199" type="line"/>
    </contour>
    <contour>
      <point x="28" y="199" type="line"/>
      <point x="39" y="186" type="line"/>
      <point x="479" y="560" type="line"/>
      <point x="468" y="573" type="line"/>
    </contour>
  </outline>
</glyph>
<glyph name="Oslash" format="2">
  <advance width="792"/>
  <unicode hex="00D8"/>
  <outline>
    <contour>
      <point x="784" y="704" type="line"/>
      <point x="13" y="0" type="line"/>
      <point x="38" y="0" type="line"/>
      <point x="808" y="704" type="line"/>
    </contour>
    <component base="O"/>
  </outline>
</glyph>
<glyph name="Thorn" format="2">
  <advance width="528"/>
  <unicode hex="00DE"/>
  <outline>
    <contour>
      <point x="247" y="180" type="curve" smooth="yes"/>
      <point x="89" y="180" type="line"/>
      <point x="150" y="526" type="line"/>
      <point x="308" y="526" type="line" smooth="yes"/>
      <point x="459" y="526"/>
      <point x="502" y="461"/>
      <point x="482" y="352" type="curve" smooth="yes"/>
      <point x="464" y="248"/>
      <point x="398" y="180"/>
    </contour>
    <contour>
      <point x="480" y="222"/>
      <point x="502" y="352" type="curve" smooth="yes"/>
      <point x="523" y="469"/>
      <point x="472" y="546"/>
      <point x="312" y="546" type="curve" smooth="yes"/>
      <point x="154" y="546" type="line"/>
      <point x="182" y="704" type="line"/>
      <point x="162" y="704" type="line"/>
      <point x="37" y="0" type="line"/>
      <point x="57" y="0" type="line"/>
      <point x="85" y="159" type="line"/>
      <point x="243" y="159" type="line" smooth="yes"/>
      <point x="389" y="159"/>
    </contour>
  </outline>
</glyph>
<glyph name="germandbls" format="2">
  <advance width="588"/>
  <unicode hex="00DF"/>
  <outline>
    <contour>
      <point x="131" y="558" type="curve" smooth="yes"/>
      <point x="33" y="0" type="line"/>
      <point x="53" y="0" type="line"/>
      <point x="151" y="558" type="line" smooth="yes"/>
      <point x="171" y="670"/>
      <point x="247" y="745"/>
      <point x="358" y="745" type="curve" smooth="yes"/>
      <point x="453" y="745"/>
      <point x="502" y="701"/>
      <point x="502" y="642" type="curve" smooth="yes"/>
      <point x="502" y="510"/>
      <point x="296" y="481"/>
      <point x="296" y="366" type="curve" smooth="yes"/>
      <point x="296" y="319"/>
      <point x="328" y="295"/>
      <point x="414" y="265" type="curve" smooth="yes"/>
      <point x="483" y="241"/>
      <point x="516" y="211"/>
      <point x="516" y="161" type="curve" smooth="yes"/>
      <point x="516" y="78"/>
      <point x="446" y="9"/>
      <point x="357" y="9" type="curve" smooth="yes"/>
      <point x="266" y="9"/>
      <point x="214" y="70"/>
      <point x="220" y="161" type="curve"/>
      <point x="200" y="161" type="line"/>
      <point x="194" y="59"/>
      <point x="253" y="-9"/>
      <point x="354" y="-9" type="curve" smooth="yes"/>
      <point x="460" y="-9"/>
      <point x="536" y="66"/>
      <point x="536" y="163" type="curve" smooth="yes"/>
      <point x="536" y="219"/>
      <point x="503" y="255"/>
      <point x="431" y="279" type="curve" smooth="yes"/>
      <point x="346" y="308"/>
      <point x="316" y="330"/>
      <point x="316" y="366" type="curve" smooth="yes"/>
      <point x="316" y="467"/>
      <point x="522" y="497"/>
      <point x="522" y="642" type="curve" smooth="yes"/>
      <point x="522" y="715"/>
      <point x="466" y="763"/>
      <point x="361" y="763" type="curve" smooth="yes"/>
      <point x="239" y="763"/>
      <point x="153" y="683"/>
    </contour>
  </outline>
</glyph>
<glyph name="ae" format="2">
  <advance width="1135"/>
  <unicode hex="00E6"/>
  <outline>
    <contour>
      <point x="579" y="279" type="line"/>
      <point x="575" y="261" type="line"/>
      <point x="1069" y="261" type="line"/>
      <point x="1076" y="279"/>
      <point x="1078" y="289"/>
      <point x="1083" y="315" type="curve" smooth="yes"/>
      <point x="1103" y="428"/>
      <point x="1041" y="547"/>
      <point x="876" y="547" type="curve" smooth="yes"/>
      <point x="763" y="547"/>
      <point x="652" y="485"/>
      <point x="603" y="365" type="curve"/>
      <point x="634" y="540" type="line"/>
      <point x="615" y="540" type="line"/>
      <point x="584" y="366" type="line"/>
      <point x="574" y="471"/>
      <point x="500" y="547"/>
      <point x="372" y="547" type="curve"/>
      <point x="217" y="547"/>
      <point x="90" y="442"/>
      <point x="60" y="270" type="curve"/>
      <point x="30" y="98"/>
      <point x="119" y="-7"/>
      <point x="274" y="-7" type="curve"/>
      <point x="402" y="-7"/>
      <point x="504" y="69"/>
      <point x="550" y="174" type="curve"/>
      <point x="519" y="0" type="line"/>
      <point x="538" y="0" type="line"/>
      <point x="569" y="175" type="line"/>
      <point x="576" y="53"/>
      <point x="665" y="-7"/>
      <point x="778" y="-7" type="curve" smooth="yes"/>
      <point x="918" y="-7"/>
      <point x="1022" y="72"/>
      <point x="1060" y="183" type="curve"/>
      <point x="1040" y="183" type="line"/>
      <point x="1004" y="76"/>
      <point x="901" y="11"/>
      <point x="781" y="11" type="curve" smooth="yes"/>
      <point x="658" y="11"/>
      <point x="555" y="90"/>
      <point x="586" y="266" type="curve" smooth="yes"/>
      <point x="588" y="275" type="line" smooth="yes"/>
      <point x="619" y="451"/>
      <point x="750" y="529"/>
      <point x="873" y="529" type="curve" smooth="yes"/>
      <point x="993" y="529"/>
      <point x="1099" y="453"/>
      <point x="1059" y="279" type="curve"/>
    </contour>
    <contour>
      <point x="52" y="109"/>
      <point x="80" y="270" type="curve"/>
      <point x="108" y="431"/>
      <point x="221" y="529"/>
      <point x="369" y="529" type="curve"/>
      <point x="510" y="529"/>
      <point x="595" y="426"/>
      <point x="567" y="270" type="curve"/>
      <point x="539" y="114"/>
      <point x="418" y="11"/>
      <point x="277" y="11" type="curve"/>
      <point x="129" y="11"/>
    </contour>
  </outline>
</glyph>
<glyph name="eth" format="2">
  <advance width="645"/>
  <unicode hex="00F0"/>
  <outline>
    <contour>
      <point x="640" y="741" type="line"/>
      <point x="315" y="630" type="line"/>
      <point x="312" y="612" type="line"/>
      <point x="637" y="723" type="line"/>
    </contour>
    <contour>
      <point x="373" y="552" type="curve" smooth="yes"/>
      <point x="212" y="552"/>
      <point x="91" y="445"/>
      <point x="63" y="286" type="curve" smooth="yes"/>
      <point x="32" y="113"/>
      <point x="109" y="-7"/>
      <point x="274" y="-7" type="curve" smooth="yes"/>
      <point x="429" y="-7"/>
      <point x="554" y="95"/>
      <point x="592" y="307" type="curve" smooth="yes"/>
      <point x="622" y="480"/>
      <point x="574" y="611"/>
      <point x="427" y="740" type="curve"/>
      <point x="405" y="740" type="line"/>
      <point x="551" y="606"/>
      <point x="591" y="503"/>
      <point x="585" y="351" type="curve"/>
      <point x="575" y="491"/>
      <point x="484" y="552"/>
    </contour>
    <contour>
      <point x="277" y="11" type="curve" smooth="yes"/>
      <point x="135" y="11"/>
      <point x="52" y="112"/>
      <point x="83" y="286" type="curve" smooth="yes"/>
      <point x="111" y="445"/>
      <point x="231" y="534"/>
      <point x="370" y="534" type="curve" smooth="yes"/>
      <point x="502" y="534"/>
      <point x="595" y="440"/>
      <point x="565" y="270" type="curve" smooth="yes"/>
      <point x="536" y="106"/>
      <point x="413" y="11"/>
    </contour>
  </outline>
</glyph>
<glyph name="divide" format="2">
  <advance width="589"/>
  <unicode hex="00F7"/>
  <outline>
    <contour>
      <point x="61" y="389" type="line"/>
      <point x="58" y="371" type="line"/>
      <point x="567" y="371" type="line"/>
      <point x="570" y="389" type="line"/>
    </contour>
    <component base="period" xOffset="262" yOffset="142"/>
    <component base="period" xOffset="322" yOffset="570"/>
  </outline>
</glyph>
<glyph name="oslash" format="2">
  <advance width="647"/>
  <unicode hex="00F8"/>
  <outline>
    <contour>
      <point x="607" y="540" type="line"/>
      <point x="21" y="0" type="line"/>
      <point x="43" y="0" type="line"/>
      <point x="629" y="540" type="line"/>
    </contour>
    <component base="o"/>
  </outline>
</glyph>
<glyph name="thorn" format="2">
  <advance width="671"/>
  <unicode hex="00FE"/>
  <outline>
    <contour>
      <point x="167" y="471"/>
      <point x="121" y="366" type="curve"/>
      <point x="187" y="740" type="line"/>
      <point x="168" y="740" type="line"/>
      <point x="-7" y="-254" type="line"/>
      <point x="12" y="-254" type="line"/>
      <point x="87" y="174" type="line"/>
      <point x="97" y="69"/>
      <point x="171" y="-7"/>
      <point x="299" y="-7" type="curve"/>
      <point x="454" y="-7"/>
      <point x="581" y="98"/>
      <point x="611" y="270" type="curve"/>
      <point x="641" y="442"/>
      <point x="552" y="547"/>
      <point x="397" y="547" type="curve"/>
      <point x="269" y="547"/>
    </contour>
    <contour>
      <point x="619" y="431"/>
      <point x="591" y="270" type="curve"/>
      <point x="563" y="109"/>
      <point x="450" y="11"/>
      <point x="302" y="11" type="curve"/>
      <point x="161" y="11"/>
      <point x="76" y="114"/>
      <point x="104" y="270" type="curve"/>
      <point x="132" y="426"/>
      <point x="253" y="529"/>
      <point x="394" y="529" type="curve"/>
      <point x="542" y="529"/>
    </contour>
  </outline>
</glyph>
<glyph name="Aogonek" format="2">
  <advance width="601"/>
  <unicode hex="0104"/>
  <anchor x="523" y="0" name="_ogonek"/>
  <outline>
    <contour>
      <point x="519" y="18" type="line"/>
      <point x="445" y="-13" type="line" smooth="yes"/>
      <point x="378" y="-41"/>
      <point x="348" y="-78"/>
      <point x="341" y="-116" type="curve" smooth="yes"/>
      <point x="332" y="-167"/>
      <point x="367" y="-190"/>
      <point x="418" y="-190" type="curve" smooth="yes"/>
      <point x="437" y="-190"/>
      <point x="460" y="-186"/>
      <point x="482" y="-178" type="curve"/>
      <point x="486" y="-158" type="line"/>
      <point x="463" y="-166"/>
      <point x="440" y="-171"/>
      <point x="420" y="-171" type="curve" smooth="yes"/>
      <point x="381" y="-171"/>
      <point x="354" y="-154"/>
      <point x="361" y="-115" type="curve" smooth="yes"/>
      <point x="366" y="-86"/>
      <point x="389" y="-57"/>
      <point x="446" y="-33" type="curve" smooth="yes"/>
      <point x="523" y="0" type="line"/>
    </contour>
    <component base="A"/>
  </outline>
</glyph>
<glyph name="dcaron" format="2">
  <advance width="671"/>
  <unicode hex="010F"/>
  <outline>
    <contour>
      <point x="781" y="740" type="curve"/>
      <point x="725" y="740" type="line"/>
      <point x="716" y="687" type="line"/>
      <point x="754" y="687" type="line"/>
      <point x="748" y="658" type="line" smooth="yes"/>
      <point x="743" y="629"/>
      <point x="730" y="613"/>
      <point x="695" y="613" type="curve"/>
      <point x="692" y="593" type="line"/>
      <point x="732" y="593"/>
      <point x="762" y="608"/>
      <point x="773" y="671" type="curve" smooth="yes"/>
      <point x="776" y="689"/>
      <point x="779" y="711"/>
    </contour>
    <component base="d"/>
  </outline>
</glyph>
<glyph name="dcroat" format="2">
  <advance width="664"/>
  <unicode hex="0111"/>
  <outline>
    <contour>
      <point x="432" y="668" type="line"/>
      <point x="429" y="650" type="line"/>
      <point x="721" y="650" type="line"/>
      <point x="724" y="668" type="line"/>
    </contour>
    <component base="d"/>
  </outline>
</glyph>
<glyph name="Gcommaaccent" format="2">
  <advance width="792"/>
  <unicode hex="0122"/>
  <outline>
    <contour>
      <point x="370" y="-59" type="curve"/>
      <point x="319" y="-59" type="line"/>
      <point x="312" y="-97" type="line"/>
      <point x="343" y="-97" type="line"/>
      <point x="342" y="-104" type="line" smooth="yes"/>
      <point x="336" y="-137"/>
      <point x="322" y="-158"/>
      <point x="290" y="-158" type="curve"/>
      <point x="286" y="-176" type="line"/>
      <point x="322" y="-176"/>
      <point x="354" y="-161"/>
      <point x="367" y="-90" type="curve" smooth="yes"/>
      <point x="368" y="-81"/>
      <point x="369" y="-68"/>
    </contour>
    <component base="G"/>
  </outline>
</glyph>
<glyph name="gcommaaccent" format="2">
  <advance width="671"/>
  <unicode hex="0123"/>
  <outline>
    <contour>
      <point x="351" y="593" type="curve"/>
      <point x="407" y="593" type="line"/>
      <point x="416" y="646" type="line"/>
      <point x="378" y="646" type="line"/>
      <point x="383" y="675" type="line" smooth="yes"/>
      <point x="389" y="704"/>
      <point x="401" y="720"/>
      <point x="436" y="720" type="curve"/>
      <point x="440" y="740" type="line"/>
      <point x="400" y="740"/>
      <point x="370" y="725"/>
      <point x="359" y="662" type="curve" smooth="yes"/>
      <point x="356" y="644"/>
      <point x="353" y="622"/>
    </contour>
    <component base="g"/>
  </outline>
</glyph>
<glyph name="dotlessi" format="2">
  <advance width="190"/>
  <unicode hex="0131"/>
  <anchor x="117" y="10" name="ogonek"/>
  <anchor x="143" y="540" name="top"/>
  <outline>
    <contour>
      <point x="133" y="540" type="line"/>
      <point x="37" y="0" type="line"/>
      <point x="57" y="0" type="line"/>
      <point x="153" y="540" type="line"/>
    </contour>
  </outline>
</glyph>
<glyph name="Kcommaaccent" format="2">
  <advance width="494"/>
  <unicode hex="0136"/>
  <anchor x="193" y="0" name="_bottom"/>
  <outline>
    <contour>
      <point x="210" y="-59" type="curve"/>
      <point x="159" y="-59" type="line"/>
      <point x="152" y="-97" type="line"/>
      <point x="183" y="-97" type="line"/>
      <point x="182" y="-104" type="line" smooth="yes"/>
      <point x="176" y="-137"/>
      <point x="162" y="-158"/>
      <point x="130" y="-158" type="curve"/>
      <point x="126" y="-176" type="line"/>
      <point x="162" y="-176"/>
      <point x="194" y="-161"/>
      <point x="207" y="-90" type="curve" smooth="yes"/>
      <point x="208" y="-81"/>
      <point x="209" y="-68"/>
    </contour>
    <component base="K"/>
  </outline>
</glyph>
<glyph name="Lcommaaccent" format="2">
  <advance width="395"/>
  <unicode hex="013B"/>
  <outline>
    <contour>
      <point x="200" y="-59" type="curve"/>
      <point x="149" y="-59" type="line"/>
      <point x="142" y="-97" type="line"/>
      <point x="173" y="-97" type="line"/>
      <point x="172" y="-104" type="line" smooth="yes"/>
      <point x="166" y="-137"/>
      <point x="152" y="-158"/>
      <point x="120" y="-158" type="curve"/>
      <point x="116" y="-176" type="line"/>
      <point x="152" y="-176"/>
      <point x="184" y="-161"/>
      <point x="197" y="-90" type="curve" smooth="yes"/>
      <point x="198" y="-81"/>
      <point x="199" y="-68"/>
    </contour>
    <component base="L"/>
  </outline>
</glyph>
<glyph name="lcommaaccent" format="2">
  <advance width="190"/>
  <unicode hex="013C"/>
  <outline>
    <contour>
      <point x="60" y="-59" type="curve"/>
      <point x="9" y="-59" type="line"/>
      <point x="2" y="-97" type="line"/>
      <point x="33" y="-97" type="line"/>
      <point x="32" y="-104" type="line" smooth="yes"/>
      <point x="26" y="-137"/>
      <point x="12" y="-158"/>
      <point x="-20" y="-158" type="curve"/>
      <point x="-24" y="-176" type="line"/>
      <point x="12" y="-176"/>
      <point x="44" y="-161"/>
      <point x="57" y="-90" type="curve" smooth="yes"/>
      <point x="58" y="-81"/>
      <point x="59" y="-68"/>
    </contour>
    <component base="l"/>
  </outline>
</glyph>
<glyph name="Lcaron" format="2">
  <advance width="395"/>
  <unicode hex="013D"/>
  <outline>
    <contour>
      <point x="365" y="704" type="curve"/>
      <point x="309" y="704" type="line"/>
      <point x="299" y="651" type="line"/>
      <point x="337" y="651" type="line"/>
      <point x="332" y="622" type="line" smooth="yes"/>
      <point x="327" y="593"/>
      <point x="314" y="577"/>
      <point x="279" y="577" type="curve"/>
      <point x="276" y="557" type="line"/>
      <point x="316" y="557"/>
      <point x="345" y="572"/>
      <point x="356" y="635" type="curve" smooth="yes"/>
      <point x="360" y="653"/>
      <point x="362" y="675"/>
    </contour>
    <component base="L"/>
  </outline>
</glyph>
<glyph name="lcaron" format="2">
  <advance width="190"/>
  <unicode hex="013E"/>
  <outline>
    <contour>
      <point x="301" y="740" type="curve"/>
      <point x="245" y="740" type="line"/>
      <point x="236" y="687" type="line"/>
      <point x="274" y="687" type="line"/>
      <point x="268" y="658" type="line" smooth="yes"/>
      <point x="263" y="629"/>
      <point x="250" y="613"/>
      <point x="215" y="613" type="curve"/>
      <point x="212" y="593" type="line"/>
      <point x="252" y="593"/>
      <point x="282" y="608"/>
      <point x="293" y="671" type="curve" smooth="yes"/>
      <point x="296" y="689"/>
      <point x="299" y="711"/>
    </contour>
    <component base="l"/>
  </outline>
</glyph>
<glyph name="Ldot" format="2">
  <advance width="395"/>
  <unicode hex="013F"/>
  <outline>
    <contour>
      <point x="37" y="0" type="line"/>
      <point x="327" y="0" type="line"/>
      <point x="331" y="18" type="line"/>
      <point x="61" y="18" type="line"/>
      <point x="182" y="704" type="line"/>
      <point x="162" y="704" type="line"/>
    </contour>
    <contour>
      <point x="306" y="308" type="curve" smooth="yes"/>
      <point x="322" y="308"/>
      <point x="338" y="322"/>
      <point x="341" y="338" type="curve" smooth="yes"/>
      <point x="344" y="354"/>
      <point x="333" y="368"/>
      <point x="317" y="368" type="curve" smooth="yes"/>
      <point x="301" y="368"/>
      <point x="284" y="354"/>
      <point x="281" y="338" type="curve" smooth="yes"/>
      <point x="278" y="322"/>
      <point x="290" y="308"/>
    </contour>
  </outline>
</glyph>
<glyph name="ldot" format="2">
  <advance width="226"/>
  <unicode hex="0140"/>
  <outline>
    <contour>
      <point x="37" y="0" type="line"/>
      <point x="57" y="0" type="line"/>
      <point x="188" y="740" type="line"/>
      <point x="168" y="740" type="line"/>
    </contour>
    <contour>
      <point x="221" y="336" type="curve" smooth="yes"/>
      <point x="237" y="336"/>
      <point x="254" y="350"/>
      <point x="257" y="366" type="curve" smooth="yes"/>
      <point x="260" y="382"/>
      <point x="248" y="396"/>
      <point x="232" y="396" type="curve" smooth="yes"/>
      <point x="216" y="396"/>
      <point x="199" y="382"/>
      <point x="197" y="366" type="curve" smooth="yes"/>
      <point x="195" y="350"/>
      <point x="205" y="336"/>
    </contour>
  </outline>
</glyph>
<glyph name="Lslash" format="2">
  <advance width="415"/>
  <unicode hex="0141"/>
  <outline>
    <contour>
      <point x="21" y="334" type="line"/>
      <point x="17" y="312" type="line"/>
      <point x="316" y="442" type="line"/>
      <point x="320" y="464" type="line"/>
    </contour>
    <contour>
      <point x="202" y="704" type="line"/>
      <point x="182" y="704" type="line"/>
      <point x="57" y="0" type="line"/>
      <point x="347" y="0" type="line"/>
      <point x="351" y="18" type="line"/>
      <point x="81" y="18" type="line"/>
    </contour>
  </outline>
</glyph>
<glyph name="lslash" format="2">
  <advance width="210"/>
  <unicode hex="0142"/>
  <outline>
    <contour>
      <point x="40" y="441" type="line"/>
      <point x="37" y="422" type="line"/>
      <point x="246" y="531" type="line"/>
      <point x="249" y="550" type="line"/>
    </contour>
    <contour>
      <point x="178" y="740" type="line"/>
      <point x="47" y="0" type="line"/>
      <point x="67" y="0" type="line"/>
      <point x="198" y="740" type="line"/>
    </contour>
  </outline>
</glyph>
<glyph name="Ncommaaccent" format="2">
  <advance width="647"/>
  <unicode hex="0145"/>
  <anchor x="275" y="0" name="_bottom"/>
  <outline>
    <contour>
      <point x="290" y="-59" type="curve"/>
      <point x="239" y="-59" type="line"/>
      <point x="232" y="-97" type="line"/>
      <point x="263" y="-97" type="line"/>
      <point x="262" y="-104" type="line" smooth="yes"/>
      <point x="256" y="-137"/>
      <point x="242" y="-158"/>
      <point x="210" y="-158" type="curve"/>
      <point x="206" y="-176" type="line"/>
      <point x="242" y="-176"/>
      <point x="274" y="-161"/>
      <point x="287" y="-90" type="curve" smooth="yes"/>
      <point x="288" y="-81"/>
      <point x="289" y="-68"/>
    </contour>
    <component base="N"/>
  </outline>
</glyph>
<glyph name="ncommaaccent" format="2">
  <advance width="614"/>
  <unicode hex="0146"/>
  <outline>
    <contour>
      <point x="280" y="-59" type="curve"/>
      <point x="229" y="-59" type="line"/>
      <point x="222" y="-97" type="line"/>
      <point x="253" y="-97" type="line"/>
      <point x="252" y="-104" type="line" smooth="yes"/>
      <point x="246" y="-137"/>
      <point x="232" y="-158"/>
      <point x="200" y="-158" type="curve"/>
      <point x="196" y="-176" type="line"/>
      <point x="232" y="-176"/>
      <point x="264" y="-161"/>
      <point x="277" y="-90" type="curve" smooth="yes"/>
      <point x="278" y="-81"/>
      <point x="279" y="-68"/>
    </contour>
    <component base="n"/>
  </outline>
</glyph>
<glyph name="OE" format="2">
  <advance width="1105"/>
  <unicode hex="0152"/>
  <outline>
    <contour>
      <point x="804" y="686" type="line"/>
      <point x="1128" y="686" type="line"/>
      <point x="1132" y="704" type="line"/>
      <point x="788" y="704" type="line"/>
      <point x="745" y="462" type="line"/>
      <point x="739" y="612"/>
      <point x="628" y="710"/>
      <point x="473" y="710" type="curve"/>
      <point x="277" y="710"/>
      <point x="110" y="562"/>
      <point x="73" y="351" type="curve"/>
      <point x="36" y="140"/>
      <point x="150" y="-8"/>
      <point x="346" y="-8" type="curve"/>
      <point x="501" y="-8"/>
      <point x="647" y="90"/>
      <point x="706" y="240" type="curve"/>
      <point x="663" y="0" type="line"/>
      <point x="1007" y="0" type="line"/>
      <point x="1011" y="18" type="line"/>
      <point x="687" y="18" type="line"/>
      <point x="744" y="343" type="line"/>
      <point x="1038" y="343" type="line"/>
      <point x="1041" y="361" type="line"/>
      <point x="747" y="361" type="line"/>
    </contour>
    <contour>
      <point x="94" y="351" type="curve"/>
      <point x="132" y="563"/>
      <point x="294" y="692"/>
      <point x="469" y="692" type="curve"/>
      <point x="644" y="692"/>
      <point x="762" y="563"/>
      <point x="724" y="351" type="curve"/>
      <point x="687" y="139"/>
      <point x="524" y="10"/>
      <point x="349" y="10" type="curve"/>
      <point x="174" y="10"/>
      <point x="57" y="139"/>
    </contour>
  </outline>
</glyph>
<glyph name="oe" format="2">
  <advance width="1135"/>
  <unicode hex="0153"/>
  <outline>
    <contour>
      <point x="599" y="449"/>
      <point x="567" y="270" type="curve"/>
      <point x="535" y="91"/>
      <point x="402" y="11"/>
      <point x="278" y="11" type="curve"/>
      <point x="154" y="11"/>
      <point x="48" y="91"/>
      <point x="80" y="270" type="curve"/>
      <point x="112" y="449"/>
      <point x="246" y="529"/>
      <point x="370" y="529" type="curve"/>
      <point x="494" y="529"/>
    </contour>
    <contour>
      <point x="91" y="444"/>
      <point x="60" y="270" type="curve"/>
      <point x="29" y="96"/>
      <point x="125" y="-7"/>
      <point x="275" y="-7" type="curve"/>
      <point x="399" y="-7"/>
      <point x="510" y="63"/>
      <point x="562" y="185" type="curve"/>
      <point x="571" y="63"/>
      <point x="654" y="-7"/>
      <point x="778" y="-7" type="curve" smooth="yes"/>
      <point x="918" y="-7"/>
      <point x="1022" y="72"/>
      <point x="1060" y="183" type="curve"/>
      <point x="1040" y="183" type="line"/>
      <point x="1004" y="76"/>
      <point x="901" y="11"/>
      <point x="781" y="11" type="curve" smooth="yes"/>
      <point x="658" y="11"/>
      <point x="555" y="90"/>
      <point x="586" y="267" type="curve" smooth="yes"/>
      <point x="588" y="275" type="line" smooth="yes"/>
      <point x="619" y="451"/>
      <point x="750" y="529"/>
      <point x="873" y="529" type="curve" smooth="yes"/>
      <point x="993" y="529"/>
      <point x="1099" y="453"/>
      <point x="1059" y="279" type="curve"/>
      <point x="579" y="279" type="line"/>
      <point x="575" y="261" type="line"/>
      <point x="1069" y="261" type="line"/>
      <point x="1076" y="279"/>
      <point x="1078" y="289"/>
      <point x="1083" y="315" type="curve" smooth="yes"/>
      <point x="1103" y="428"/>
      <point x="1041" y="547"/>
      <point x="876" y="547" type="curve" smooth="yes"/>
      <point x="752" y="547"/>
      <point x="643" y="477"/>
      <point x="592" y="355" type="curve"/>
      <point x="582" y="477"/>
      <point x="497" y="547"/>
      <point x="373" y="547" type="curve"/>
      <point x="223" y="547"/>
    </contour>
  </outline>
</glyph>
<glyph name="Rcommaaccent" format="2">
  <advance width="535"/>
  <unicode hex="0156"/>
  <anchor x="214" y="0" name="_bottom"/>
  <outline>
    <contour>
      <point x="230" y="-59" type="curve"/>
      <point x="179" y="-59" type="line"/>
      <point x="172" y="-97" type="line"/>
      <point x="203" y="-97" type="line"/>
      <point x="202" y="-104" type="line" smooth="yes"/>
      <point x="196" y="-137"/>
      <point x="182" y="-158"/>
      <point x="150" y="-158" type="curve"/>
      <point x="146" y="-176" type="line"/>
      <point x="182" y="-176"/>
      <point x="214" y="-161"/>
      <point x="227" y="-90" type="curve" smooth="yes"/>
      <point x="228" y="-81"/>
      <point x="229" y="-68"/>
    </contour>
    <component base="R"/>
  </outline>
</glyph>
<glyph name="tcedilla" format="2">
  <advance width="338"/>
  <unicode hex="0163"/>
  <outline>
    <contour>
      <point x="180" y="678" type="line"/>
      <point x="85" y="142" type="line" smooth="yes"/>
      <point x="67" y="37"/>
      <point x="99" y="0"/>
      <point x="191" y="0" type="curve" smooth="yes"/>
      <point x="250" y="0" type="line"/>
      <point x="254" y="20" type="line"/>
      <point x="197" y="20" type="line" smooth="yes"/>
      <point x="115" y="20"/>
      <point x="88" y="45"/>
      <point x="105" y="142" type="curve" smooth="yes"/>
      <point x="200" y="678" type="line"/>
    </contour>
    <contour>
      <point x="64" y="520" type="line"/>
      <point x="342" y="520" type="line"/>
      <point x="346" y="540" type="line"/>
      <point x="68" y="540" type="line"/>
    </contour>
    <contour>
      <point x="160" y="-89" type="curve"/>
      <point x="177" y="7" type="line"/>
      <point x="157" y="7" type="line"/>
      <point x="137" y="-107" type="line"/>
      <point x="174" y="-107" type="line" smooth="yes"/>
      <point x="241" y="-107"/>
      <point x="258" y="-135"/>
      <point x="252" y="-168" type="curve" smooth="yes"/>
      <point x="245" y="-207"/>
      <point x="218" y="-234"/>
      <point x="151" y="-234" type="curve" smooth="yes"/>
      <point x="91" y="-234" type="line"/>
      <point x="88" y="-254" type="line"/>
      <point x="151" y="-254" type="line" smooth="yes"/>
      <point x="221" y="-254"/>
      <point x="263" y="-218"/>
      <point x="272" y="-168" type="curve" smooth="yes"/>
      <point x="281" y="-114"/>
      <point x="244" y="-84"/>
    </contour>
  </outline>
</glyph>
<glyph name="tcaron" format="2">
  <advance width="338"/>
  <unicode hex="0165"/>
  <outline>
    <contour>
      <point x="341" y="740" type="curve"/>
      <point x="285" y="740" type="line"/>
      <point x="276" y="687" type="line"/>
      <point x="314" y="687" type="line"/>
      <point x="308" y="658" type="line" smooth="yes"/>
      <point x="303" y="629"/>
      <point x="290" y="613"/>
      <point x="255" y="613" type="curve"/>
      <point x="252" y="593" type="line"/>
      <point x="292" y="593"/>
      <point x="322" y="608"/>
      <point x="333" y="671" type="curve" smooth="yes"/>
      <point x="336" y="689"/>
      <point x="339" y="711"/>
    </contour>
    <component base="t"/>
  </outline>
</glyph>
<glyph name="Schwa" format="2">
  <advance width="768"/>
  <unicode hex="018F"/>
  <outline>
    <contour>
      <point x="707" y="426" type="curve" smooth="yes"/>
      <point x="707" y="414" type="line" smooth="yes"/>
      <point x="707" y="199"/>
      <point x="543" y="10"/>
      <point x="327" y="10" type="curve" smooth="yes"/>
      <point x="141" y="10"/>
      <point x="49" y="145"/>
      <point x="95" y="341" type="curve"/>
      <point x="705" y="341" type="line"/>
      <point x="708" y="358" type="line"/>
      <point x="78" y="358" type="line"/>
      <point x="69" y="325"/>
      <point x="62" y="281"/>
      <point x="62" y="244" type="curve" smooth="yes"/>
      <point x="62" y="91"/>
      <point x="164" y="-8"/>
      <point x="323" y="-8" type="curve" smooth="yes"/>
      <point x="564" y="-8"/>
      <point x="729" y="192"/>
      <point x="729" y="427" type="curve" smooth="yes"/>
      <point x="729" y="594"/>
      <point x="622" y="710"/>
      <point x="454" y="710" type="curve" smooth="yes"/>
      <point x="294" y="710"/>
      <point x="154" y="613"/>
      <point x="95" y="465" type="curve"/>
      <point x="116" y="465" type="line"/>
      <point x="174" y="608"/>
      <point x="313" y="692"/>
      <point x="451" y="692" type="curve" smooth="yes"/>
      <point x="600" y="692"/>
      <point x="707" y="591"/>
    </contour>
  </outline>
</glyph>
<glyph name="florin" format="2">
  <advance width="331"/>
  <unicode hex="0192"/>
  <outline>
    <contour>
      <point x="112" y="540" type="line"/>
      <point x="108" y="522" type="line"/>
      <point x="370" y="522" type="line"/>
      <point x="375" y="540" type="line"/>
    </contour>
    <contour>
      <point x="248" y="711"/>
      <point x="220" y="609" type="curve" smooth="yes"/>
      <point x="37" y="-34" type="line" smooth="yes"/>
      <point x="17" y="-104"/>
      <point x="-11" y="-118"/>
      <point x="-65" y="-118" type="curve" smooth="yes"/>
      <point x="-92" y="-118" type="line"/>
      <point x="-97" y="-136" type="line"/>
      <point x="-67" y="-136" type="line" smooth="yes"/>
      <point x="12" y="-136"/>
      <point x="39" y="-96"/>
      <point x="57" y="-34" type="curve" smooth="yes"/>
      <point x="239" y="609" type="line" smooth="yes"/>
      <point x="263" y="696"/>
      <point x="324" y="735"/>
      <point x="422" y="735" type="curve"/>
      <point x="426" y="753" type="line"/>
      <point x="320" y="753"/>
    </contour>
  </outline>
</glyph>
<glyph name="Scommaaccent" format="2">
  <advance width="536"/>
  <unicode hex="0218"/>
  <outline>
    <contour>
      <point x="260" y="-59" type="curve"/>
      <point x="209" y="-59" type="line"/>
      <point x="202" y="-97" type="line"/>
      <point x="233" y="-97" type="line"/>
      <point x="232" y="-104" type="line" smooth="yes"/>
      <point x="226" y="-137"/>
      <point x="212" y="-158"/>
      <point x="180" y="-158" type="curve"/>
      <point x="176" y="-176" type="line"/>
      <point x="212" y="-176"/>
      <point x="244" y="-161"/>
      <point x="257" y="-90" type="curve" smooth="yes"/>
      <point x="258" y="-81"/>
      <point x="259" y="-68"/>
    </contour>
    <component base="S"/>
  </outline>
</glyph>
<glyph name="Tcommaaccent" format="2">
  <advance width="470"/>
  <unicode hex="021A"/>
  <outline>
    <contour>
      <point x="200" y="-59" type="curve"/>
      <point x="149" y="-59" type="line"/>
      <point x="142" y="-97" type="line"/>
      <point x="173" y="-97" type="line"/>
      <point x="172" y="-104" type="line" smooth="yes"/>
      <point x="166" y="-137"/>
      <point x="152" y="-158"/>
      <point x="120" y="-158" type="curve"/>
      <point x="116" y="-176" type="line"/>
      <point x="152" y="-176"/>
      <point x="184" y="-161"/>
      <point x="197" y="-90" type="curve" smooth="yes"/>
      <point x="198" y="-81"/>
      <point x="199" y="-68"/>
    </contour>
    <component base="T"/>
  </outline>
</glyph>
<glyph name="tcommaaccent" format="2">
  <advance width="338"/>
  <unicode hex="021B"/>
  <outline>
    <contour>
      <point x="170" y="-59" type="curve"/>
      <point x="119" y="-59" type="line"/>
      <point x="112" y="-97" type="line"/>
      <point x="143" y="-97" type="line"/>
      <point x="142" y="-104" type="line" smooth="yes"/>
      <point x="136" y="-137"/>
      <point x="122" y="-158"/>
      <point x="90" y="-158" type="curve"/>
      <point x="86" y="-176" type="line"/>
      <point x="122" y="-176"/>
      <point x="154" y="-161"/>
      <point x="167" y="-90" type="curve" smooth="yes"/>
      <point x="168" y="-81"/>
      <point x="169" y="-68"/>
    </contour>
    <component base="t"/>
  </outline>
</glyph>
<glyph name="caron" format="2">
  <advance width="327"/>
  <unicode hex="02C7"/>
  <anchor x="212" y="540" name="_top"/>
  <outline>
    <contour>
      <point x="366" y="718" type="line"/>
      <point x="229" y="637" type="line"/>
      <point x="119" y="718" type="line"/>
      <point x="115" y="698" type="line"/>
      <point x="225" y="617" type="line"/>
      <point x="362" y="698" type="line"/>
    </contour>
  </outline>
</glyph>
<glyph name="ring" format="2">
  <advance width="260"/>
  <unicode hex="02DA"/>
  <anchor x="178" y="540" name="_top"/>
  <outline>
    <contour>
      <point x="127" y="761"/>
      <point x="117" y="705" type="curve"/>
      <point x="107" y="649"/>
      <point x="142" y="615"/>
      <point x="191" y="615" type="curve"/>
      <point x="240" y="615"/>
      <point x="287" y="649"/>
      <point x="297" y="705" type="curve"/>
      <point x="307" y="761"/>
      <point x="272" y="795"/>
      <point x="223" y="795" type="curve"/>
      <point x="174" y="795"/>
    </contour>
    <contour>
      <point x="285" y="750"/>
      <point x="277" y="705" type="curve"/>
      <point x="269" y="660"/>
      <point x="234" y="633"/>
      <point x="194" y="633" type="curve"/>
      <point x="154" y="633"/>
      <point x="129" y="660"/>
      <point x="137" y="705" type="curve"/>
      <point x="145" y="750"/>
      <point x="179" y="777"/>
      <point x="219" y="777" type="curve"/>
      <point x="259" y="777"/>
    </contour>
  </outline>
</glyph>
<glyph name="acutecomb" format="2">
  <unicode hex="0301"/>
  <anchor x="195" y="540" name="_top"/>
  <outline>
    <contour>
      <point x="310" y="740" type="line"/>
      <point x="99" y="606" type="line"/>
      <point x="96" y="586" type="line"/>
      <point x="306" y="716" type="line"/>
    </contour>
  </outline>
</glyph>
<glyph name="circumflexcomb" format="2">
  <unicode hex="0302"/>
  <anchor x="212" y="540" name="_top"/>
  <outline>
    <contour>
      <point x="349" y="620" type="line"/>
      <point x="352" y="640" type="line"/>
      <point x="244" y="721" type="line"/>
      <point x="105" y="640" type="line"/>
      <point x="102" y="620" type="line"/>
      <point x="240" y="701" type="line"/>
    </contour>
  </outline>
</glyph>
<glyph name="macroncomb" format="2">
  <unicode hex="0304"/>
  <anchor x="243" y="540" name="_top"/>
  <outline>
    <contour>
      <point x="112" y="677" type="line"/>
      <point x="109" y="659" type="line"/>
      <point x="418" y="659" type="line"/>
      <point x="421" y="677" type="line"/>
    </contour>
  </outline>
</glyph>
<glyph name="brevecomb" format="2">
  <advance width="316"/>
  <unicode hex="0306"/>
  <anchor x="206" y="540" name="_top"/>
  <outline>
    <contour>
      <point x="347" y="672"/>
      <point x="355" y="720" type="curve" smooth="yes"/>
      <point x="356" y="724" type="line"/>
      <point x="336" y="724" type="line"/>
      <point x="326" y="667"/>
      <point x="284" y="634"/>
      <point x="222" y="634" type="curve"/>
      <point x="160" y="634"/>
      <point x="130" y="667"/>
      <point x="140" y="724" type="curve"/>
      <point x="120" y="724" type="line"/>
      <point x="119" y="720" type="line" smooth="yes"/>
      <point x="111" y="672"/>
      <point x="134" y="616"/>
      <point x="219" y="616" type="curve"/>
      <point x="304" y="616"/>
    </contour>
  </outline>
</glyph>
<glyph name="dotaccentcomb" format="2">
  <advance width="154"/>
  <unicode hex="0307"/>
  <anchor x="129" y="562" name="_top"/>
  <outline>
    <contour>
      <point x="124" y="627"/>
      <point x="140" y="627" type="curve" smooth="yes"/>
      <point x="156" y="627"/>
      <point x="172" y="641"/>
      <point x="175" y="657" type="curve" smooth="yes"/>
      <point x="178" y="673"/>
      <point x="167" y="687"/>
      <point x="151" y="687" type="curve" smooth="yes"/>
      <point x="135" y="687"/>
      <point x="118" y="673"/>
      <point x="115" y="657" type="curve" smooth="yes"/>
      <point x="112" y="641"/>
    </contour>
  </outline>
</glyph>
<glyph name="hungarumlautcomb" format="2">
  <unicode hex="030B"/>
  <anchor x="160" y="540" name="_top"/>
  <outline>
    <contour>
      <point x="317" y="705" type="line"/>
      <point x="294" y="705" type="line"/>
      <point x="210" y="601" type="line"/>
      <point x="230" y="601" type="line"/>
    </contour>
    <contour>
      <point x="200" y="705" type="line"/>
      <point x="177" y="705" type="line"/>
      <point x="98" y="601" type="line"/>
      <point x="118" y="601" type="line"/>
    </contour>
  </outline>
</glyph>
<glyph name="caroncomb" format="2">
  <unicode hex="030C"/>
  <anchor x="212" y="540" name="_top"/>
  <outline>
    <contour>
      <point x="366" y="718" type="line"/>
      <point x="229" y="637" type="line"/>
      <point x="119" y="718" type="line"/>
      <point x="115" y="698" type="line"/>
      <point x="225" y="617" type="line"/>
      <point x="362" y="698" type="line"/>
    </contour>
  </outline>
</glyph>
<glyph name="cedillacomb" format="2">
  <advance width="249"/>
  <unicode hex="0327"/>
  <anchor x="23" y="0" name="_bottom"/>
  <outline>
    <contour>
      <point x="20" y="-89" type="curve"/>
      <point x="37" y="7" type="line"/>
      <point x="17" y="7" type="line"/>
      <point x="-3" y="-107" type="line"/>
      <point x="34" y="-107" type="line" smooth="yes"/>
      <point x="101" y="-107"/>
      <point x="118" y="-135"/>
      <point x="112" y="-168" type="curve" smooth="yes"/>
      <point x="105" y="-207"/>
      <point x="78" y="-234"/>
      <point x="11" y="-234" type="curve" smooth="yes"/>
      <point x="-49" y="-234" type="line"/>
      <point x="-52" y="-254" type="line"/>
      <point x="11" y="-254" type="line" smooth="yes"/>
      <point x="81" y="-254"/>
      <point x="123" y="-218"/>
      <point x="132" y="-168" type="curve" smooth="yes"/>
      <point x="141" y="-114"/>
      <point x="104" y="-84"/>
    </contour>
  </outline>
</glyph>
<glyph name="ogonekcomb" format="2">
  <advance width="263"/>
  <unicode hex="0328"/>
  <anchor x="165" y="0" name="_ogonek"/>
  <outline>
    <contour>
      <point x="159" y="16" type="line"/>
      <point x="85" y="-15" type="line" smooth="yes"/>
      <point x="18" y="-43"/>
      <point x="-10" y="-78"/>
      <point x="-17" y="-116" type="curve" smooth="yes"/>
      <point x="-26" y="-167"/>
      <point x="9" y="-190"/>
      <point x="59" y="-190" type="curve" smooth="yes"/>
      <point x="79" y="-190"/>
      <point x="102" y="-186"/>
      <point x="124" y="-178" type="curve"/>
      <point x="128" y="-158" type="line"/>
      <point x="105" y="-166"/>
      <point x="82" y="-171"/>
      <point x="62" y="-171" type="curve" smooth="yes"/>
      <point x="23" y="-171"/>
      <point x="-4" y="-154"/>
      <point x="3" y="-115" type="curve" smooth="yes"/>
      <point x="8" y="-86"/>
      <point x="31" y="-57"/>
      <point x="88" y="-33" type="curve" smooth="yes"/>
      <point x="165" y="0" type="line"/>
    </contour>
  </outline>
</glyph>
<glyph name="pi" format="2">
  <advance width="721"/>
  <unicode hex="03C0"/>
  <outline>
    <contour>
      <point x="113" y="540" type="line"/>
      <point x="109" y="522" type="line"/>
      <point x="196" y="522" type="line"/>
      <point x="104" y="0" type="line"/>
      <point x="124" y="0" type="line"/>
      <point x="216" y="522" type="line"/>
      <point x="593" y="522" type="line"/>
      <point x="501" y="0" type="line"/>
      <point x="521" y="0" type="line"/>
      <point x="613" y="522" type="line"/>
      <point x="700" y="522" type="line"/>
      <point x="704" y="540" type="line"/>
    </contour>
  </outline>
</glyph>
<glyph name="dvCandrabindu" format="2">
  <unicode hex="0901"/>
  <anchor x="-63" y="740" name="_abvm.e"/>
  <outline>
    <contour>
      <point x="-52" y="824" type="curve" smooth="yes"/>
      <point x="67" y="824"/>
      <point x="128" y="905"/>
      <point x="140" y="969" type="curve"/>
      <point x="124" y="969" type="line"/>
      <point x="114" y="911"/>
      <point x="54" y="840"/>
      <point x="-54" y="840" type="curve" smooth="yes"/>
      <point x="-163" y="840"/>
      <point x="-196" y="911"/>
      <point x="-186" y="969" type="curve"/>
      <point x="-202" y="969" type="line"/>
      <point x="-214" y="905"/>
      <point x="-172" y="824"/>
    </contour>
    <contour>
      <point x="-29" y="978" type="curve" smooth="yes"/>
      <point x="-15" y="978"/>
      <point x="-3" y="988"/>
      <point x="0" y="1002" type="curve" smooth="yes"/>
      <point x="3" y="1016"/>
      <point x="-6" y="1026"/>
      <point x="-20" y="1026" type="curve" smooth="yes"/>
      <point x="-35" y="1026"/>
      <point x="-47" y="1016"/>
      <point x="-49" y="1002" type="curve" smooth="yes"/>
      <point x="-51" y="988"/>
      <point x="-44" y="978"/>
    </contour>
  </outline>
</glyph>
<glyph name="dvAnusvara" format="2">
  <unicode hex="0902"/>
  <guideline x="-165" y="712" angle="90"/>
  <anchor x="-61" y="740" name="_abvm.e"/>
  <outline>
    <contour>
      <point x="-48" y="855" type="curve" smooth="yes"/>
      <point x="-34" y="855"/>
      <point x="-22" y="865"/>
      <point x="-20" y="879" type="curve" smooth="yes"/>
      <point x="-18" y="893"/>
      <point x="-26" y="903"/>
      <point x="-41" y="903" type="curve" smooth="yes"/>
      <point x="-55" y="903"/>
      <point x="-67" y="893"/>
      <point x="-69" y="879" type="curve" smooth="yes"/>
      <point x="-71" y="865"/>
      <point x="-62" y="855"/>
    </contour>
  </outline>
</glyph>
<glyph name="dvVisarga" format="2">
  <advance width="189"/>
  <unicode hex="0903"/>
  <outline>
    <contour>
      <point x="119" y="489" type="curve" smooth="yes"/>
      <point x="133" y="489"/>
      <point x="144" y="499"/>
      <point x="147" y="513" type="curve" smooth="yes"/>
      <point x="149" y="527"/>
      <point x="141" y="537"/>
      <point x="127" y="537" type="curve" smooth="yes"/>
      <point x="112" y="537"/>
      <point x="100" y="527"/>
      <point x="98" y="513" type="curve" smooth="yes"/>
      <point x="95" y="499"/>
      <point x="104" y="489"/>
    </contour>
    <contour>
      <point x="63" y="173" type="curve" smooth="yes"/>
      <point x="77" y="173"/>
      <point x="89" y="183"/>
      <point x="91" y="197" type="curve" smooth="yes"/>
      <point x="94" y="211"/>
      <point x="85" y="221"/>
      <point x="71" y="221" type="curve" smooth="yes"/>
      <point x="56" y="221"/>
      <point x="45" y="211"/>
      <point x="42" y="197" type="curve" smooth="yes"/>
      <point x="40" y="183"/>
      <point x="48" y="173"/>
    </contour>
  </outline>
</glyph>
<glyph name="dvI" format="2">
  <advance width="582"/>
  <unicode hex="0907"/>
  <anchor x="382" y="740" name="abvm.e"/>
  <outline>
    <contour>
      <point x="37" y="-70" type="line"/>
      <point x="53" y="-70" type="line"/>
      <point x="86" y="120" type="line"/>
      <point x="89" y="81"/>
      <point x="132" y="-9"/>
      <point x="275" y="-9" type="curve" smooth="yes"/>
      <point x="404" y="-9"/>
      <point x="472" y="65"/>
      <point x="487" y="150" type="curve" smooth="yes"/>
      <point x="510" y="276"/>
      <point x="412" y="314"/>
      <point x="312" y="314" type="curve" smooth="yes"/>
      <point x="297" y="314"/>
      <point x="281" y="314"/>
      <point x="267" y="314" type="curve" smooth="yes"/>
      <point x="188" y="314"/>
      <point x="120" y="343"/>
      <point x="136" y="429" type="curve" smooth="yes"/>
      <point x="153" y="528"/>
      <point x="252" y="546"/>
      <point x="329" y="546" type="curve" smooth="yes"/>
      <point x="498" y="546" type="line"/>
      <point x="501" y="562" type="line"/>
      <point x="324" y="562" type="line" smooth="yes"/>
      <point x="240" y="562"/>
      <point x="137" y="535"/>
      <point x="119" y="429" type="curve" smooth="yes"/>
      <point x="103" y="338"/>
      <point x="171" y="298"/>
      <point x="263" y="298" type="curve" smooth="yes"/>
      <point x="275" y="298"/>
      <point x="292" y="298"/>
      <point x="308" y="298" type="curve" smooth="yes"/>
      <point x="397" y="298"/>
      <point x="491" y="268"/>
      <point x="470" y="150" type="curve" smooth="yes"/>
      <point x="457" y="75"/>
      <point x="392" y="7"/>
      <point x="278" y="7" type="curve" smooth="yes"/>
      <point x="148" y="7"/>
      <point x="90" y="85"/>
      <point x="96" y="184" type="curve"/>
      <point x="81" y="184" type="line"/>
    </contour>
    <contour>
      <point x="19" y="724" type="line"/>
      <point x="701" y="724" type="line"/>
      <point x="703" y="740" type="line"/>
      <point x="21" y="740" type="line"/>
    </contour>
    <contour>
      <point x="481" y="546" type="line"/>
      <point x="498" y="546" type="line"/>
      <point x="531" y="732" type="line"/>
      <point x="514" y="732" type="line"/>
    </contour>
  </outline>
</glyph>
<glyph name="dvII" format="2">
  <advance width="582"/>
  <unicode hex="0908"/>
  <anchor x="360" y="740" name="abvm.e"/>
  <outline>
    <contour>
      <point x="37" y="-70" type="line"/>
      <point x="53" y="-70" type="line"/>
      <point x="86" y="120" type="line"/>
      <point x="89" y="81"/>
      <point x="132" y="-9"/>
      <point x="275" y="-9" type="curve" smooth="yes"/>
      <point x="404" y="-9"/>
      <point x="472" y="65"/>
      <point x="487" y="150" type="curve" smooth="yes"/>
      <point x="510" y="276"/>
      <point x="412" y="314"/>
      <point x="312" y="314" type="curve" smooth="yes"/>
      <point x="297" y="314"/>
      <point x="281" y="314"/>
      <point x="267" y="314" type="curve" smooth="yes"/>
      <point x="188" y="314"/>
      <point x="120" y="343"/>
      <point x="136" y="429" type="curve" smooth="yes"/>
      <point x="153" y="528"/>
      <point x="252" y="546"/>
      <point x="329" y="546" type="curve" smooth="yes"/>
      <point x="498" y="546" type="line"/>
      <point x="501" y="562" type="line"/>
      <point x="324" y="562" type="line" smooth="yes"/>
      <point x="240" y="562"/>
      <point x="137" y="535"/>
      <point x="119" y="429" type="curve" smooth="yes"/>
      <point x="103" y="338"/>
      <point x="171" y="298"/>
      <point x="263" y="298" type="curve" smooth="yes"/>
      <point x="275" y="298"/>
      <point x="292" y="298"/>
      <point x="308" y="298" type="curve" smooth="yes"/>
      <point x="397" y="298"/>
      <point x="491" y="268"/>
      <point x="470" y="150" type="curve" smooth="yes"/>
      <point x="457" y="75"/>
      <point x="392" y="7"/>
      <point x="278" y="7" type="curve" smooth="yes"/>
      <point x="148" y="7"/>
      <point x="90" y="85"/>
      <point x="96" y="184" type="curve"/>
      <point x="81" y="184" type="line"/>
    </contour>
    <contour>
      <point x="19" y="724" type="line"/>
      <point x="701" y="724" type="line"/>
      <point x="703" y="740" type="line"/>
      <point x="21" y="740" type="line"/>
    </contour>
    <contour>
      <point x="481" y="546" type="line"/>
      <point x="498" y="546" type="line"/>
      <point x="531" y="732" type="line"/>
      <point x="514" y="732" type="line"/>
    </contour>
    <contour>
      <point x="514" y="733" type="line"/>
      <point x="531" y="733" type="line"/>
      <point x="546" y="822" type="line" smooth="yes"/>
      <point x="563" y="924"/>
      <point x="615" y="978"/>
      <point x="695" y="978" type="curve" smooth="yes"/>
      <point x="766" y="978"/>
      <point x="801" y="926"/>
      <point x="789" y="858" type="curve"/>
      <point x="805" y="858" type="line"/>
      <point x="819" y="936"/>
      <point x="779" y="994"/>
      <point x="698" y="994" type="curve" smooth="yes"/>
      <point x="611" y="994"/>
      <point x="550" y="937"/>
      <point x="530" y="823" type="curve" smooth="yes"/>
    </contour>
  </outline>
</glyph>
<glyph name="dvU" format="2">
  <advance width="584"/>
  <unicode hex="0909"/>
  <anchor x="365" y="740" name="abvm.e"/>
  <outline>
    <contour>
      <point x="225" y="2" type="curve" smooth="yes"/>
      <point x="358" y="2"/>
      <point x="453" y="93"/>
      <point x="475" y="216" type="curve" smooth="yes"/>
      <point x="492" y="317"/>
      <point x="448" y="407"/>
      <point x="348" y="424" type="curve"/>
      <point x="349" y="425" type="line"/>
      <point x="424" y="436"/>
      <point x="489" y="498"/>
      <point x="504" y="582" type="curve" smooth="yes"/>
      <point x="530" y="731" type="line"/>
      <point x="513" y="731" type="line"/>
      <point x="488" y="585" type="line" smooth="yes"/>
      <point x="474" y="506"/>
      <point x="412" y="431"/>
      <point x="295" y="431" type="curve" smooth="yes"/>
      <point x="261" y="431" type="line"/>
      <point x="258" y="415" type="line"/>
      <point x="292" y="415" type="line" smooth="yes"/>
      <point x="439" y="415"/>
      <point x="474" y="306"/>
      <point x="458" y="216" type="curve" smooth="yes"/>
      <point x="437" y="101"/>
      <point x="347" y="18"/>
      <point x="228" y="18" type="curve" smooth="yes"/>
      <point x="109" y="18"/>
      <point x="31" y="105"/>
      <point x="51" y="217" type="curve"/>
      <point x="34" y="217" type="line"/>
      <point x="13" y="97"/>
      <point x="93" y="2"/>
    </contour>
    <contour>
      <point x="27" y="724" type="line"/>
      <point x="681" y="724" type="line"/>
      <point x="684" y="740" type="line"/>
      <point x="30" y="740" type="line"/>
    </contour>
  </outline>
</glyph>
<glyph name="dvUU" format="2">
  <advance width="876"/>
  <unicode hex="090A"/>
  <anchor x="530" y="740" name="abvm.e"/>
  <outline>
    <contour>
      <point x="225" y="2" type="curve" smooth="yes"/>
      <point x="358" y="2"/>
      <point x="453" y="93"/>
      <point x="475" y="216" type="curve" smooth="yes"/>
      <point x="492" y="317"/>
      <point x="448" y="407"/>
      <point x="348" y="424" type="curve"/>
      <point x="349" y="425" type="line"/>
      <point x="424" y="436"/>
      <point x="489" y="498"/>
      <point x="504" y="582" type="curve" smooth="yes"/>
      <point x="530" y="731" type="line"/>
      <point x="513" y="731" type="line"/>
      <point x="488" y="585" type="line" smooth="yes"/>
      <point x="474" y="506"/>
      <point x="412" y="431"/>
      <point x="295" y="431" type="curve" smooth="yes"/>
      <point x="261" y="431" type="line"/>
      <point x="258" y="415" type="line"/>
      <point x="292" y="415" type="line" smooth="yes"/>
      <point x="439" y="415"/>
      <point x="474" y="306"/>
      <point x="458" y="216" type="curve" smooth="yes"/>
      <point x="437" y="101"/>
      <point x="347" y="18"/>
      <point x="228" y="18" type="curve" smooth="yes"/>
      <point x="109" y="18"/>
      <point x="31" y="105"/>
      <point x="51" y="217" type="curve"/>
      <point x="34" y="217" type="line"/>
      <point x="13" y="97"/>
      <point x="93" y="2"/>
    </contour>
    <contour>
      <point x="546" y="35" type="curve" smooth="yes"/>
      <point x="647" y="35"/>
      <point x="751" y="82"/>
      <point x="777" y="227" type="curve" smooth="yes"/>
      <point x="802" y="373"/>
      <point x="701" y="424"/>
      <point x="581" y="424" type="curve" smooth="yes"/>
      <point x="344" y="424" type="line"/>
      <point x="362" y="408" type="line"/>
      <point x="579" y="408" type="line" smooth="yes"/>
      <point x="690" y="408"/>
      <point x="784" y="363"/>
      <point x="760" y="227" type="curve" smooth="yes"/>
      <point x="736" y="95"/>
      <point x="644" y="50"/>
      <point x="549" y="50" type="curve" smooth="yes"/>
      <point x="538" y="50"/>
      <point x="526" y="51"/>
      <point x="513" y="52" type="curve"/>
      <point x="510" y="37" type="line"/>
      <point x="522" y="36"/>
      <point x="534" y="35"/>
    </contour>
    <contour>
      <point x="27" y="724" type="line"/>
      <point x="973" y="724" type="line"/>
      <point x="976" y="740" type="line"/>
      <point x="30" y="740" type="line"/>
    </contour>
  </outline>
</glyph>
<glyph name="dvvR" format="2">
  <advance width="994"/>
  <unicode hex="090B"/>
  <anchor x="600" y="740" name="abvm.e"/>
  <outline>
    <contour>
      <point x="453" y="0" type="line"/>
      <point x="470" y="0" type="line"/>
      <point x="597" y="724" type="line"/>
      <point x="1091" y="724" type="line"/>
      <point x="1094" y="740" type="line"/>
      <point x="30" y="740" type="line"/>
      <point x="27" y="724" type="line"/>
      <point x="580" y="724" type="line"/>
    </contour>
    <contour>
      <point x="84" y="0" type="line"/>
      <point x="102" y="0" type="line"/>
      <point x="530" y="387" type="line"/>
      <point x="528" y="405" type="line"/>
      <point x="85" y="4" type="line"/>
    </contour>
    <contour>
      <point x="534" y="377" type="line"/>
      <point x="556" y="499"/>
      <point x="492" y="596"/>
      <point x="355" y="596" type="curve" smooth="yes"/>
      <point x="222" y="596"/>
      <point x="104" y="503"/>
      <point x="77" y="352" type="curve"/>
      <point x="94" y="352" type="line"/>
      <point x="119" y="494"/>
      <point x="228" y="580"/>
      <point x="354" y="580" type="curve" smooth="yes"/>
      <point x="476" y="580"/>
      <point x="539" y="490"/>
      <point x="519" y="377" type="curve"/>
    </contour>
    <contour>
      <point x="774" y="-46" type="curve" smooth="yes"/>
      <point x="795" y="-46"/>
      <point x="821" y="-41"/>
      <point x="833" y="-36" type="curve"/>
      <point x="836" y="-20" type="line"/>
      <point x="822" y="-25"/>
      <point x="799" y="-30"/>
      <point x="777" y="-30" type="curve" smooth="yes"/>
      <point x="702" y="-30"/>
      <point x="642" y="7"/>
      <point x="659" y="104" type="curve" smooth="yes"/>
      <point x="672" y="179"/>
      <point x="735" y="241"/>
      <point x="829" y="241" type="curve" smooth="yes"/>
      <point x="841" y="241" type="line"/>
      <point x="844" y="257" type="line"/>
      <point x="832" y="257" type="line" smooth="yes"/>
      <point x="727" y="257"/>
      <point x="657" y="188"/>
      <point x="642" y="104" type="curve" smooth="yes"/>
      <point x="623" y="-1"/>
      <point x="691" y="-46"/>
    </contour>
    <contour>
      <point x="533" y="410" type="line"/>
      <point x="750" y="410" type="line" smooth="yes"/>
      <point x="837" y="410"/>
      <point x="879" y="457"/>
      <point x="890" y="520" type="curve" smooth="yes"/>
      <point x="898" y="568" type="line"/>
      <point x="882" y="568" type="line"/>
      <point x="874" y="520" type="line" smooth="yes"/>
      <point x="865" y="466"/>
      <point x="832" y="426"/>
      <point x="754" y="426" type="curve" smooth="yes"/>
      <point x="536" y="426" type="line"/>
    </contour>
    <contour>
      <point x="824" y="241" type="line"/>
      <point x="841" y="241" type="line"/>
      <point x="904" y="598" type="line"/>
      <point x="887" y="598" type="line"/>
    </contour>
  </outline>
</glyph>
<glyph name="dvvL" format="2">
  <advance width="895"/>
  <unicode hex="090C"/>
  <anchor x="701" y="740" name="abvm.e"/>
  <outline>
    <contour>
      <point x="708" y="-46" type="curve" smooth="yes"/>
      <point x="729" y="-46"/>
      <point x="755" y="-41"/>
      <point x="767" y="-36" type="curve"/>
      <point x="770" y="-20" type="line"/>
      <point x="756" y="-25"/>
      <point x="733" y="-30"/>
      <point x="711" y="-30" type="curve" smooth="yes"/>
      <point x="636" y="-30"/>
      <point x="576" y="7"/>
      <point x="593" y="104" type="curve" smooth="yes"/>
      <point x="606" y="179"/>
      <point x="669" y="241"/>
      <point x="763" y="241" type="curve" smooth="yes"/>
      <point x="766" y="241"/>
      <point x="768" y="241"/>
      <point x="771" y="241" type="curve"/>
      <point x="788" y="271"/>
      <point x="799" y="305"/>
      <point x="805" y="341" type="curve" smooth="yes"/>
      <point x="825" y="463"/>
      <point x="779" y="560"/>
      <point x="659" y="560" type="curve" smooth="yes"/>
      <point x="535" y="560"/>
      <point x="474" y="465"/>
      <point x="449" y="387" type="curve"/>
      <point x="447" y="387" type="line"/>
      <point x="451" y="464"/>
      <point x="418" y="560"/>
      <point x="306" y="560" type="curve" smooth="yes"/>
      <point x="181" y="560"/>
      <point x="102" y="467"/>
      <point x="80" y="341" type="curve" smooth="yes"/>
      <point x="57" y="208"/>
      <point x="111" y="104"/>
      <point x="258" y="104" type="curve" smooth="yes"/>
      <point x="269" y="104"/>
      <point x="280" y="105"/>
      <point x="292" y="106" type="curve"/>
      <point x="295" y="123" type="line"/>
      <point x="283" y="122"/>
      <point x="273" y="121"/>
      <point x="263" y="121" type="curve" smooth="yes"/>
      <point x="125" y="121"/>
      <point x="75" y="217"/>
      <point x="97" y="341" type="curve" smooth="yes"/>
      <point x="117" y="456"/>
      <point x="191" y="544"/>
      <point x="307" y="544" type="curve" smooth="yes"/>
      <point x="414" y="544"/>
      <point x="445" y="449"/>
      <point x="427" y="303" type="curve" smooth="yes"/>
      <point x="426" y="295" type="line"/>
      <point x="443" y="295" type="line"/>
      <point x="444" y="303" type="line" smooth="yes"/>
      <point x="463" y="452"/>
      <point x="546" y="544"/>
      <point x="659" y="544" type="curve" smooth="yes"/>
      <point x="770" y="544"/>
      <point x="808" y="452"/>
      <point x="788" y="341" type="curve" smooth="yes"/>
      <point x="782" y="307"/>
      <point x="771" y="276"/>
      <point x="757" y="248" type="curve"/>
      <point x="766" y="257" type="line"/>
      <point x="661" y="257"/>
      <point x="591" y="188"/>
      <point x="576" y="104" type="curve" smooth="yes"/>
      <point x="557" y="-1"/>
      <point x="625" y="-46"/>
    </contour>
    <contour>
      <point x="651" y="552" type="line"/>
      <point x="668" y="552" type="line"/>
      <point x="699" y="728" type="line"/>
      <point x="682" y="728" type="line"/>
    </contour>
    <contour>
      <point x="27" y="724" type="line"/>
      <point x="992" y="724" type="line"/>
      <point x="995" y="740" type="line"/>
      <point x="30" y="740" type="line"/>
    </contour>
  </outline>
</glyph>
<glyph name="dvEcandra" format="2">
  <advance width="651"/>
  <unicode hex="090D"/>
  <anchor x="407" y="894" name="abvm.e"/>
  <outline>
    <contour>
      <point x="391" y="854" type="curve" smooth="yes"/>
      <point x="510" y="854"/>
      <point x="576" y="935"/>
      <point x="587" y="999" type="curve"/>
      <point x="571" y="999" type="line"/>
      <point x="561" y="941"/>
      <point x="502" y="870"/>
      <point x="394" y="870" type="curve" smooth="yes"/>
      <point x="285" y="870"/>
      <point x="251" y="941"/>
      <point x="261" y="999" type="curve"/>
      <point x="245" y="999" type="line"/>
      <point x="234" y="935"/>
      <point x="271" y="854"/>
    </contour>
    <component base="dvE" xOffset="-23"/>
  </outline>
</glyph>
<glyph name="dvAI" format="2">
  <advance width="650"/>
  <unicode hex="0910"/>
  <anchor x="679" y="740" name="abvm.e"/>
  <outline>
    <contour>
      <point x="598" y="737" type="curve"/>
      <point x="616" y="737" type="line"/>
      <point x="520" y="955"/>
      <point x="474" y="964"/>
      <point x="363" y="964" type="curve" smooth="yes"/>
      <point x="331" y="964" type="line"/>
      <point x="328" y="948" type="line"/>
      <point x="360" y="948" type="line" smooth="yes"/>
      <point x="466" y="948"/>
      <point x="507" y="938"/>
    </contour>
    <component base="dvE"/>
  </outline>
</glyph>
<glyph name="dvKA" format="2">
  <advance width="1021"/>
  <unicode hex="0915"/>
  <anchor x="588" y="740" name="abvm.e"/>
  <anchor x="458" y="0" name="blwm.u"/>
  <anchor x="458" y="0" name="blwm.virama"/>
  <outline>
    <contour>
      <point x="442" y="0" type="line"/>
      <point x="458" y="0" type="line"/>
      <point x="585" y="724" type="line"/>
      <point x="1118" y="724" type="line"/>
      <point x="1121" y="740" type="line"/>
      <point x="30" y="740" type="line"/>
      <point x="27" y="724" type="line"/>
      <point x="569" y="724" type="line"/>
    </contour>
    <contour>
      <point x="263" y="127" type="curve" smooth="yes"/>
      <point x="419" y="127"/>
      <point x="506" y="255"/>
      <point x="516" y="356" type="curve"/>
      <point x="503" y="347" type="line"/>
      <point x="484" y="259"/>
      <point x="409" y="143"/>
      <point x="264" y="143" type="curve" smooth="yes"/>
      <point x="151" y="143"/>
      <point x="76" y="221"/>
      <point x="100" y="359" type="curve" smooth="yes"/>
      <point x="123" y="490"/>
      <point x="231" y="568"/>
      <point x="339" y="568" type="curve" smooth="yes"/>
      <point x="486" y="568"/>
      <point x="520" y="452"/>
      <point x="505" y="359" type="curve"/>
      <point x="515" y="353" type="line"/>
      <point x="541" y="455"/>
      <point x="499" y="584"/>
      <point x="340" y="584" type="curve" smooth="yes"/>
      <point x="220" y="584"/>
      <point x="108" y="499"/>
      <point x="83" y="359" type="curve" smooth="yes"/>
      <point x="57" y="212"/>
      <point x="140" y="127"/>
    </contour>
    <contour>
      <point x="682" y="127" type="curve" smooth="yes"/>
      <point x="803" y="127"/>
      <point x="908" y="212"/>
      <point x="934" y="359" type="curve" smooth="yes"/>
      <point x="959" y="499"/>
      <point x="874" y="584"/>
      <point x="758" y="584" type="curve" smooth="yes"/>
      <point x="603" y="584"/>
      <point x="523" y="457"/>
      <point x="508" y="354" type="curve"/>
      <point x="520" y="354" type="line"/>
      <point x="537" y="451"/>
      <point x="613" y="568"/>
      <point x="757" y="568" type="curve" smooth="yes"/>
      <point x="863" y="568"/>
      <point x="940" y="490"/>
      <point x="917" y="359" type="curve" smooth="yes"/>
      <point x="893" y="221"/>
      <point x="792" y="143"/>
      <point x="685" y="143" type="curve" smooth="yes"/>
      <point x="666" y="143"/>
      <point x="645" y="145"/>
      <point x="629" y="149" type="curve"/>
      <point x="626" y="133" type="line"/>
      <point x="639" y="130"/>
      <point x="661" y="127"/>
    </contour>
  </outline>
</glyph>
<glyph name="dvKHA" format="2">
  <advance width="909"/>
  <unicode hex="0916"/>
  <guideline x="337" y="111" angle="90"/>
  <guideline x="844" y="565" angle="0"/>
  <guideline x="773" y="159" angle="0"/>
  <outline>
    <contour>
      <point x="700" y="0" type="line"/>
      <point x="717" y="0" type="line"/>
      <point x="844" y="724" type="line"/>
      <point x="1006" y="724" type="line"/>
      <point x="1009" y="740" type="line"/>
      <point x="30" y="740" type="line"/>
      <point x="27" y="724" type="line"/>
      <point x="827" y="724" type="line"/>
    </contour>
    <contour>
      <point x="255" y="0" type="curve" smooth="yes"/>
      <point x="372" y="0"/>
      <point x="459" y="79"/>
      <point x="503" y="167" type="curve"/>
      <point x="488" y="173" type="line"/>
      <point x="448" y="90"/>
      <point x="361" y="16"/>
      <point x="259" y="16" type="curve" smooth="yes"/>
      <point x="134" y="16"/>
      <point x="68" y="94"/>
      <point x="89" y="214" type="curve" smooth="yes"/>
      <point x="120" y="387" type="line"/>
      <point x="108" y="379" type="line"/>
      <point x="118" y="378"/>
      <point x="128" y="378"/>
      <point x="139" y="378" type="curve" smooth="yes"/>
      <point x="227" y="378"/>
      <point x="317" y="410"/>
      <point x="344" y="563" type="curve" smooth="yes"/>
      <point x="373" y="730" type="line"/>
      <point x="356" y="730" type="line"/>
      <point x="327" y="563" type="line" smooth="yes"/>
      <point x="302" y="419"/>
      <point x="212" y="394"/>
      <point x="148" y="394" type="curve" smooth="yes"/>
      <point x="134" y="394"/>
      <point x="118" y="394"/>
      <point x="104" y="394" type="curve"/>
      <point x="72" y="214" type="line" smooth="yes"/>
      <point x="49" y="82"/>
      <point x="123" y="0"/>
    </contour>
    <contour>
      <point x="548" y="159" type="curve" smooth="yes"/>
      <point x="686" y="159"/>
      <point x="765" y="273"/>
      <point x="774" y="363" type="curve"/>
      <point x="770" y="362" type="line"/>
      <point x="763" y="361" type="line"/>
      <point x="749" y="280"/>
      <point x="680" y="175"/>
      <point x="551" y="175" type="curve" smooth="yes"/>
      <point x="449" y="175"/>
      <point x="378" y="244"/>
      <point x="399" y="366" type="curve" smooth="yes"/>
      <point x="419" y="481"/>
      <point x="512" y="549"/>
      <point x="611" y="549" type="curve" smooth="yes"/>
      <point x="744" y="549"/>
      <point x="779" y="447"/>
      <point x="763" y="361" type="curve"/>
      <point x="770" y="360" type="line"/>
      <point x="773" y="360" type="line"/>
      <point x="797" y="451"/>
      <point x="759" y="565"/>
      <point x="613" y="565" type="curve" smooth="yes"/>
      <point x="502" y="565"/>
      <point x="403" y="490"/>
      <point x="382" y="366" type="curve" smooth="yes"/>
      <point x="360" y="237"/>
      <point x="440" y="159"/>
    </contour>
  </outline>
</glyph>
<glyph name="dvGA" format="2">
  <advance width="683"/>
  <unicode hex="0917"/>
  <outline>
    <contour>
      <point x="474" y="0" type="line"/>
      <point x="491" y="0" type="line"/>
      <point x="618" y="724" type="line"/>
      <point x="780" y="724" type="line"/>
      <point x="783" y="740" type="line"/>
      <point x="30" y="740" type="line"/>
      <point x="27" y="724" type="line"/>
      <point x="601" y="724" type="line"/>
    </contour>
    <contour>
      <point x="172" y="273" type="curve"/>
      <point x="264" y="273"/>
      <point x="309" y="340"/>
      <point x="322" y="414" type="curve" smooth="yes"/>
      <point x="378" y="732" type="line"/>
      <point x="361" y="732" type="line"/>
      <point x="305" y="414" type="line" smooth="yes"/>
      <point x="294" y="353"/>
      <point x="259" y="289"/>
      <point x="172" y="289" type="curve" smooth="yes"/>
      <point x="89" y="289"/>
      <point x="73" y="354"/>
      <point x="83" y="411" type="curve" smooth="yes"/>
      <point x="89" y="442" type="line"/>
      <point x="72" y="442" type="line"/>
      <point x="70" y="432"/>
      <point x="68" y="422"/>
      <point x="66" y="412" type="curve" smooth="yes"/>
      <point x="54" y="343"/>
      <point x="82" y="273"/>
    </contour>
  </outline>
</glyph>
<glyph name="dvGHA" format="2">
  <advance width="721"/>
  <unicode hex="0918"/>
  <outline>
    <contour>
      <point x="284" y="116" type="curve" smooth="yes"/>
      <point x="437" y="116"/>
      <point x="566" y="220"/>
      <point x="591" y="364" type="curve"/>
      <point x="576" y="363" type="line"/>
      <point x="551" y="227"/>
      <point x="424" y="132"/>
      <point x="287" y="132" type="curve" smooth="yes"/>
      <point x="166" y="132"/>
      <point x="82" y="185"/>
      <point x="102" y="299" type="curve" smooth="yes"/>
      <point x="117" y="382"/>
      <point x="186" y="451"/>
      <point x="328" y="451" type="curve" smooth="yes"/>
      <point x="382" y="451" type="line"/>
      <point x="385" y="467" type="line"/>
      <point x="331" y="467" type="line" smooth="yes"/>
      <point x="205" y="467"/>
      <point x="163" y="521"/>
      <point x="180" y="622" type="curve" smooth="yes"/>
      <point x="200" y="731" type="line"/>
      <point x="183" y="731" type="line"/>
      <point x="163" y="622" type="line" smooth="yes"/>
      <point x="144" y="513"/>
      <point x="198" y="468"/>
      <point x="270" y="460" type="curve"/>
      <point x="270" y="458" type="line"/>
      <point x="185" y="451"/>
      <point x="102" y="395"/>
      <point x="85" y="299" type="curve" smooth="yes"/>
      <point x="64" y="178"/>
      <point x="151" y="116"/>
    </contour>
    <contour>
      <point x="512" y="0" type="line"/>
      <point x="529" y="0" type="line"/>
      <point x="658" y="732" type="line"/>
      <point x="641" y="732" type="line"/>
    </contour>
    <contour>
      <point x="27" y="724" type="line"/>
      <point x="818" y="724" type="line"/>
      <point x="821" y="740" type="line"/>
      <point x="30" y="740" type="line"/>
    </contour>
  </outline>
</glyph>
<glyph name="dvNGA" format="2">
  <advance width="623"/>
  <unicode hex="0919"/>
  <anchor x="527" y="740" name="abvm.e"/>
  <anchor x="269" y="-99" name="blwm.u"/>
  <anchor x="286" y="-9" name="blwm.virama"/>
  <outline>
    <contour>
      <point x="573" y="391" type="curve" smooth="yes"/>
      <point x="587" y="391"/>
      <point x="599" y="401"/>
      <point x="602" y="415" type="curve" smooth="yes"/>
      <point x="604" y="429"/>
      <point x="596" y="439"/>
      <point x="582" y="439" type="curve" smooth="yes"/>
      <point x="567" y="439"/>
      <point x="555" y="429"/>
      <point x="553" y="415" type="curve" smooth="yes"/>
      <point x="550" y="401"/>
      <point x="558" y="391"/>
    </contour>
    <contour>
      <point x="256" y="-9" type="curve" smooth="yes"/>
      <point x="389" y="-9"/>
      <point x="466" y="62"/>
      <point x="482" y="150" type="curve" smooth="yes"/>
      <point x="504" y="272"/>
      <point x="406" y="314"/>
      <point x="307" y="314" type="curve" smooth="yes"/>
      <point x="292" y="314"/>
      <point x="276" y="314"/>
      <point x="262" y="314" type="curve" smooth="yes"/>
      <point x="185" y="314"/>
      <point x="118" y="343"/>
      <point x="133" y="429" type="curve" smooth="yes"/>
      <point x="151" y="528"/>
      <point x="248" y="546"/>
      <point x="324" y="546" type="curve" smooth="yes"/>
      <point x="493" y="546" type="line"/>
      <point x="496" y="562" type="line"/>
      <point x="317" y="562" type="line" smooth="yes"/>
      <point x="234" y="562"/>
      <point x="135" y="536"/>
      <point x="116" y="430" type="curve" smooth="yes"/>
      <point x="100" y="339"/>
      <point x="172" y="298"/>
      <point x="258" y="298" type="curve" smooth="yes"/>
      <point x="270" y="298"/>
      <point x="287" y="298"/>
      <point x="303" y="298" type="curve" smooth="yes"/>
      <point x="392" y="298"/>
      <point x="486" y="268"/>
      <point x="465" y="150" type="curve" smooth="yes"/>
      <point x="451" y="72"/>
      <point x="378" y="7"/>
      <point x="259" y="7" type="curve" smooth="yes"/>
      <point x="109" y="7"/>
      <point x="56" y="88"/>
      <point x="73" y="184" type="curve"/>
      <point x="56" y="184" type="line"/>
      <point x="37" y="80"/>
      <point x="102" y="-9"/>
    </contour>
    <contour>
      <point x="28" y="724" type="line"/>
      <point x="720" y="724" type="line"/>
      <point x="723" y="740" type="line"/>
      <point x="31" y="740" type="line"/>
    </contour>
    <contour>
      <point x="476" y="546" type="line"/>
      <point x="493" y="546" type="line"/>
      <point x="526" y="732" type="line"/>
      <point x="509" y="732" type="line"/>
    </contour>
  </outline>
</glyph>
<glyph name="dvCA" format="2">
  <advance width="718"/>
  <unicode hex="091A"/>
  <outline>
    <contour>
      <point x="27" y="724" type="line"/>
      <point x="815" y="724" type="line"/>
      <point x="818" y="740" type="line"/>
      <point x="30" y="740" type="line"/>
    </contour>
    <contour>
      <point x="321" y="115" type="curve" smooth="yes"/>
      <point x="451" y="115"/>
      <point x="565" y="219"/>
      <point x="581" y="333" type="curve"/>
      <point x="567" y="329" type="line"/>
      <point x="546" y="225"/>
      <point x="443" y="131"/>
      <point x="323" y="131" type="curve" smooth="yes"/>
      <point x="216" y="131"/>
      <point x="134" y="200"/>
      <point x="156" y="324" type="curve" smooth="yes"/>
      <point x="176" y="436"/>
      <point x="271" y="525"/>
      <point x="404" y="525" type="curve"/>
      <point x="407" y="538" type="line"/>
      <point x="266" y="538"/>
      <point x="161" y="449"/>
      <point x="139" y="324" type="curve" smooth="yes"/>
      <point x="116" y="193"/>
      <point x="205" y="115"/>
    </contour>
    <contour>
      <point x="76" y="525" type="line"/>
      <point x="433" y="525" type="line"/>
      <point x="436" y="541" type="line"/>
      <point x="79" y="541" type="line"/>
    </contour>
    <contour>
      <point x="509" y="0" type="line"/>
      <point x="526" y="0" type="line"/>
      <point x="655" y="732" type="line"/>
      <point x="638" y="732" type="line"/>
    </contour>
  </outline>
</glyph>
<glyph name="dvCHA" format="2">
  <advance width="808"/>
  <unicode hex="091B"/>
  <anchor x="662" y="740" name="abvm.e"/>
  <anchor x="349" y="-57" name="blwm.u"/>
  <anchor x="366" y="33" name="blwm.virama"/>
  <outline>
    <contour>
      <point x="332" y="33" type="curve" smooth="yes"/>
      <point x="540" y="33"/>
      <point x="720" y="152"/>
      <point x="756" y="356" type="curve" smooth="yes"/>
      <point x="781" y="499"/>
      <point x="707" y="561"/>
      <point x="622" y="561" type="curve" smooth="yes"/>
      <point x="548" y="561"/>
      <point x="455" y="520"/>
      <point x="433" y="397" type="curve" smooth="yes"/>
      <point x="427" y="365"/>
      <point x="427" y="329"/>
      <point x="434" y="290" type="curve"/>
      <point x="451" y="290" type="line"/>
      <point x="445" y="329"/>
      <point x="444" y="365"/>
      <point x="450" y="397" type="curve" smooth="yes"/>
      <point x="470" y="510"/>
      <point x="557" y="545"/>
      <point x="619" y="545" type="curve" smooth="yes"/>
      <point x="692" y="545"/>
      <point x="762" y="488"/>
      <point x="738" y="355" type="curve" smooth="yes"/>
      <point x="705" y="167"/>
      <point x="529" y="49"/>
      <point x="334" y="49" type="curve" smooth="yes"/>
      <point x="175" y="49"/>
      <point x="53" y="116"/>
      <point x="77" y="251" type="curve" smooth="yes"/>
      <point x="93" y="342"/>
      <point x="170" y="418"/>
      <point x="315" y="418" type="curve" smooth="yes"/>
      <point x="339" y="418" type="line"/>
      <point x="341" y="434" type="line"/>
      <point x="317" y="434" type="line" smooth="yes"/>
      <point x="191" y="434"/>
      <point x="149" y="488"/>
      <point x="167" y="589" type="curve" smooth="yes"/>
      <point x="192" y="731" type="line"/>
      <point x="175" y="731" type="line"/>
      <point x="150" y="589" type="line" smooth="yes"/>
      <point x="130" y="480"/>
      <point x="185" y="435"/>
      <point x="256" y="427" type="curve"/>
      <point x="256" y="425" type="line"/>
      <point x="166" y="417"/>
      <point x="79" y="359"/>
      <point x="60" y="251" type="curve" smooth="yes"/>
      <point x="35" y="110"/>
      <point x="158" y="33"/>
    </contour>
    <contour>
      <point x="25" y="724" type="line"/>
      <point x="906" y="724" type="line"/>
      <point x="908" y="740" type="line"/>
      <point x="27" y="740" type="line"/>
    </contour>
    <contour>
      <point x="612" y="551" type="line"/>
      <point x="629" y="551" type="line"/>
      <point x="661" y="732" type="line"/>
      <point x="644" y="732" type="line"/>
    </contour>
  </outline>
</glyph>
<glyph name="dvJA" format="2">
  <advance width="823"/>
  <unicode hex="091C"/>
  <outline>
    <contour>
      <point x="218" y="159" type="curve" smooth="yes"/>
      <point x="325" y="158"/>
      <point x="398" y="234"/>
      <point x="417" y="340" type="curve" smooth="yes"/>
      <point x="447" y="509" type="line"/>
      <point x="430" y="509" type="line"/>
      <point x="400" y="339" type="line" smooth="yes"/>
      <point x="383" y="243"/>
      <point x="314" y="175"/>
      <point x="222" y="175" type="curve" smooth="yes"/>
      <point x="134" y="175"/>
      <point x="91" y="243"/>
      <point x="108" y="339" type="curve" smooth="yes"/>
      <point x="138" y="509" type="line"/>
      <point x="121" y="509" type="line"/>
      <point x="91" y="340" type="line" smooth="yes"/>
      <point x="73" y="237"/>
      <point x="123" y="160"/>
    </contour>
    <contour>
      <point x="437" y="493" type="line"/>
      <point x="709" y="493" type="line"/>
      <point x="712" y="509" type="line"/>
      <point x="440" y="509" type="line"/>
    </contour>
    <contour>
      <point x="614" y="0" type="line"/>
      <point x="631" y="0" type="line"/>
      <point x="760" y="732" type="line"/>
      <point x="743" y="732" type="line"/>
    </contour>
    <contour>
      <point x="27" y="724" type="line"/>
      <point x="920" y="724" type="line"/>
      <point x="923" y="740" type="line"/>
      <point x="30" y="740" type="line"/>
    </contour>
  </outline>
</glyph>
<glyph name="dvTTA" format="2">
  <advance width="649"/>
  <unicode hex="091F"/>
  <anchor x="501" y="740" name="abvm.e"/>
  <anchor x="281" y="-27" name="blwm.u"/>
  <anchor x="297" y="63" name="blwm.virama"/>
  <outline>
    <contour>
      <point x="286" y="63" type="curve" smooth="yes"/>
      <point x="442" y="63"/>
      <point x="554" y="169"/>
      <point x="580" y="320" type="curve"/>
      <point x="563" y="320" type="line"/>
      <point x="539" y="179"/>
      <point x="431" y="79"/>
      <point x="289" y="79" type="curve" smooth="yes"/>
      <point x="150" y="79"/>
      <point x="61" y="176"/>
      <point x="86" y="312" type="curve" smooth="yes"/>
      <point x="116" y="479"/>
      <point x="249" y="557"/>
      <point x="400" y="557" type="curve" smooth="yes"/>
      <point x="468" y="557" type="line"/>
      <point x="499" y="728" type="line"/>
      <point x="482" y="728" type="line"/>
      <point x="453" y="564" type="line"/>
      <point x="463" y="573" type="line"/>
      <point x="403" y="573" type="line" smooth="yes"/>
      <point x="242" y="573"/>
      <point x="101" y="493"/>
      <point x="69" y="313" type="curve" smooth="yes"/>
      <point x="42" y="167"/>
      <point x="140" y="63"/>
    </contour>
    <contour>
      <point x="22" y="724" type="line"/>
      <point x="746" y="724" type="line"/>
      <point x="749" y="740" type="line"/>
      <point x="25" y="740" type="line"/>
    </contour>
  </outline>
</glyph>
<glyph name="dvTTHA" format="2">
  <advance width="675"/>
  <unicode hex="0920"/>
  <anchor x="408" y="740" name="abvm.e"/>
  <anchor x="281" y="-27" name="blwm.u"/>
  <anchor x="297" y="63" name="blwm.virama"/>
  <outline>
    <contour>
      <point x="280" y="63" type="curve" smooth="yes"/>
      <point x="426" y="63"/>
      <point x="552" y="162"/>
      <point x="578" y="307" type="curve" smooth="yes"/>
      <point x="604" y="452"/>
      <point x="511" y="559"/>
      <point x="367" y="559" type="curve" smooth="yes"/>
      <point x="221" y="559"/>
      <point x="96" y="460"/>
      <point x="70" y="315" type="curve" smooth="yes"/>
      <point x="44" y="170"/>
      <point x="137" y="63"/>
    </contour>
    <contour>
      <point x="283" y="79" type="curve" smooth="yes"/>
      <point x="148" y="79"/>
      <point x="63" y="180"/>
      <point x="87" y="315" type="curve" smooth="yes"/>
      <point x="111" y="451"/>
      <point x="234" y="543"/>
      <point x="365" y="543" type="curve" smooth="yes"/>
      <point x="502" y="543"/>
      <point x="585" y="443"/>
      <point x="561" y="307" type="curve" smooth="yes"/>
      <point x="537" y="172"/>
      <point x="414" y="79"/>
    </contour>
    <contour>
      <point x="357" y="550" type="line"/>
      <point x="374" y="550" type="line"/>
      <point x="405" y="724" type="line"/>
      <point x="772" y="724" type="line"/>
      <point x="775" y="740" type="line"/>
      <point x="25" y="740" type="line"/>
      <point x="22" y="724" type="line"/>
      <point x="388" y="724" type="line"/>
    </contour>
  </outline>
</glyph>
<glyph name="dvDDA" format="2">
  <advance width="583"/>
  <unicode hex="0921"/>
  <anchor x="519" y="740" name="abvm.e"/>
  <anchor x="261" y="-99" name="blwm.u"/>
  <anchor x="277" y="-9" name="blwm.virama"/>
  <outline>
    <contour>
      <point x="256" y="-9" type="curve" smooth="yes"/>
      <point x="389" y="-9"/>
      <point x="466" y="62"/>
      <point x="482" y="150" type="curve" smooth="yes"/>
      <point x="504" y="272"/>
      <point x="406" y="314"/>
      <point x="307" y="314" type="curve" smooth="yes"/>
      <point x="292" y="314"/>
      <point x="276" y="314"/>
      <point x="262" y="314" type="curve" smooth="yes"/>
      <point x="185" y="314"/>
      <point x="118" y="343"/>
      <point x="133" y="429" type="curve" smooth="yes"/>
      <point x="151" y="528"/>
      <point x="248" y="546"/>
      <point x="324" y="546" type="curve" smooth="yes"/>
      <point x="485" y="546" type="line"/>
      <point x="486" y="562" type="line"/>
      <point x="317" y="562" type="line" smooth="yes"/>
      <point x="234" y="562"/>
      <point x="135" y="536"/>
      <point x="116" y="430" type="curve" smooth="yes"/>
      <point x="100" y="339"/>
      <point x="172" y="298"/>
      <point x="258" y="298" type="curve" smooth="yes"/>
      <point x="270" y="298"/>
      <point x="287" y="298"/>
      <point x="303" y="298" type="curve" smooth="yes"/>
      <point x="392" y="298"/>
      <point x="486" y="268"/>
      <point x="465" y="150" type="curve" smooth="yes"/>
      <point x="451" y="72"/>
      <point x="378" y="7"/>
      <point x="259" y="7" type="curve" smooth="yes"/>
      <point x="109" y="7"/>
      <point x="56" y="88"/>
      <point x="73" y="184" type="curve"/>
      <point x="56" y="184" type="line"/>
      <point x="37" y="80"/>
      <point x="102" y="-9"/>
    </contour>
    <contour>
      <point x="28" y="724" type="line"/>
      <point x="680" y="724" type="line"/>
      <point x="683" y="740" type="line"/>
      <point x="31" y="740" type="line"/>
    </contour>
    <contour>
      <point x="468" y="546" type="line"/>
      <point x="485" y="546" type="line"/>
      <point x="518" y="732" type="line"/>
      <point x="501" y="732" type="line"/>
    </contour>
  </outline>
</glyph>
<glyph name="dvNNA" format="2">
  <advance width="820"/>
  <unicode hex="0923"/>
  <outline>
    <contour>
      <point x="240" y="218" type="curve" smooth="yes"/>
      <point x="342" y="218"/>
      <point x="412" y="293"/>
      <point x="431" y="399" type="curve" smooth="yes"/>
      <point x="490" y="733" type="line"/>
      <point x="473" y="733" type="line"/>
      <point x="414" y="398" type="line" smooth="yes"/>
      <point x="397" y="302"/>
      <point x="331" y="234"/>
      <point x="239" y="234" type="curve" smooth="yes"/>
      <point x="149" y="234"/>
      <point x="105" y="302"/>
      <point x="122" y="398" type="curve" smooth="yes"/>
      <point x="181" y="733" type="line"/>
      <point x="164" y="733" type="line"/>
      <point x="105" y="399" type="line" smooth="yes"/>
      <point x="85" y="293"/>
      <point x="138" y="218"/>
    </contour>
    <contour>
      <point x="611" y="0" type="line"/>
      <point x="628" y="0" type="line"/>
      <point x="757" y="733" type="line"/>
      <point x="740" y="733" type="line"/>
    </contour>
    <contour>
      <point x="27" y="724" type="line"/>
      <point x="917" y="724" type="line"/>
      <point x="920" y="740" type="line"/>
      <point x="30" y="740" type="line"/>
    </contour>
  </outline>
</glyph>
<glyph name="dvTA" format="2">
  <advance width="681"/>
  <unicode hex="0924"/>
  <outline>
    <contour>
      <point x="565" y="487" type="line"/>
      <point x="567" y="503" type="line"/>
      <point x="394" y="503" type="line" smooth="yes"/>
      <point x="221" y="503"/>
      <point x="95" y="426"/>
      <point x="64" y="253" type="curve" smooth="yes"/>
      <point x="36" y="94"/>
      <point x="121" y="2"/>
      <point x="280" y="2" type="curve" smooth="yes"/>
      <point x="304" y="2" type="line"/>
      <point x="307" y="18" type="line"/>
      <point x="283" y="18" type="line" smooth="yes"/>
      <point x="128" y="18"/>
      <point x="55" y="103"/>
      <point x="81" y="253" type="curve" smooth="yes"/>
      <point x="110" y="414"/>
      <point x="229" y="487"/>
      <point x="392" y="487" type="curve" smooth="yes"/>
    </contour>
    <contour>
      <point x="27" y="724" type="line"/>
      <point x="778" y="724" type="line"/>
      <point x="781" y="740" type="line"/>
      <point x="30" y="740" type="line"/>
    </contour>
    <contour>
      <point x="618" y="731" type="line"/>
      <point x="601" y="731" type="line"/>
      <point x="472" y="0" type="line"/>
      <point x="489" y="0" type="line"/>
    </contour>
  </outline>
</glyph>
<glyph name="dvTHA" format="2">
  <advance width="740"/>
  <unicode hex="0925"/>
  <outline>
    <contour>
      <point x="531" y="0" type="line"/>
      <point x="548" y="0" type="line"/>
      <point x="676" y="724" type="line"/>
      <point x="838" y="724" type="line"/>
      <point x="840" y="740" type="line"/>
      <point x="661" y="740" type="line"/>
      <point x="591" y="343" type="line" smooth="yes"/>
      <point x="569" y="219"/>
      <point x="451" y="130"/>
      <point x="327" y="130" type="curve" smooth="yes"/>
      <point x="165" y="130"/>
      <point x="82" y="234"/>
      <point x="123" y="402" type="curve"/>
      <point x="112" y="395" type="line"/>
      <point x="133" y="395"/>
      <point x="160" y="395"/>
      <point x="214" y="395" type="curve" smooth="yes"/>
      <point x="334" y="395"/>
      <point x="462" y="434"/>
      <point x="488" y="581" type="curve" smooth="yes"/>
      <point x="505" y="674"/>
      <point x="452" y="749"/>
      <point x="348" y="749" type="curve" smooth="yes"/>
      <point x="224" y="749"/>
      <point x="144" y="655"/>
      <point x="144" y="525" type="curve"/>
      <point x="161" y="525" type="line"/>
      <point x="161" y="645"/>
      <point x="231" y="733"/>
      <point x="348" y="733" type="curve" smooth="yes"/>
      <point x="443" y="733"/>
      <point x="486" y="665"/>
      <point x="471" y="581" type="curve" smooth="yes"/>
      <point x="446" y="439"/>
      <point x="316" y="411"/>
      <point x="216" y="411" type="curve" smooth="yes"/>
      <point x="108" y="411" type="line"/>
      <point x="105" y="399"/>
      <point x="102" y="387"/>
      <point x="100" y="376" type="curve" smooth="yes"/>
      <point x="71" y="219"/>
      <point x="162" y="114"/>
      <point x="325" y="114" type="curve" smooth="yes"/>
      <point x="455" y="114"/>
      <point x="548" y="197"/>
      <point x="578" y="264" type="curve"/>
    </contour>
  </outline>
</glyph>
<glyph name="dvDA" format="2">
  <advance width="607"/>
  <unicode hex="0926"/>
  <anchor x="536" y="740" name="abvm.e"/>
  <anchor x="451" y="0" name="blwm.u"/>
  <anchor x="451" y="0" name="blwm.virama"/>
  <outline>
    <contour>
      <point x="434" y="0" type="line"/>
      <point x="451" y="0" type="line"/>
      <point x="507" y="321" type="line"/>
      <point x="492" y="321" type="line"/>
      <point x="470" y="193"/>
      <point x="353" y="145"/>
      <point x="273" y="145" type="curve" smooth="yes"/>
      <point x="148" y="145"/>
      <point x="78" y="231"/>
      <point x="100" y="358" type="curve" smooth="yes"/>
      <point x="126" y="505"/>
      <point x="253" y="572"/>
      <point x="386" y="572" type="curve" smooth="yes"/>
      <point x="507" y="572" type="line"/>
      <point x="535" y="732" type="line"/>
      <point x="518" y="732" type="line"/>
      <point x="492" y="588" type="line"/>
      <point x="388" y="588" type="line" smooth="yes"/>
      <point x="247" y="588"/>
      <point x="112" y="521"/>
      <point x="83" y="358" type="curve" smooth="yes"/>
      <point x="59" y="224"/>
      <point x="137" y="129"/>
      <point x="271" y="129" type="curve" smooth="yes"/>
      <point x="364" y="129"/>
      <point x="447" y="180"/>
      <point x="479" y="246" type="curve"/>
      <point x="478" y="250" type="line"/>
    </contour>
    <contour>
      <point x="27" y="724" type="line"/>
      <point x="704" y="724" type="line"/>
      <point x="707" y="740" type="line"/>
      <point x="30" y="740" type="line"/>
    </contour>
  </outline>
</glyph>
<glyph name="dvPA" format="2">
  <advance width="635"/>
  <unicode hex="092A"/>
  <outline>
    <contour>
      <point x="284" y="231" type="curve" smooth="yes"/>
      <point x="409" y="231"/>
      <point x="496" y="317"/>
      <point x="516" y="435" type="curve"/>
      <point x="502" y="432" type="line"/>
      <point x="483" y="332"/>
      <point x="403" y="247"/>
      <point x="285" y="247" type="curve" smooth="yes"/>
      <point x="161" y="247"/>
      <point x="110" y="330"/>
      <point x="134" y="469" type="curve" smooth="yes"/>
      <point x="180" y="728" type="line"/>
      <point x="163" y="728" type="line"/>
      <point x="117" y="469" type="line" smooth="yes"/>
      <point x="91" y="320"/>
      <point x="152" y="231"/>
    </contour>
    <contour>
      <point x="426" y="0" type="line"/>
      <point x="443" y="0" type="line"/>
      <point x="571" y="728" type="line"/>
      <point x="554" y="728" type="line"/>
    </contour>
    <contour>
      <point x="27" y="724" type="line"/>
      <point x="732" y="724" type="line"/>
      <point x="735" y="740" type="line"/>
      <point x="30" y="740" type="line"/>
    </contour>
  </outline>
</glyph>
<glyph name="dvBA" format="2">
  <advance width="690"/>
  <unicode hex="092C"/>
  <outline>
    <contour>
      <point x="481" y="0" type="line"/>
      <point x="498" y="0" type="line"/>
      <point x="625" y="724" type="line"/>
      <point x="787" y="724" type="line"/>
      <point x="790" y="740" type="line"/>
      <point x="30" y="740" type="line"/>
      <point x="27" y="724" type="line"/>
      <point x="608" y="724" type="line"/>
      <point x="553" y="410" type="line"/>
      <point x="555" y="353" type="line"/>
      <point x="582" y="459"/>
      <point x="527" y="593"/>
      <point x="360" y="593" type="curve" smooth="yes"/>
      <point x="228" y="593"/>
      <point x="108" y="502"/>
      <point x="82" y="353" type="curve" smooth="yes"/>
      <point x="56" y="207"/>
      <point x="155" y="120"/>
      <point x="285" y="120" type="curve" smooth="yes"/>
      <point x="429" y="120"/>
      <point x="521" y="221"/>
      <point x="547" y="316" type="curve"/>
      <point x="535" y="305" type="line"/>
    </contour>
    <contour>
      <point x="286" y="136" type="curve" smooth="yes"/>
      <point x="164" y="136"/>
      <point x="75" y="215"/>
      <point x="99" y="353" type="curve" smooth="yes"/>
      <point x="124" y="494"/>
      <point x="239" y="577"/>
      <point x="360" y="577" type="curve" smooth="yes"/>
      <point x="513" y="577"/>
      <point x="562" y="458"/>
      <point x="543" y="355" type="curve" smooth="yes"/>
      <point x="527" y="261"/>
      <point x="441" y="136"/>
    </contour>
    <contour>
      <point x="459" y="187" type="line"/>
      <point x="469" y="198" type="line"/>
      <point x="187" y="526" type="line"/>
      <point x="176" y="516" type="line"/>
    </contour>
  </outline>
</glyph>
